<svg xmlns="http://www.w3.org/2000/svg" viewBox="0 0 2000 500">
  <title>cover</title>
  <rect width="2000" height="500" style="fill: #35bbff"/>
  <g>
    <circle cx="997.14" cy="190.45" r="132.19" style="fill: #cacaca"/>
    <g>
      <circle cx="998.73" cy="191.11" r="132.19" style="fill: #fff"/>
      <path d="M998.73,90.21a100.9,100.9,0,1,1-100.89,100.9A101,101,0,0,1,998.73,90.21m0-5a105.9,105.9,0,1,0,105.9,105.9,105.9,105.9,0,0,0-105.9-105.9Z" style="fill: #35bbff"/>
    </g>
    <g>
      <g>
        <path d="M826,95.35v0Z" style="fill: #cacaca"/>
        <path d="M838.36,95.35v-.11A.54.54,0,0,0,838.36,95.35Z" style="fill: #cacaca"/>
        <path d="M839.06,96.31c.11,2.13,1.11,34.21.58,46.94a1.6,1.6,0,0,1-1.6,1.53h0a1.59,1.59,0,0,1-1.59-1.55L835.1,96.77l-1.35,46.62a1.6,1.6,0,0,1-3.19,0l.08-46.62-2.78,46.46a1.59,1.59,0,0,1-1.59,1.55h0a1.59,1.59,0,0,1-1.59-1.53c-.53-12.73,1.88-44.81,2-46.94-.17,2.59-5.35,46-5.35,51.88v11.73a13.3,13.3,0,0,0,.75,4.17,7.8,7.8,0,0,0,.39,1.08,5.07,5.07,0,0,0,.7,1.08,10.4,10.4,0,0,0,1,1.08l1.24,1.07c.41.36.83.72,1.2,1.08a8.94,8.94,0,0,1,.93,1.08,4.79,4.79,0,0,1,.56,1.07q.17.54.3,1.08a29.69,29.69,0,0,1,.81,4.31,34.51,34.51,0,0,1,.17,4.31l-.09,4.31c0,1.43,0,2.87.08,4.31l.13,9.9q-.18,7.49-.35,15-.78,13.38-1.78,26.74c-.89,11.49-1.84,23-3.14,34.47a8.82,8.82,0,0,0,0,1.78,8,8,0,0,0,9.07,7,8.08,8.08,0,0,0,6.7-8.94c-1.29-11.43-2.23-22.85-3.12-34.28q-1-13.36-1.78-26.74-.17-7.47-.34-15l.13-9.9c.07-1.44.09-2.88.07-4.31l-.09-4.31a36.55,36.55,0,0,1,.18-4.31,29.65,29.65,0,0,1,.8-4.31c.1-.36.19-.72.31-1.08a4.09,4.09,0,0,1,.56-1.07,8,8,0,0,1,.92-1.08c.37-.36.79-.72,1.2-1.08s.85-.72,1.24-1.07a10.4,10.4,0,0,0,1-1.08,5.56,5.56,0,0,0,.71-1.08,7.73,7.73,0,0,0,.38-1.08,13,13,0,0,0,.76-4.17V148.19C843,142.27,839.23,98.9,839.06,96.31Z" style="fill: #cacaca"/>
      </g>
      <g>
        <path d="M826.67,96.42v0Z" style="fill: #fff"/>
        <path d="M839.07,96.42v-.11A.54.54,0,0,0,839.07,96.42Z" style="fill: #fff"/>
        <path d="M839.07,96.42c.11,2.13,1.81,35.17,1.28,47.9a1.59,1.59,0,0,1-1.59,1.52h0a1.58,1.58,0,0,1-1.59-1.54L835.1,96.77l-.64,47.69a1.6,1.6,0,0,1-3.19,0l-.63-47.69-2.06,47.53a1.59,1.59,0,0,1-1.6,1.54h0a1.58,1.58,0,0,1-1.59-1.52c-.53-12.73,1.17-45.77,1.28-47.9C826.5,99,822,143.34,822,149.26V161a13.36,13.36,0,0,0,.75,4.18,7.8,7.8,0,0,0,.39,1.08,4.78,4.78,0,0,0,.7,1.07,10.4,10.4,0,0,0,1,1.08c.4.36.83.72,1.24,1.08s.84.72,1.2,1.08a8.17,8.17,0,0,1,.93,1.07,4.65,4.65,0,0,1,.56,1.08q.17.54.3,1.08a29.44,29.44,0,0,1,.81,4.31,34.35,34.35,0,0,1,.17,4.3L830,186.7c0,1.44,0,2.88.08,4.31l.13,9.9q-.18,7.49-.35,15-.78,13.37-1.78,26.74c-.89,11.49-1.84,23-3.14,34.47a8.82,8.82,0,0,0,0,1.78,8,8,0,0,0,9.07,7,8.08,8.08,0,0,0,6.7-8.95c-1.29-11.42-2.23-22.85-3.12-34.27q-1-13.37-1.78-26.74-.17-7.49-.34-15l.13-9.9c.07-1.43.1-2.87.07-4.31l-.09-4.31a36.38,36.38,0,0,1,.18-4.3,30.79,30.79,0,0,1,.8-4.31c.1-.36.19-.72.31-1.08a4.29,4.29,0,0,1,.56-1.08,7.39,7.39,0,0,1,.92-1.07c.37-.36.79-.72,1.2-1.08s.85-.72,1.24-1.08a10.4,10.4,0,0,0,1-1.08,5.22,5.22,0,0,0,.71-1.07,7.73,7.73,0,0,0,.38-1.08,13.1,13.1,0,0,0,.76-4.18V149.26C843.71,143.34,839.24,99,839.07,96.42Z" style="fill: #fff"/>
      </g>
    </g>
    <g>
      <path d="M943.37,218.28s-1.33-11.18,2.16-26.37,6.3-41.46,14.18-51.38,6.7-25.11,5.32-36.35S980.28,80,999.24,73.24s20.65-18.56,20.65-18.56" style="fill: #679742"/>
      <path d="M971.3,224.47s1.65-25.31,23-33.75,9-31.5,19.71-45,39.93-12.38,41-26.44-20-16.41-16.12-38.41-21-31.18-25.75-18.6-9.31,21-21.68,19.89-27,14.33-20.25,27.41,2.25,19.83-4.5,27.71-16.31,21.93-10.68,30.37-13.7,33.18-12.75,50.62Z" style="fill: #99c663"/>
      <path d="M949.43,219.62s22.38-39.64,27.71-59.2c7.52-27.56,20.81-56.24,42.75-64.12a102.56,102.56,0,0,0-14.68,19.44c-6.64,11.7-11.22,26.31-14.22,36.8-6.18,21.68-27.85,61.05-30.13,69.61Z" style="fill: #e0ecd0"/>
    </g>
    <g>
      <path d="M1061.33,150.56s-10.06-5.05-25.52-6.94-41.13-8.22-53.14-4.19-25.89-2.26-36-7.39-27.94,6.09-40.74,21.62-24.49,13.08-24.49,13.08" style="fill: #679742"/>
      <path d="M1057.63,178.94s-24.36-7.09-39.58,10.15-32.69-2.25-49,3.19-25.24,33.33-38.84,29.59-8.61-24.42-30.61-28.25-22.18-30.32-8.72-30.55,22.93-1.58,26.09-13.6,22.67-20.5,32.67-9.69,17.88,8.87,27.58,5.21,26.19-7.85,32.2.31,35.86-1.56,51.93,5.26Z" style="fill: #99c663"/>
      <path d="M1060.53,156.72s-44.89,7.53-65.11,5.88c-28.47-2.33-60,.39-74.84,18.33a102.55,102.55,0,0,1,23.28-7.17c13.26-2.26,28.55-1.59,39.44-.83,22.49,1.58,66.88-5.37,75.71-4.6Z" style="fill: #e0ecd0"/>
    </g>
    <g>
      <path d="M1167.4,96.44a1.31,1.31,0,0,1,1.74,1.23v70.61c0,1.06-.27,4.78-.37,5.14a28.37,28.37,0,0,0-.8,4.31,36.55,36.55,0,0,0-.18,4.31l.09,4.31c0,1.43,0,2.87-.08,4.31l-.13,9.9.35,15q.78,13.36,1.78,26.73c.9,11.49,1.84,23,3.14,34.47a8.92,8.92,0,0,1,0,1.79,8,8,0,0,1-9.06,7,8.08,8.08,0,0,1-6.71-8.94c1.29-11.43,2.23-22.85,3.12-34.28q1-13.37,1.78-26.73l.34-15-.12-9.9c-.08-1.44-.1-2.88-.08-4.31l.09-4.31a36.55,36.55,0,0,0-.18-4.31,29.65,29.65,0,0,0-.8-4.31c-.1-.36-.19-.72-.31-1.08a4.36,4.36,0,0,0-.55-1.07,8.94,8.94,0,0,0-.93-1.08c-.37-.36-.79-.72-1.2-1.08s-.84-.71-1.24-1.07a10.4,10.4,0,0,1-1-1.08,5.07,5.07,0,0,1-.7-1.08,6.69,6.69,0,0,1-.39-1.08,12.71,12.71,0,0,1-.75-4.17s-.36-15.34-.36-38.56C1153.85,103.5,1163.13,97.92,1167.4,96.44Z" style="fill: #cacaca"/>
      <path d="M1168.11,96.8a1.3,1.3,0,0,1,1.74,1.22v70.61c0,1.07-.27,4.79-.37,5.15a29.4,29.4,0,0,0-.8,4.31,36.38,36.38,0,0,0-.18,4.3l.09,4.31c0,1.44,0,2.88-.08,4.31l-.12,9.9.34,15q.78,13.37,1.78,26.74c.9,11.49,1.84,23,3.14,34.47a8.82,8.82,0,0,1,0,1.78,8,8,0,0,1-9.06,7,8.08,8.08,0,0,1-6.71-8.95c1.29-11.42,2.23-22.85,3.12-34.27q1-13.37,1.78-26.74l.34-15L1163,191c-.08-1.43-.1-2.87-.08-4.31l.09-4.31a36.38,36.38,0,0,0-.18-4.3,29.4,29.4,0,0,0-.8-4.31c-.1-.36-.19-.72-.31-1.08a4.24,4.24,0,0,0-.55-1.08,8.17,8.17,0,0,0-.93-1.07c-.37-.36-.79-.72-1.2-1.08s-.84-.72-1.24-1.08a10.4,10.4,0,0,1-1-1.08,4.78,4.78,0,0,1-.7-1.07,7.8,7.8,0,0,1-.39-1.08,13.08,13.08,0,0,1-.75-4.18s-.36-15.33-.36-38.55C1154.56,103.85,1163.84,98.28,1168.11,96.8Z" style="fill: #fff"/>
    </g>
    <g>
      <path d="M1068.29,121.9a10.55,10.55,0,0,0,4.66.51,30.69,30.69,0,0,0,4.65-.86c1.54-.39,3.06-.84,4.6-1.25a20.1,20.1,0,0,1,4.78-.82,15.79,15.79,0,0,1,4.85.67l1.14.31a10.85,10.85,0,0,1,1.19.37c.77.28,1.51.6,2.24.93s1.46.66,2.18,1a12.62,12.62,0,0,1,2.14,1.26,11,11,0,0,1,3.18,3.78l-.79.52c-.49-.62-.94-1.26-1.45-1.8a12.53,12.53,0,0,0-1.69-1.48,11.81,11.81,0,0,0-2-1.16c-.7-.36-1.41-.72-2.12-1.06s-1.42-.67-2.14-1a9,9,0,0,0-1.07-.36l-1.15-.35a14.77,14.77,0,0,0-4.54-.77,20.86,20.86,0,0,0-4.62.62c-1.54.35-3.09.75-4.65,1.07a29.3,29.3,0,0,1-4.76.65,10.78,10.78,0,0,1-4.7-.77Z" style="fill: gray"/>
      <path d="M1025.55,206.93s-1,4.63-2,7.89-2.16,7.43-5.54,10.54-14,7.64-17.83,9.93-13,7.52-16.1,8.81-12.84,4.6-16.85,6.62-15.52,7.62-18.37,9.19-11.51,5.66-11.51,5.66-3.37-6.67-1.31-10.06" style="fill: gray"/>
      <path d="M927.74,245.35s-7.62-2.48-9.2-2.71,5.23-8.27,8.77-13,11.88-11.86,18.61-17.57,12.1-12.37,19.52-18.54a247.19,247.19,0,0,0,18.75-18.09c3.45-3.59,7.17-7.72,12.29-12.21s6.73-5.07,8.57-5.73a178.39,178.39,0,0,1,18.23-3.85c4.29-.51,14.5-.58,16.41-.5" style="fill: gray"/>
      <path d="M1099.69,127.85a8.38,8.38,0,0,0-3.23-1.86,10,10,0,0,0-3.94-.24c-2.74.38-5.51,1-8.29,1.54a81.7,81.7,0,0,1-8.42,1.23,26.34,26.34,0,0,1-4.26,0,6.9,6.9,0,0,1-4-1.38,6.86,6.86,0,0,0,4,1.12,28,28,0,0,0,4.19-.27,80.67,80.67,0,0,0,8.28-1.61c2.76-.62,5.46-1.35,8.31-1.85a11.25,11.25,0,0,1,4.47.13,5.28,5.28,0,0,1,3.69,2.7Z" style="fill: gray"/>
      <path d="M1098.06,125.13s1.09.56,1.37.09-1.06-1.2-1.06-1.2l2.54,1,2,2.27-3.15.56s.26-.51-.73-1.28S1098.06,125.13,1098.06,125.13Z" style="fill: gray"/>
      <path d="M1039.67,194.88c-.7,1.51-5.67,5.36-8.14,10s3,6.92,4.6,8.58,5.62,3.22,7.63,4c.15-.91,1.6-5.92,1.8-8.1a48.51,48.51,0,0,0-.3-8.63c-.3-1.8-.5-3.8-.5-3.8s1.35-1.67,1.17-2.87" style="fill: gray"/>
      <path d="M932.46,258.25s-5.8,7.72-7.3,9.68a83.77,83.77,0,0,1-6.57,7c-1.91,1.85-5.44,5-6,5.82s-3.5,2.57-4.49,2.29-3.28.08-1.89-2,2.24-2.34,2-2.76-3,2.55-3.41,2-4-7.66-6.3-9.7-5.17-4.39-5.17-4.39,3-1.82,4.11-2.74-4,1.5-4.56,1.14-1.94-2.83-.48-4.62,9.93-4.83,14-6.29,7-1.72,10.07-3.41,9.53-4.71,9.53-4.71" style="fill: gray"/>
      <path d="M1112.06,131.71a3.64,3.64,0,0,0-.2-2.43,3.56,3.56,0,0,0-3-1.39c-1,.12-1.59-.88-3.19-.86a81.64,81.64,0,0,0-13.78,2.13,161,161,0,0,0-53.65,23.62S1022,164.59,1015.09,170s-45.9,37-54,43.93-26.59,23.81-32.6,28.69-7.64,6.19-8.54,8.18-2.23,5.19-.41,7.63,7.37,4.62,11.47,1.74,10.53-7.28,15.76-9.54a84.47,84.47,0,0,0,13.93-6.94c6.41-3.91,19.84-10,25.7-13.29s25.07-13.15,30.75-16.8,18.77-11.37,27.6-16.7,7.86-1.6,15.13-5.79,13.8-8.14,18.81-14.06,12.12-17.4,14.2-20.46,2.27-3.37,2.27-3.37.71-.14,3.26-2.51,6.56-7.38,7.52-8.5S1111.28,134.32,1112.06,131.71Z" style="fill: #2c0f00"/>
      <path d="M1111.26,133.52a31,31,0,0,1,3.66,1.57c.3.16.6.31.9.5a5.16,5.16,0,0,1,.83.69,15.94,15.94,0,0,1,1.33,1.54,26.47,26.47,0,0,1,3.81,7,33.84,33.84,0,0,0-2-3.4,27.69,27.69,0,0,0-2.38-3.1,14.55,14.55,0,0,0-1.36-1.36,3.91,3.91,0,0,0-.73-.52c-.26-.15-.55-.29-.84-.43l-3.59-1.55Z" style="fill: gray"/>
      <path d="M1111.1,134.65c0,1.17,0,2.36,0,3.52a15.46,15.46,0,0,0,.12,1.7,11.11,11.11,0,0,0,.41,1.63c.35,1.11.78,2.21,1.2,3.33a16.72,16.72,0,0,1,.74,3.56c.16,1.18.28,2.37.33,3.56a12.57,12.57,0,0,1-3.83,9.7,11.52,11.52,0,0,0,3.2-6.18c.52-2.31.06-4.67-.3-7a15.61,15.61,0,0,0-.86-3.36c-.49-1.07-1-2.15-1.45-3.27a10.15,10.15,0,0,1-.58-1.79,17.15,17.15,0,0,1-.19-1.84c-.07-1.21-.09-2.4-.06-3.6Z" style="fill: gray"/>
      <path d="M1101.1,165c1.06-2.24,2.11-4.49,3.22-6.72a26.08,26.08,0,0,0,1.57-3.35,22.37,22.37,0,0,0,.75-3.62,38,38,0,0,0,.26-7.38c-.05-.62-.09-1.2-.17-1.82a10.25,10.25,0,0,1,0-1.92,12.82,12.82,0,0,1,.73-3.91v0l0,0,1.92-3.32,1-1.66.1-.16.08-.11a.79.79,0,0,1,.19-.15.63.63,0,0,1,.58,0l.17.11.09.09a2,2,0,0,1,.32.57,6.27,6.27,0,0,1,.31,1h0l-.23-.3a16.19,16.19,0,0,0,2.83,1.4,6.77,6.77,0,0,0,1.5.39,6.77,6.77,0,0,1,1.65.36,7.51,7.51,0,0,1,2.8,1.79,8.83,8.83,0,0,1,1.83,2.7,9,9,0,0,0-2-2.52,7.11,7.11,0,0,0-2.78-1.5,6.66,6.66,0,0,0-1.55-.22,7.21,7.21,0,0,1-1.68-.29,17,17,0,0,1-3.11-1.26l-.16-.09-.06-.21h0a7.55,7.55,0,0,0-.29-.84,2.18,2.18,0,0,0-.15-.27s0,0,0,0l.07,0a.43.43,0,0,0,.18,0l.18,0s.09-.08.1-.08h0s0,0,0,0l-.91,1.71-1.82,3.44,0-.06a11,11,0,0,0-.46,3.42c0,.6,0,1.2,0,1.8s0,1.28,0,1.91a61.26,61.26,0,0,1-1,7.45,28.57,28.57,0,0,1-1,3.63,8.8,8.8,0,0,1-.8,1.7l-.89,1.63Q1102.71,161.61,1101.1,165Z" style="fill: gray"/>
      <path d="M1084.54,161.17a41.46,41.46,0,0,1-2.4,4.65c-1.35,2.18-1.7,3.7-3.26,4.65a31.29,31.29,0,0,1-8.23,2.75,66,66,0,0,1-7.26.86c-1.74,0-.64-2.52.17-3.44s4.65-5,6.14-6.38a59.47,59.47,0,0,1,6.67-4.8l.52-.32a7.52,7.52,0,0,0,2.63-3.06,3.75,3.75,0,0,1,.68-1,5.34,5.34,0,0,1,4.42-1.2c1.08.42,2.62.86,2.87,2.17S1084.54,161.17,1084.54,161.17Z" style="fill: gray"/>
      <ellipse cx="1099.88" cy="131.25" rx="2.21" ry="1.62" transform="translate(112.59 633.46) rotate(-33.77)" style="fill: #fff"/>
      <path d="M919.55,258.47s29.49-22.75,38-28.74,48-34.37,62.47-44,53.81-35.07,53.81-35.07" style="fill: none;stroke: gray;stroke-miterlimit: 10"/>
      <path d="M1095.16,153.29a70.39,70.39,0,0,1-7.1-.64l-3.53-.41c-1.13-.1-2.33-.12-3.52-.17a22.72,22.72,0,0,1-7.1-1.13,8.93,8.93,0,0,1-3.1-1.89A7,7,0,0,1,1069,146a8,8,0,0,0,2.06,2.8,10.2,10.2,0,0,0,3,1.61,25.87,25.87,0,0,0,6.93,1c1.18,0,2.36,0,3.59.18l3.53.5a67.67,67.67,0,0,1,7,1.23Z" style="fill: gray"/>
      <g>
        <path d="M1107.41,141.08a10.5,10.5,0,0,1,1.31-3,14.5,14.5,0,0,0,2.54-3.12c.59-1.14,1.47-1.91,1.06-2.83-.91-2-1.48-.77-1.48-.77a40.8,40.8,0,0,0-2.84,5.12A40.38,40.38,0,0,0,1107.41,141.08Z" style="fill: gray"/>
        <path d="M1107.5,140.61a.51.51,0,0,0-.29,0,.43.43,0,0,0-.23.23c0,.09,0,0,0,0v0l0-.1.06-.2.12-.39.27-.77a5.48,5.48,0,0,1,.82-1.56,19.06,19.06,0,0,0,2-2.35,4.57,4.57,0,0,0,.39-.62c.11-.2.27-.5.41-.71a7.64,7.64,0,0,0,.73-1.26.61.61,0,0,0,0-.44,4.08,4.08,0,0,0-.29-.6,1.3,1.3,0,0,0-.27-.32s.13,0,.11,0-.06.07-.07.09l0,.06h0c-.91,1.46-1.85,3-2.59,4.46a8.55,8.55,0,0,0-.54,2.4l-.15,1.28-.07.65,0,.32v.29a.51.51,0,0,0-.09-.29A.49.49,0,0,0,1107.5,140.61Zm-.18.94a.54.54,0,0,1-.3-.22.57.57,0,0,1-.08-.33v-.29l0-.33,0-.65.14-1.32c0-.44.1-.87.18-1.32a6.5,6.5,0,0,1,.14-.69,5.52,5.52,0,0,1,.26-.69,52.79,52.79,0,0,1,2.63-4.6l0,.07a1.21,1.21,0,0,1,.41-.52,1,1,0,0,1,.86-.15,1.73,1.73,0,0,1,.84.77,4.28,4.28,0,0,1,.41.83,1.75,1.75,0,0,1,0,1.11,7.75,7.75,0,0,1-.83,1.51c-.14.22-.23.4-.38.66s-.3.49-.46.72a18.73,18.73,0,0,1-2.15,2.42,5.27,5.27,0,0,0-.65,1.24l-.28.71-.13.37-.07.18,0,.09v0l0,.07a.46.46,0,0,1-.23.25A.63.63,0,0,1,1107.32,141.55Z" style="fill: gray"/>
      </g>
      <path d="M1109.26,133.51a1.13,1.13,0,0,1-.5,1c-2.09,1.37-9.46,6.19-11.89,7.41-2.85,1.43-7.47,2.33-9.72,3.93s-15.59,12.06-16.84,12.61,8-8,9.86-9.27,6.5-4.91,10.15-6.12a33.34,33.34,0,0,0,9.24-4.66,78.22,78.22,0,0,0,7.82-5.68,1.13,1.13,0,0,1,1.88.74Z" style="fill: #fff"/>
    </g>
  </g>
  <ellipse cx="999.77" cy="420.33" rx="166.07" ry="54.01" style="fill: #fff"/>
  <g>
    <path d="M868.05,428.23V413.91h3v5.46h5.57v-5.46h3v14.32h-3v-6.39H871v6.39Z" style="fill: #35bbff"/>
    <path d="M891.05,426.93a5.82,5.82,0,0,1-8.14,0,6.57,6.57,0,0,1,0-7.95,5.77,5.77,0,0,1,8.14,0,6.57,6.57,0,0,1,0,7.95Zm-2.22-1.53a4.88,4.88,0,0,0,0-4.9,2.19,2.19,0,0,0-1.86-.86,2.22,2.22,0,0,0-1.87.86,4.88,4.88,0,0,0,0,4.9,2.21,2.21,0,0,0,1.87.87A2.17,2.17,0,0,0,888.83,425.4Z" style="fill: #35bbff"/>
    <path d="M899.37,417.64h2.81l1.61,7.63,1.65-7.63h2.89l-3.07,10.59h-2.85l-1.66-7.71-1.68,7.71h-2.88l-3-10.59h3l1.65,7.6Z" style="fill: #35bbff"/>
    <path d="M921,417.81a3.31,3.31,0,0,1,1.21,1.17v-5.05H925v14.3h-2.69v-1.47a3.93,3.93,0,0,1-1.35,1.37,3.77,3.77,0,0,1-1.89.43,3.93,3.93,0,0,1-3.12-1.5,5.75,5.75,0,0,1-1.27-3.85,6.66,6.66,0,0,1,1.25-4.27,4,4,0,0,1,3.34-1.55A3.44,3.44,0,0,1,921,417.81Zm.68,7.54a3.82,3.82,0,0,0,.61-2.26,3.49,3.49,0,0,0-1-2.78,2.09,2.09,0,0,0-1.4-.5,1.94,1.94,0,0,0-1.78.91,4.29,4.29,0,0,0-.57,2.28,4.19,4.19,0,0,0,.58,2.35,1.94,1.94,0,0,0,1.75.88A2,2,0,0,0,921.68,425.35Z" style="fill: #35bbff"/>
    <path d="M930.38,416.38h-2.8v-2.56h2.8Zm-2.8,1.26h2.8v10.59h-2.8Z" style="fill: #35bbff"/>
    <path d="M938.68,417.81A3.34,3.34,0,0,1,939.9,419v-5.05h2.81v14.3H940v-1.47a3.77,3.77,0,0,1-1.35,1.37,3.71,3.71,0,0,1-1.88.43,4,4,0,0,1-3.13-1.5,5.79,5.79,0,0,1-1.26-3.85,6.66,6.66,0,0,1,1.24-4.27,4.07,4.07,0,0,1,3.34-1.55A3.44,3.44,0,0,1,938.68,417.81Zm.68,7.54a3.82,3.82,0,0,0,.61-2.26,3.45,3.45,0,0,0-1-2.78,2.09,2.09,0,0,0-1.4-.5,1.94,1.94,0,0,0-1.78.91,4.95,4.95,0,0,0,0,4.63,2,2,0,0,0,1.75.88A2,2,0,0,0,939.36,425.35Z" style="fill: #35bbff"/>
    <path d="M953.7,428.23h-3V413.91h3Z" style="fill: #35bbff"/>
    <path d="M967.05,417.63a3.35,3.35,0,0,1,1.63,1.54v-1.53h2.7v10.05a5.66,5.66,0,0,1-.69,3.09q-1.19,1.79-4.55,1.78a6.19,6.19,0,0,1-3.31-.79,2.93,2.93,0,0,1-1.42-2.38h3a1.34,1.34,0,0,0,.38.7,2.37,2.37,0,0,0,1.51.38,2,2,0,0,0,2-1,5,5,0,0,0,.33-2.15v-.68a3.1,3.1,0,0,1-3,1.65,4.07,4.07,0,0,1-3.26-1.43,5.78,5.78,0,0,1-1.22-3.89,6.59,6.59,0,0,1,1.17-4,3.87,3.87,0,0,1,3.33-1.6A3.71,3.71,0,0,1,967.05,417.63Zm.94,7.59a3.36,3.36,0,0,0,.67-2.33,3.56,3.56,0,0,0-.64-2.3,2.06,2.06,0,0,0-1.69-.78,2,2,0,0,0-2,1.37A4.9,4.9,0,0,0,964,423a4.26,4.26,0,0,0,.31,1.65,2,2,0,0,0,2,1.34A2.12,2.12,0,0,0,968,425.22Z" style="fill: #35bbff"/>
    <path d="M980.87,417.85a4.44,4.44,0,0,1,1.83,1.57,5.28,5.28,0,0,1,.84,2.19,14.73,14.73,0,0,1,.09,2.1h-7.71A2.56,2.56,0,0,0,977,426a2.9,2.9,0,0,0,1.53.4,2.39,2.39,0,0,0,1.54-.49,2.57,2.57,0,0,0,.57-.73h2.83a3.46,3.46,0,0,1-1,1.91,5.12,5.12,0,0,1-4,1.55,5.79,5.79,0,0,1-3.74-1.3,5.17,5.17,0,0,1-1.61-4.24,5.68,5.68,0,0,1,1.46-4.22,5.09,5.09,0,0,1,3.78-1.47A6.06,6.06,0,0,1,980.87,417.85Zm-4.15,2.4a2.94,2.94,0,0,0-.74,1.64h4.78a2.32,2.32,0,0,0-.74-1.68,2.43,2.43,0,0,0-1.64-.57A2.19,2.19,0,0,0,976.72,420.25Z" style="fill: #35bbff"/>
    <path d="M983.94,419.71v-2h1.48v-3h2.74v3h1.72v2h-1.72v5.6c0,.43.05.7.17.81a1.87,1.87,0,0,0,1,.16h.54v2.07l-1.31.05a3.53,3.53,0,0,1-2.68-.68,2,2,0,0,1-.47-1.47v-6.52Z" style="fill: #35bbff"/>
    <path d="M1006,426.93a5.82,5.82,0,0,1-8.14,0,6.57,6.57,0,0,1,0-7.95,5.77,5.77,0,0,1,8.14,0,6.57,6.57,0,0,1,0,7.95Zm-2.22-1.53a4.88,4.88,0,0,0,0-4.9,2.19,2.19,0,0,0-1.86-.86,2.22,2.22,0,0,0-1.87.86,4.88,4.88,0,0,0,0,4.9,2.21,2.21,0,0,0,1.87.87A2.17,2.17,0,0,0,1003.8,425.4Z" style="fill: #35bbff"/>
    <path d="M1017.88,418.25a3.47,3.47,0,0,1,1,2.85v7.13h-2.83v-6.44a2.87,2.87,0,0,0-.23-1.28,1.55,1.55,0,0,0-1.54-.82,1.92,1.92,0,0,0-1.92,1.19,4.18,4.18,0,0,0-.27,1.62v5.73h-2.77V417.66H1012v1.54a4.76,4.76,0,0,1,1-1.17,3.48,3.48,0,0,1,2.16-.64A4,4,0,0,1,1017.88,418.25Z" style="fill: #35bbff"/>
    <path d="M1027.44,430.26l.35,0a4.89,4.89,0,0,0,.78,0,1.38,1.38,0,0,0,.62-.22,1.44,1.44,0,0,0,.46-.69,1.67,1.67,0,0,0,.18-.64l-3.9-11.06H1029l2.32,7.81,2.18-7.81h3l-3.63,10.42a14.87,14.87,0,0,1-1.67,3.73,3.16,3.16,0,0,1-2.45.73h-.59l-.68,0Z" style="fill: #35bbff"/>
    <path d="M1046.93,426.93a5.83,5.83,0,0,1-8.15,0,6.57,6.57,0,0,1,0-7.95,5.78,5.78,0,0,1,8.15,0,6.57,6.57,0,0,1,0,7.95Zm-2.22-1.53a4.94,4.94,0,0,0,0-4.9,2.45,2.45,0,0,0-3.73,0,4.88,4.88,0,0,0,0,4.9,2.43,2.43,0,0,0,3.73,0Z" style="fill: #35bbff"/>
    <path d="M1053,417.64V424a3.35,3.35,0,0,0,.21,1.36,1.47,1.47,0,0,0,1.48.81,1.94,1.94,0,0,0,1.94-1.15,4.15,4.15,0,0,0,.27-1.64v-5.76h2.8v10.59H1057v-1.5s-.09.13-.19.3a1.86,1.86,0,0,1-.37.42,3.79,3.79,0,0,1-1.25.8,4.38,4.38,0,0,1-1.42.21,3.15,3.15,0,0,1-3.16-1.69,6.38,6.38,0,0,1-.46-2.75v-6.38Z" style="fill: #35bbff"/>
    <path d="M1068.29,417.39l.24,0v2.83l-.47,0h-.33a2.3,2.3,0,0,0-2.24,1.09,4.17,4.17,0,0,0-.32,1.89v5.06h-2.79V417.64H1065v1.85a5.81,5.81,0,0,1,1.12-1.45,3,3,0,0,1,2-.65Z" style="fill: #35bbff"/>
    <path d="M1084.59,418.78a5.65,5.65,0,0,1,1.29,4,6.35,6.35,0,0,1-1.26,4.26,4.13,4.13,0,0,1-3.27,1.47,3.43,3.43,0,0,1-2.11-.63,4,4,0,0,1-.9-1v5.52h-2.74V417.64h2.65v1.56a4.29,4.29,0,0,1,1-1.08,3.5,3.5,0,0,1,2.21-.71A4.18,4.18,0,0,1,1084.59,418.78Zm-2.13,2a2,2,0,0,0-1.83-.94,2.08,2.08,0,0,0-2.09,1.42,5.32,5.32,0,0,0-.3,1.93,3,3,0,0,0,1,2.59,2.31,2.31,0,0,0,1.4.44,2,2,0,0,0,1.78-.89,4.15,4.15,0,0,0,.61-2.39A4.09,4.09,0,0,0,1082.46,420.77Z" style="fill: #35bbff"/>
    <path d="M1090.66,428.23h-2.77V413.91h2.77Z" style="fill: #35bbff"/>
    <path d="M1097.56,421.79a4.4,4.4,0,0,0,1.1-.25.82.82,0,0,0,.6-.78.92.92,0,0,0-.46-.9,2.8,2.8,0,0,0-1.34-.25,1.76,1.76,0,0,0-1.41.49,1.91,1.91,0,0,0-.39,1H1093a4,4,0,0,1,.79-2.28c.73-.94,2-1.4,3.78-1.4a6.78,6.78,0,0,1,3.11.69,2.64,2.64,0,0,1,1.35,2.6v4.86c0,.34,0,.74,0,1.22a1.53,1.53,0,0,0,.17.74.93.93,0,0,0,.4.32v.41h-3a3,3,0,0,1-.17-.6,5.31,5.31,0,0,1-.08-.64,6,6,0,0,1-1.33,1.06,4.05,4.05,0,0,1-2,.51,3.49,3.49,0,0,1-2.39-.82,2.92,2.92,0,0,1-.95-2.33,3,3,0,0,1,1.52-2.83,7,7,0,0,1,2.45-.68Zm1.69,1.29a3,3,0,0,1-.54.27,4.31,4.31,0,0,1-.74.19l-.63.11a4.3,4.3,0,0,0-1.27.38,1.28,1.28,0,0,0-.66,1.18,1.24,1.24,0,0,0,.4,1,1.54,1.54,0,0,0,1,.32,2.83,2.83,0,0,0,1.67-.53,2.21,2.21,0,0,0,.79-1.91Z" style="fill: #35bbff"/>
    <path d="M1103.34,419.71v-2h1.48v-3h2.74v3h1.72v2h-1.72v5.6c0,.43,0,.7.17.81a1.84,1.84,0,0,0,1,.16h.54v2.07l-1.31.05a3.53,3.53,0,0,1-2.68-.68,2,2,0,0,1-.47-1.47v-6.52Z" style="fill: #35bbff"/>
    <path d="M1118,417.85a4.32,4.32,0,0,1,1.83,1.57,5.28,5.28,0,0,1,.84,2.19,13.14,13.14,0,0,1,.1,2.1H1113a2.54,2.54,0,0,0,1.11,2.24,2.85,2.85,0,0,0,1.53.4,2.34,2.34,0,0,0,1.53-.49,2.26,2.26,0,0,0,.57-.73h2.83a3.4,3.4,0,0,1-1,1.91,5.1,5.1,0,0,1-4,1.55,5.77,5.77,0,0,1-3.73-1.3,5.14,5.14,0,0,1-1.62-4.24,5.72,5.72,0,0,1,1.46-4.22,5.11,5.11,0,0,1,3.79-1.47A6,6,0,0,1,1118,417.85Zm-4.14,2.4a2.88,2.88,0,0,0-.74,1.64h4.77a2.32,2.32,0,0,0-.74-1.68,2.43,2.43,0,0,0-1.64-.57A2.17,2.17,0,0,0,1113.82,420.25Z" style="fill: #35bbff"/>
    <path d="M1124,414.5a5.15,5.15,0,0,1,2.82-.74,6.08,6.08,0,0,1,3.65,1.05,3.59,3.59,0,0,1,1.45,3.11,3.53,3.53,0,0,1-.63,2.13,7.13,7.13,0,0,1-1.41,1.34l-.69.53a2.12,2.12,0,0,0-.75,1,4,4,0,0,0-.12,1.15h-2.64a8,8,0,0,1,.31-2.27,4,4,0,0,1,1.3-1.44l.71-.55a2.54,2.54,0,0,0,.56-.58,1.94,1.94,0,0,0,.39-1.17,2.33,2.33,0,0,0-.43-1.35,1.84,1.84,0,0,0-1.58-.61,1.72,1.72,0,0,0-1.59.75,2.84,2.84,0,0,0-.47,1.56H1122A4.54,4.54,0,0,1,1124,414.5Zm1.61,10.92h2.91v2.81h-2.91Z" style="fill: #35bbff"/>
  </g>
  <circle cx="1119.32" cy="292.26" r="6.35" style="fill: #fff"/>
  <circle cx="1132.07" cy="319.86" r="10.27" style="fill: #fff"/>
  <circle cx="1136.45" cy="356.77" r="15.79" style="fill: #fff"/>
</svg>
