<svg xmlns="http://www.w3.org/2000/svg" xmlns:xlink="http://www.w3.org/1999/xlink" viewBox="0 0 2000 500">
  <defs>
    <clipPath id="a">
      <rect x="-21" width="2021" height="250" style="fill: none"/>
    </clipPath>
  </defs>
  <title>split-content</title>
  <rect y="91.52" width="2000" height="408.48" style="fill: #35bbff"/>
  <g style="clip-path: url(#a)">
    <g>
      <path d="M139.94-6.81-41-11.09l29.54,234.18h0v1A84.94,84.94,0,0,0-3,219.6a64.24,64.24,0,0,0,7.17-5.46c1.11-1,2.2-2,3.23-3.13a43.46,43.46,0,0,0,2.93-3.43,40.68,40.68,0,0,0,2.54-3.72c.77-1.29,1.42-2.67,2.09-4a76.73,76.73,0,0,1,4.59-7.63q2.49-3.7,5.33-7.15a116.89,116.89,0,0,1,12.27-12.9c2.21-2,4.49-3.88,6.86-5.64A44.32,44.32,0,0,1,51.5,162a19.75,19.75,0,0,1,2-.79c.68-.22,1.39-.41,2.1-.58a34.58,34.58,0,0,1,13-.57,28.27,28.27,0,0,1,8.28,2.51,21.84,21.84,0,0,1,6.83,5.14,21.27,21.27,0,0,1,2.5,3.49c.76,1.27,1.5,2.55,2.19,3.86s1.36,2.6,1.91,3.94a15.93,15.93,0,0,1,.69,2c.06.27.11.53.14.78-.84-.87-1.7-1.7-2.6-2.49-1.14-1-2.34-2-3.58-2.91a44.65,44.65,0,0,0-3.88-2.54,30,30,0,0,0-4.24-2,19.12,19.12,0,0,0-4.67-1.15,22.9,22.9,0,0,0-4.76.07,38.92,38.92,0,0,0-17.29,6.6,29.43,29.43,0,0,0-6.77,6.46,23.62,23.62,0,0,0-4.07,8.48,20.58,20.58,0,0,0-.17,9.43,25.82,25.82,0,0,0,3.66,8.61,38.57,38.57,0,0,0,13.48,12.5,18.07,18.07,0,0,0,2.14,1,10.88,10.88,0,0,0,1.14.38l1.09.32c1.44.42,2.9.85,4.37,1.24a68.25,68.25,0,0,0,18,2.69,37.22,37.22,0,0,0,9.09-1.12l1.11-.32c.36-.11.72-.25,1.09-.37.72-.24,1.43-.57,2.12-.81s1.42-.53,2.13-.83c.35-.15.77-.37,1.14-.54a5,5,0,0,0,.83-.48ZM98.3,224.28c-.69.28-1.39.53-2.1.78s-1.42.54-2.13.76c-.36.11-.71.23-1.07.33l-1.08.28a36.15,36.15,0,0,1-8.87.88,55.5,55.5,0,0,1-8.9-.92c-3-.54-5.86-1.26-8.74-2.09-1.45-.41-2.88-.85-4.33-1.3L60,222.67c-.36-.11-.67-.22-1-.35a19.36,19.36,0,0,1-2-.94A36.76,36.76,0,0,1,44.37,209.3a24.57,24.57,0,0,1-3.3-8,18.49,18.49,0,0,1,.21-8.53,21.6,21.6,0,0,1,3.78-7.71,27.29,27.29,0,0,1,6.32-6,36.19,36.19,0,0,1,7.79-4A35,35,0,0,1,67.68,173,20.45,20.45,0,0,1,72,173a17.33,17.33,0,0,1,4.11,1,37.64,37.64,0,0,1,7.78,4A74.05,74.05,0,0,1,91,183.34h0l.21.23,0,0a3.81,3.81,0,0,0-.41-.29,6.37,6.37,0,0,0-.8-.56,9.85,9.85,0,0,0-1.47-.69,14.11,14.11,0,0,0-3.13-.8,27.12,27.12,0,0,0-6.43-.08,46.64,46.64,0,0,0-6.32,1.09,37.49,37.49,0,0,0-6.11,2,29.47,29.47,0,0,0-5.63,3.24,17.74,17.74,0,0,0-4.49,4.8A12,12,0,0,0,55,195.43a11.72,11.72,0,0,0-.41,3.32,23.54,23.54,0,0,0,.87,6.45,18,18,0,0,0,3,5.84,21.57,21.57,0,0,0,4.71,4.49,38.16,38.16,0,0,0,11.7,5.26,78.06,78.06,0,0,0,12.55,2.32c4,.43,7.93.63,11.9.71A10,10,0,0,1,98.3,224.28Z" style="fill: #fff"/>
      <path d="M251.88-6.81,70.94-11.09l29.54,234.18h0v1A85.93,85.93,0,0,0,109,219.6a63.22,63.22,0,0,0,7.16-5.46q1.68-1.5,3.24-3.13c1-1.09,2-2.24,2.92-3.43a38.76,38.76,0,0,0,2.54-3.72c.78-1.29,1.42-2.67,2.1-4a76.64,76.64,0,0,1,4.58-7.63c1.66-2.47,3.45-4.85,5.33-7.15a117.92,117.92,0,0,1,12.28-12.9c2.2-2,4.48-3.88,6.86-5.64a43.54,43.54,0,0,1,7.49-4.6,18.06,18.06,0,0,1,2-.79c.68-.22,1.39-.41,2.09-.58a34.61,34.61,0,0,1,13-.57,28.2,28.2,0,0,1,8.27,2.51,21.73,21.73,0,0,1,6.83,5.14,21.33,21.33,0,0,1,2.51,3.49c.76,1.27,1.49,2.55,2.18,3.86s1.37,2.6,1.91,3.94a15.93,15.93,0,0,1,.69,2,4.59,4.59,0,0,1,.14.78c-.83-.87-1.7-1.7-2.6-2.49-1.14-1-2.34-2-3.57-2.91a46.23,46.23,0,0,0-3.88-2.54,30.48,30.48,0,0,0-4.24-2,19.23,19.23,0,0,0-4.67-1.15,23,23,0,0,0-4.77.07,37.67,37.67,0,0,0-9,2.26,38.18,38.18,0,0,0-8.24,4.34,29.43,29.43,0,0,0-6.77,6.46,23.64,23.64,0,0,0-4.08,8.48,20.58,20.58,0,0,0-.17,9.43,26,26,0,0,0,3.66,8.61,37.27,37.27,0,0,0,6,7.07,36.61,36.61,0,0,0,7.5,5.43,16.7,16.7,0,0,0,2.14,1,9.52,9.52,0,0,0,1.14.38l1.08.32c1.45.42,2.91.85,4.37,1.24a68.31,68.31,0,0,0,18,2.69,37.24,37.24,0,0,0,9.1-1.12l1.1-.32c.37-.11.73-.25,1.09-.37.73-.24,1.44-.57,2.13-.81s1.42-.53,2.13-.83c.35-.15.77-.37,1.13-.54a4.55,4.55,0,0,0,.83-.48ZM210.24,224.28c-.68.28-1.39.53-2.1.78s-1.41.54-2.12.76c-.36.11-.71.23-1.07.33l-1.08.28a36.2,36.2,0,0,1-8.87.88,55.75,55.75,0,0,1-8.91-.92c-2.94-.54-5.85-1.26-8.74-2.09-1.44-.41-2.88-.85-4.32-1.3l-1.09-.33c-.36-.11-.67-.22-1-.35a19.51,19.51,0,0,1-2-.94,36.85,36.85,0,0,1-12.66-12.08,24.59,24.59,0,0,1-3.31-8,18.62,18.62,0,0,1,.21-8.53,21.76,21.76,0,0,1,3.78-7.71,27.14,27.14,0,0,1,6.33-6,35.73,35.73,0,0,1,7.79-4,34.83,34.83,0,0,1,8.5-2.06,20.45,20.45,0,0,1,4.28,0,17.1,17.1,0,0,1,4.11,1,37.39,37.39,0,0,1,7.78,4,74.18,74.18,0,0,1,7.14,5.35h0l.2.23,0,0a3,3,0,0,0-.41-.29,6.37,6.37,0,0,0-.8-.56,10.22,10.22,0,0,0-1.46-.69,14.25,14.25,0,0,0-3.13-.8,27.12,27.12,0,0,0-6.43-.08,46.38,46.38,0,0,0-6.32,1.09,37.92,37.92,0,0,0-6.12,2,29.7,29.7,0,0,0-5.62,3.24,17.62,17.62,0,0,0-4.5,4.8,12,12,0,0,0-1.34,3.07,11,11,0,0,0-.41,3.32,22.8,22.8,0,0,0,.87,6.45,18,18,0,0,0,3,5.84,21.61,21.61,0,0,0,4.72,4.49,38.16,38.16,0,0,0,11.7,5.26,77.74,77.74,0,0,0,12.54,2.32c4,.43,7.93.63,11.9.71A10,10,0,0,1,210.24,224.28Z" style="fill: #fff"/>
      <path d="M363.83-6.81,182.89-11.09l29.54,234.18h0v1a84.94,84.94,0,0,0,8.45-4.48,64.24,64.24,0,0,0,7.17-5.46c1.11-1,2.2-2,3.23-3.13a43.46,43.46,0,0,0,2.93-3.43,40.68,40.68,0,0,0,2.54-3.72c.77-1.29,1.42-2.67,2.09-4a76.73,76.73,0,0,1,4.59-7.63q2.49-3.7,5.33-7.15A116.89,116.89,0,0,1,261,172.2c2.21-2,4.49-3.88,6.86-5.64a44.32,44.32,0,0,1,7.49-4.6,19.75,19.75,0,0,1,2-.79c.68-.22,1.39-.41,2.1-.58a34.58,34.58,0,0,1,13-.57,28.27,28.27,0,0,1,8.28,2.51,21.84,21.84,0,0,1,6.83,5.14,21.27,21.27,0,0,1,2.5,3.49c.76,1.27,1.5,2.55,2.19,3.86s1.36,2.6,1.91,3.94a15.93,15.93,0,0,1,.69,2c.06.27.11.53.14.78-.84-.87-1.7-1.7-2.6-2.49-1.14-1-2.34-2-3.58-2.91a44.65,44.65,0,0,0-3.88-2.54,30,30,0,0,0-4.24-2,19.12,19.12,0,0,0-4.67-1.15,22.9,22.9,0,0,0-4.76.07,38.92,38.92,0,0,0-17.29,6.6,29.43,29.43,0,0,0-6.77,6.46,23.62,23.62,0,0,0-4.07,8.48,20.58,20.58,0,0,0-.17,9.43,25.82,25.82,0,0,0,3.66,8.61,38.57,38.57,0,0,0,13.48,12.5,18.07,18.07,0,0,0,2.14,1,10.88,10.88,0,0,0,1.14.38l1.09.32c1.44.42,2.9.85,4.37,1.24a68.25,68.25,0,0,0,18,2.69A37.22,37.22,0,0,0,316,227.3l1.11-.32c.36-.11.72-.25,1.09-.37.72-.24,1.43-.57,2.12-.81s1.42-.53,2.13-.83c.35-.15.77-.37,1.14-.54a5,5,0,0,0,.83-.48ZM322.19,224.28c-.69.28-1.39.53-2.1.78s-1.42.54-2.13.76c-.36.11-.71.23-1.07.33l-1.08.28a36.15,36.15,0,0,1-8.87.88,55.5,55.5,0,0,1-8.9-.92c-3-.54-5.86-1.26-8.74-2.09-1.45-.41-2.88-.85-4.33-1.3l-1.08-.33c-.36-.11-.67-.22-1-.35a19.36,19.36,0,0,1-1.95-.94,36.76,36.76,0,0,1-12.67-12.08,24.57,24.57,0,0,1-3.3-8,18.49,18.49,0,0,1,.21-8.53,21.6,21.6,0,0,1,3.78-7.71,27.29,27.29,0,0,1,6.32-6,36.19,36.19,0,0,1,7.79-4,35,35,0,0,1,8.51-2.06,20.45,20.45,0,0,1,4.28,0,17.33,17.33,0,0,1,4.11,1,37.64,37.64,0,0,1,7.78,4,74.05,74.05,0,0,1,7.13,5.35h0l.21.23,0,0a3.81,3.81,0,0,0-.41-.29,6.37,6.37,0,0,0-.8-.56,9.85,9.85,0,0,0-1.47-.69,14.11,14.11,0,0,0-3.13-.8,27.12,27.12,0,0,0-6.43-.08,46.64,46.64,0,0,0-6.32,1.09,37.49,37.49,0,0,0-6.11,2,29.47,29.47,0,0,0-5.63,3.24,17.74,17.74,0,0,0-4.49,4.8,12,12,0,0,0-1.35,3.07,11.72,11.72,0,0,0-.41,3.32,23.54,23.54,0,0,0,.87,6.45,18,18,0,0,0,3,5.84,21.57,21.57,0,0,0,4.71,4.49,38.16,38.16,0,0,0,11.7,5.26,78.06,78.06,0,0,0,12.55,2.32c4,.43,7.93.63,11.9.71A10,10,0,0,1,322.19,224.28Z" style="fill: #fff"/>
      <path d="M475.77-6.81,294.83-11.09l29.54,234.18h0v1a85.93,85.93,0,0,0,8.46-4.48,63.22,63.22,0,0,0,7.16-5.46q1.68-1.5,3.24-3.13c1-1.09,2-2.24,2.92-3.43a38.76,38.76,0,0,0,2.54-3.72c.78-1.29,1.42-2.67,2.1-4a76.64,76.64,0,0,1,4.58-7.63c1.66-2.47,3.45-4.85,5.33-7.15A117.92,117.92,0,0,1,373,172.2c2.2-2,4.48-3.88,6.86-5.64a43.54,43.54,0,0,1,7.49-4.6,18.06,18.06,0,0,1,2-.79c.68-.22,1.39-.41,2.09-.58a34.61,34.61,0,0,1,13-.57,28.2,28.2,0,0,1,8.27,2.51,21.73,21.73,0,0,1,6.83,5.14,21.33,21.33,0,0,1,2.51,3.49c.76,1.27,1.49,2.55,2.18,3.86s1.37,2.6,1.91,3.94a15.93,15.93,0,0,1,.69,2,4.59,4.59,0,0,1,.14.78c-.83-.87-1.7-1.7-2.6-2.49-1.14-1-2.34-2-3.57-2.91a46.23,46.23,0,0,0-3.88-2.54,30.48,30.48,0,0,0-4.24-2,19.23,19.23,0,0,0-4.67-1.15,23,23,0,0,0-4.77.07,37.67,37.67,0,0,0-9,2.26,38.18,38.18,0,0,0-8.24,4.34,29.43,29.43,0,0,0-6.77,6.46,23.64,23.64,0,0,0-4.08,8.48,20.58,20.58,0,0,0-.17,9.43,26,26,0,0,0,3.66,8.61,37.27,37.27,0,0,0,6,7.07,36.61,36.61,0,0,0,7.5,5.43,16.7,16.7,0,0,0,2.14,1,9.52,9.52,0,0,0,1.14.38l1.08.32c1.45.42,2.91.85,4.37,1.24a68.31,68.31,0,0,0,18,2.69,37.24,37.24,0,0,0,9.1-1.12l1.1-.32c.37-.11.73-.25,1.09-.37.73-.24,1.44-.57,2.13-.81s1.42-.53,2.13-.83c.35-.15.77-.37,1.13-.54a4.55,4.55,0,0,0,.83-.48ZM434.13,224.28c-.68.28-1.39.53-2.1.78s-1.41.54-2.12.76c-.36.11-.71.23-1.07.33l-1.08.28a36.2,36.2,0,0,1-8.87.88,55.75,55.75,0,0,1-8.91-.92c-2.94-.54-5.85-1.26-8.74-2.09-1.44-.41-2.88-.85-4.32-1.3l-1.09-.33c-.36-.11-.67-.22-1-.35a19.51,19.51,0,0,1-2-.94,36.85,36.85,0,0,1-12.66-12.08,24.59,24.59,0,0,1-3.31-8,18.62,18.62,0,0,1,.21-8.53,21.76,21.76,0,0,1,3.78-7.71,27.14,27.14,0,0,1,6.33-6,35.73,35.73,0,0,1,7.79-4,34.83,34.83,0,0,1,8.5-2.06,20.45,20.45,0,0,1,4.28,0,17.1,17.1,0,0,1,4.11,1,37.39,37.39,0,0,1,7.78,4,74.18,74.18,0,0,1,7.14,5.35h0l.2.23,0,0a3,3,0,0,0-.41-.29,6.37,6.37,0,0,0-.8-.56,10.22,10.22,0,0,0-1.46-.69,14.25,14.25,0,0,0-3.13-.8,27.12,27.12,0,0,0-6.43-.08,46.38,46.38,0,0,0-6.32,1.09,37.92,37.92,0,0,0-6.12,2,29.7,29.7,0,0,0-5.62,3.24,17.62,17.62,0,0,0-4.5,4.8,12,12,0,0,0-1.34,3.07,11,11,0,0,0-.41,3.32,22.8,22.8,0,0,0,.87,6.45,18,18,0,0,0,2.95,5.84,21.61,21.61,0,0,0,4.72,4.49,38.16,38.16,0,0,0,11.7,5.26,77.74,77.74,0,0,0,12.54,2.32c4,.43,7.93.63,11.9.71A10,10,0,0,1,434.13,224.28Z" style="fill: #fff"/>
      <path d="M587.72-6.81,406.78-11.09l29.54,234.18h0v1a84.94,84.94,0,0,0,8.45-4.48,64.24,64.24,0,0,0,7.17-5.46c1.11-1,2.2-2,3.23-3.13a43.46,43.46,0,0,0,2.93-3.43,40.68,40.68,0,0,0,2.54-3.72c.77-1.29,1.42-2.67,2.09-4a76.73,76.73,0,0,1,4.59-7.63q2.49-3.7,5.33-7.15a116.89,116.89,0,0,1,12.27-12.9c2.21-2,4.49-3.88,6.86-5.64a44.32,44.32,0,0,1,7.49-4.6,19.75,19.75,0,0,1,2-.79c.68-.22,1.39-.41,2.1-.58a34.58,34.58,0,0,1,13-.57,28.27,28.27,0,0,1,8.28,2.51,21.84,21.84,0,0,1,6.83,5.14,21.27,21.27,0,0,1,2.5,3.49c.76,1.27,1.5,2.55,2.19,3.86s1.36,2.6,1.91,3.94a15.93,15.93,0,0,1,.69,2c.06.27.11.53.14.78-.84-.87-1.7-1.7-2.6-2.49-1.14-1-2.34-2-3.58-2.91a44.65,44.65,0,0,0-3.88-2.54,30,30,0,0,0-4.24-2,19.12,19.12,0,0,0-4.67-1.15,22.89,22.89,0,0,0-4.76.07,38.92,38.92,0,0,0-17.29,6.6,29.43,29.43,0,0,0-6.77,6.46,23.62,23.62,0,0,0-4.07,8.48,20.58,20.58,0,0,0-.17,9.43,25.82,25.82,0,0,0,3.66,8.61,38.57,38.57,0,0,0,13.48,12.5,18.07,18.07,0,0,0,2.14,1,10.88,10.88,0,0,0,1.14.38l1.09.32c1.44.42,2.9.85,4.37,1.24a68.25,68.25,0,0,0,18,2.69,37.22,37.22,0,0,0,9.09-1.12L541,227c.36-.11.72-.25,1.09-.37.72-.24,1.43-.57,2.12-.81s1.42-.53,2.13-.83c.35-.15.77-.37,1.14-.54a5,5,0,0,0,.83-.48ZM546.08,224.28c-.69.28-1.39.53-2.1.78s-1.42.54-2.13.76c-.36.11-.71.23-1.07.33l-1.08.28a36.15,36.15,0,0,1-8.87.88,55.5,55.5,0,0,1-8.9-.92c-2.95-.54-5.86-1.26-8.74-2.09-1.45-.41-2.88-.85-4.33-1.3l-1.08-.33c-.36-.11-.67-.22-1-.35a19.36,19.36,0,0,1-1.95-.94,36.76,36.76,0,0,1-12.67-12.08,24.57,24.57,0,0,1-3.3-8,18.49,18.49,0,0,1,.21-8.53,21.6,21.6,0,0,1,3.78-7.71,27.29,27.29,0,0,1,6.32-6,36.19,36.19,0,0,1,7.79-4,35,35,0,0,1,8.51-2.06,20.45,20.45,0,0,1,4.28,0,17.33,17.33,0,0,1,4.11,1,37.64,37.64,0,0,1,7.78,4,74.05,74.05,0,0,1,7.13,5.35h0l.21.23,0,0a3.81,3.81,0,0,0-.41-.29,6.37,6.37,0,0,0-.8-.56,9.85,9.85,0,0,0-1.47-.69,14.11,14.11,0,0,0-3.13-.8,27.12,27.12,0,0,0-6.43-.08,46.64,46.64,0,0,0-6.32,1.09,37.49,37.49,0,0,0-6.11,2,29.47,29.47,0,0,0-5.63,3.24,17.74,17.74,0,0,0-4.49,4.8,12,12,0,0,0-1.35,3.07,11.72,11.72,0,0,0-.41,3.32,23.54,23.54,0,0,0,.87,6.45,18,18,0,0,0,3,5.84,21.57,21.57,0,0,0,4.71,4.49,38.16,38.16,0,0,0,11.7,5.26,78.06,78.06,0,0,0,12.55,2.32c4,.43,7.93.63,11.9.71A10,10,0,0,1,546.08,224.28Z" style="fill: #fff"/>
      <path d="M699.66-6.81,518.72-11.09l29.54,234.18h0v1a85.93,85.93,0,0,0,8.46-4.48,63.22,63.22,0,0,0,7.16-5.46q1.68-1.5,3.24-3.13c1-1.09,2-2.24,2.92-3.43a38.76,38.76,0,0,0,2.54-3.72c.78-1.29,1.42-2.67,2.1-4a76.64,76.64,0,0,1,4.58-7.63c1.66-2.47,3.45-4.85,5.33-7.15a117.92,117.92,0,0,1,12.28-12.9c2.2-2,4.48-3.88,6.86-5.64a43.54,43.54,0,0,1,7.49-4.6,18.06,18.06,0,0,1,2-.79c.68-.22,1.39-.41,2.09-.58a34.61,34.61,0,0,1,13-.57,28.2,28.2,0,0,1,8.27,2.51,21.73,21.73,0,0,1,6.83,5.14,21.33,21.33,0,0,1,2.51,3.49c.76,1.27,1.49,2.55,2.18,3.86s1.37,2.6,1.91,3.94a15.93,15.93,0,0,1,.69,2,4.59,4.59,0,0,1,.14.78c-.83-.87-1.7-1.7-2.6-2.49-1.14-1-2.34-2-3.57-2.91a46.23,46.23,0,0,0-3.88-2.54,30.48,30.48,0,0,0-4.24-2,19.23,19.23,0,0,0-4.67-1.15,23,23,0,0,0-4.77.07,37.67,37.67,0,0,0-9,2.26,38.18,38.18,0,0,0-8.24,4.34,29.43,29.43,0,0,0-6.77,6.46,23.64,23.64,0,0,0-4.08,8.48,20.58,20.58,0,0,0-.17,9.43,26,26,0,0,0,3.66,8.61,37.27,37.27,0,0,0,6,7.07,36.61,36.61,0,0,0,7.5,5.43,16.7,16.7,0,0,0,2.14,1,9.52,9.52,0,0,0,1.14.38l1.08.32c1.45.42,2.91.85,4.37,1.24a68.31,68.31,0,0,0,18,2.69,37.24,37.24,0,0,0,9.1-1.12L653,227c.37-.11.73-.25,1.09-.37.73-.24,1.44-.57,2.13-.81s1.42-.53,2.13-.83c.35-.15.77-.37,1.13-.54a4.55,4.55,0,0,0,.83-.48ZM658,224.28c-.68.28-1.39.53-2.1.78s-1.41.54-2.12.76c-.36.11-.71.23-1.07.33l-1.08.28a36.2,36.2,0,0,1-8.87.88,55.75,55.75,0,0,1-8.91-.92c-2.94-.54-5.85-1.26-8.74-2.09-1.44-.41-2.88-.85-4.32-1.3l-1.09-.33c-.36-.11-.67-.22-1-.35a19.51,19.51,0,0,1-2-.94A36.85,36.85,0,0,1,604.1,209.3a24.59,24.59,0,0,1-3.31-8,18.62,18.62,0,0,1,.21-8.53,21.76,21.76,0,0,1,3.78-7.71,27.14,27.14,0,0,1,6.33-6,35.73,35.73,0,0,1,7.79-4,34.83,34.83,0,0,1,8.5-2.06,20.45,20.45,0,0,1,4.28,0,17.1,17.1,0,0,1,4.11,1,37.39,37.39,0,0,1,7.78,4,74.18,74.18,0,0,1,7.14,5.35h0l.2.23,0,0a3,3,0,0,0-.41-.29,6.37,6.37,0,0,0-.8-.56,10.22,10.22,0,0,0-1.46-.69,14.25,14.25,0,0,0-3.13-.8,27.12,27.12,0,0,0-6.43-.08,46.38,46.38,0,0,0-6.32,1.09,37.92,37.92,0,0,0-6.12,2,29.7,29.7,0,0,0-5.62,3.24,17.62,17.62,0,0,0-4.5,4.8,12,12,0,0,0-1.34,3.07,11,11,0,0,0-.41,3.32,22.8,22.8,0,0,0,.87,6.45,18,18,0,0,0,2.95,5.84,21.61,21.61,0,0,0,4.72,4.49,38.16,38.16,0,0,0,11.7,5.26,77.74,77.74,0,0,0,12.54,2.32c4,.43,7.93.63,11.9.71A10,10,0,0,1,658,224.28Z" style="fill: #fff"/>
      <path d="M811.61-6.81,630.67-11.09l29.54,234.18h0v1a84.94,84.94,0,0,0,8.45-4.48,64.24,64.24,0,0,0,7.17-5.46c1.11-1,2.2-2,3.23-3.13a43.46,43.46,0,0,0,2.93-3.43,40.68,40.68,0,0,0,2.54-3.72c.77-1.29,1.42-2.67,2.09-4a76.73,76.73,0,0,1,4.59-7.63q2.49-3.7,5.33-7.15a116.89,116.89,0,0,1,12.27-12.9c2.21-2,4.49-3.88,6.86-5.64a44.32,44.32,0,0,1,7.49-4.6,19.75,19.75,0,0,1,2-.79c.68-.22,1.39-.41,2.1-.58a34.58,34.58,0,0,1,13-.57,28.27,28.27,0,0,1,8.28,2.51,22,22,0,0,1,6.83,5.14,21.27,21.27,0,0,1,2.5,3.49c.76,1.27,1.5,2.55,2.19,3.86s1.36,2.6,1.91,3.94a15.93,15.93,0,0,1,.69,2c.06.27.11.53.14.78-.84-.87-1.7-1.7-2.6-2.49-1.14-1-2.34-2-3.58-2.91a44.65,44.65,0,0,0-3.88-2.54,30,30,0,0,0-4.24-2,19.12,19.12,0,0,0-4.67-1.15,22.89,22.89,0,0,0-4.76.07,38.92,38.92,0,0,0-17.29,6.6,29.43,29.43,0,0,0-6.77,6.46,23.62,23.62,0,0,0-4.07,8.48,20.58,20.58,0,0,0-.17,9.43,25.82,25.82,0,0,0,3.66,8.61,38.57,38.57,0,0,0,13.48,12.5,18.07,18.07,0,0,0,2.14,1,10.88,10.88,0,0,0,1.14.38l1.09.32c1.44.42,2.9.85,4.37,1.24a68.25,68.25,0,0,0,18,2.69,37.22,37.22,0,0,0,9.09-1.12l1.11-.32c.36-.11.72-.25,1.09-.37.72-.24,1.43-.57,2.12-.81s1.42-.53,2.13-.83c.35-.15.77-.37,1.14-.54a5,5,0,0,0,.83-.48ZM770,224.28c-.69.28-1.39.53-2.1.78s-1.42.54-2.13.76c-.36.11-.71.23-1.07.33l-1.08.28a36.15,36.15,0,0,1-8.87.88,55.5,55.5,0,0,1-8.9-.92c-3-.54-5.86-1.26-8.74-2.09-1.45-.41-2.88-.85-4.33-1.3l-1.08-.33c-.36-.11-.67-.22-1-.35a19.36,19.36,0,0,1-1.95-.94A36.76,36.76,0,0,1,716,209.3a24.57,24.57,0,0,1-3.3-8,18.49,18.49,0,0,1,.21-8.53,21.6,21.6,0,0,1,3.78-7.71,27.29,27.29,0,0,1,6.32-6,36.19,36.19,0,0,1,7.79-4,35,35,0,0,1,8.51-2.06,20.45,20.45,0,0,1,4.28,0,17.33,17.33,0,0,1,4.11,1,37.64,37.64,0,0,1,7.78,4,74.05,74.05,0,0,1,7.13,5.35h0l.21.23,0,0a3.81,3.81,0,0,0-.41-.29,6.37,6.37,0,0,0-.8-.56,9.85,9.85,0,0,0-1.47-.69,14.11,14.11,0,0,0-3.13-.8,27.12,27.12,0,0,0-6.43-.08,46.64,46.64,0,0,0-6.32,1.09,37.49,37.49,0,0,0-6.11,2,29.47,29.47,0,0,0-5.63,3.24,17.74,17.74,0,0,0-4.49,4.8,12,12,0,0,0-1.35,3.07,11.72,11.72,0,0,0-.41,3.32,23.54,23.54,0,0,0,.87,6.45,18,18,0,0,0,3,5.84,21.57,21.57,0,0,0,4.71,4.49,38.16,38.16,0,0,0,11.7,5.26,78.06,78.06,0,0,0,12.55,2.32c4,.43,7.93.63,11.9.71A10,10,0,0,1,770,224.28Z" style="fill: #fff"/>
      <path d="M923.55-6.81,742.61-11.09l29.54,234.18h0v1a85.93,85.93,0,0,0,8.46-4.48,63.22,63.22,0,0,0,7.16-5.46q1.68-1.5,3.24-3.13c1-1.09,2-2.24,2.92-3.43a38.76,38.76,0,0,0,2.54-3.72c.78-1.29,1.42-2.67,2.1-4a76.64,76.64,0,0,1,4.58-7.63c1.66-2.47,3.45-4.85,5.33-7.15a117.92,117.92,0,0,1,12.28-12.9c2.2-2,4.48-3.88,6.86-5.64a43.54,43.54,0,0,1,7.49-4.6,18.06,18.06,0,0,1,2-.79c.68-.22,1.39-.41,2.09-.58a34.61,34.61,0,0,1,13-.57,28.2,28.2,0,0,1,8.27,2.51,21.73,21.73,0,0,1,6.83,5.14,21.33,21.33,0,0,1,2.51,3.49c.76,1.27,1.49,2.55,2.18,3.86s1.37,2.6,1.91,3.94a15.93,15.93,0,0,1,.69,2,4.59,4.59,0,0,1,.14.78c-.83-.87-1.7-1.7-2.6-2.49-1.14-1-2.34-2-3.57-2.91a46.23,46.23,0,0,0-3.88-2.54,30.48,30.48,0,0,0-4.24-2,19.23,19.23,0,0,0-4.67-1.15,23,23,0,0,0-4.77.07,37.67,37.67,0,0,0-9,2.26,38.18,38.18,0,0,0-8.24,4.34,29.43,29.43,0,0,0-6.77,6.46,23.64,23.64,0,0,0-4.08,8.48,20.58,20.58,0,0,0-.17,9.43,26,26,0,0,0,3.66,8.61,37.27,37.27,0,0,0,6,7.07,36.61,36.61,0,0,0,7.5,5.43,16.7,16.7,0,0,0,2.14,1,9.52,9.52,0,0,0,1.14.38l1.08.32c1.45.42,2.91.85,4.37,1.24a68.31,68.31,0,0,0,18,2.69,37.24,37.24,0,0,0,9.1-1.12l1.1-.32c.37-.11.73-.25,1.09-.37.73-.24,1.44-.57,2.13-.81s1.42-.53,2.13-.83c.35-.15.77-.37,1.13-.54a4.55,4.55,0,0,0,.83-.48ZM881.91,224.28c-.68.28-1.39.53-2.1.78s-1.41.54-2.12.76c-.36.11-.71.23-1.07.33l-1.08.28a36.2,36.2,0,0,1-8.87.88,55.75,55.75,0,0,1-8.91-.92c-2.94-.54-5.85-1.26-8.74-2.09-1.44-.41-2.88-.85-4.32-1.3l-1.09-.33c-.36-.11-.67-.22-1-.35a19.51,19.51,0,0,1-2-.94A36.85,36.85,0,0,1,828,209.3a24.59,24.59,0,0,1-3.31-8,18.62,18.62,0,0,1,.21-8.53,21.76,21.76,0,0,1,3.78-7.71,27.14,27.14,0,0,1,6.33-6,35.73,35.73,0,0,1,7.79-4,34.83,34.83,0,0,1,8.5-2.06,20.45,20.45,0,0,1,4.28,0,17.1,17.1,0,0,1,4.11,1,37.39,37.39,0,0,1,7.78,4,74.18,74.18,0,0,1,7.14,5.35h0l.2.23,0,0a3,3,0,0,0-.41-.29,6.37,6.37,0,0,0-.8-.56,10.22,10.22,0,0,0-1.46-.69,14.25,14.25,0,0,0-3.13-.8,27.12,27.12,0,0,0-6.43-.08,46.38,46.38,0,0,0-6.32,1.09,37.92,37.92,0,0,0-6.12,2,29.7,29.7,0,0,0-5.62,3.24,17.62,17.62,0,0,0-4.5,4.8,12,12,0,0,0-1.34,3.07,11,11,0,0,0-.41,3.32,22.8,22.8,0,0,0,.87,6.45A18,18,0,0,0,842,211a21.61,21.61,0,0,0,4.72,4.49,38.16,38.16,0,0,0,11.7,5.26A77.74,77.74,0,0,0,871,223.11c4,.43,7.93.63,11.9.71A10,10,0,0,1,881.91,224.28Z" style="fill: #fff"/>
      <path d="M1035.5-6.81,854.56-11.09,884.1,223.09h0v1a84.94,84.94,0,0,0,8.45-4.48,64.24,64.24,0,0,0,7.17-5.46c1.11-1,2.2-2,3.23-3.13a43.46,43.46,0,0,0,2.93-3.43,40.68,40.68,0,0,0,2.54-3.72c.77-1.29,1.42-2.67,2.09-4a76.73,76.73,0,0,1,4.59-7.63q2.49-3.7,5.33-7.15a116.89,116.89,0,0,1,12.27-12.9c2.21-2,4.49-3.88,6.86-5.64a44.32,44.32,0,0,1,7.49-4.6,19.75,19.75,0,0,1,2-.79c.68-.22,1.39-.41,2.1-.58a34.58,34.58,0,0,1,13-.57,28.27,28.27,0,0,1,8.28,2.51,22,22,0,0,1,6.83,5.14,21.27,21.27,0,0,1,2.5,3.49c.76,1.27,1.5,2.55,2.19,3.86s1.36,2.6,1.91,3.94a15.93,15.93,0,0,1,.69,2c.06.27.11.53.14.78-.84-.87-1.7-1.7-2.6-2.49-1.14-1-2.34-2-3.58-2.91a44.65,44.65,0,0,0-3.88-2.54,30,30,0,0,0-4.24-2,19.12,19.12,0,0,0-4.67-1.15,22.89,22.89,0,0,0-4.76.07,38.92,38.92,0,0,0-17.29,6.6,29.43,29.43,0,0,0-6.77,6.46,23.62,23.62,0,0,0-4.07,8.48,20.58,20.58,0,0,0-.17,9.43,25.82,25.82,0,0,0,3.66,8.61,38.57,38.57,0,0,0,13.48,12.5,18.07,18.07,0,0,0,2.14,1,10.88,10.88,0,0,0,1.14.38l1.09.32c1.44.42,2.9.85,4.37,1.24a68.25,68.25,0,0,0,18,2.69,37.22,37.22,0,0,0,9.09-1.12l1.11-.32c.36-.11.72-.25,1.09-.37.72-.24,1.43-.57,2.12-.81s1.42-.53,2.13-.83c.35-.15.77-.37,1.14-.54a5,5,0,0,0,.83-.48ZM993.86,224.28c-.69.28-1.39.53-2.1.78s-1.42.54-2.13.76c-.36.11-.71.23-1.07.33l-1.08.28a36.15,36.15,0,0,1-8.87.88,55.5,55.5,0,0,1-8.9-.92c-3-.54-5.86-1.26-8.74-2.09-1.45-.41-2.88-.85-4.33-1.3l-1.08-.33c-.36-.11-.67-.22-1-.35a19.36,19.36,0,0,1-1.95-.94,36.76,36.76,0,0,1-12.67-12.08,24.57,24.57,0,0,1-3.3-8,18.49,18.49,0,0,1,.21-8.53,21.6,21.6,0,0,1,3.78-7.71,27.29,27.29,0,0,1,6.32-6,36.19,36.19,0,0,1,7.79-4,35,35,0,0,1,8.51-2.06,20.45,20.45,0,0,1,4.28,0,17.33,17.33,0,0,1,4.11,1,37.64,37.64,0,0,1,7.78,4,74.05,74.05,0,0,1,7.13,5.35h0l.21.23,0,0a3.81,3.81,0,0,0-.41-.29,6.37,6.37,0,0,0-.8-.56,9.85,9.85,0,0,0-1.47-.69,14.11,14.11,0,0,0-3.13-.8,27.12,27.12,0,0,0-6.43-.08,46.64,46.64,0,0,0-6.32,1.09,37.49,37.49,0,0,0-6.11,2,29.47,29.47,0,0,0-5.63,3.24,17.74,17.74,0,0,0-4.49,4.8,12,12,0,0,0-1.35,3.07,11.72,11.72,0,0,0-.41,3.32,23.54,23.54,0,0,0,.87,6.45,18,18,0,0,0,3,5.84,21.57,21.57,0,0,0,4.71,4.49,38.16,38.16,0,0,0,11.7,5.26A78.06,78.06,0,0,0,983,223.11c4,.43,7.93.63,11.9.71A10,10,0,0,1,993.86,224.28Z" style="fill: #fff"/>
      <path d="M1147.44-6.81,966.5-11.09,996,223.09h0v1a85.93,85.93,0,0,0,8.46-4.48,63.22,63.22,0,0,0,7.16-5.46q1.68-1.5,3.24-3.13c1-1.09,2-2.24,2.92-3.43a38.76,38.76,0,0,0,2.54-3.72c.78-1.29,1.42-2.67,2.1-4a76.64,76.64,0,0,1,4.58-7.63c1.66-2.47,3.45-4.85,5.33-7.15a117.92,117.92,0,0,1,12.28-12.9c2.2-2,4.48-3.88,6.86-5.64A43.54,43.54,0,0,1,1059,162a18.06,18.06,0,0,1,2-.79c.68-.22,1.39-.41,2.09-.58a34.61,34.61,0,0,1,13-.57,28.2,28.2,0,0,1,8.27,2.51,21.73,21.73,0,0,1,6.83,5.14,21.33,21.33,0,0,1,2.51,3.49c.76,1.27,1.49,2.55,2.18,3.86s1.37,2.6,1.91,3.94a15.93,15.93,0,0,1,.69,2,4.59,4.59,0,0,1,.14.78c-.83-.87-1.7-1.7-2.6-2.49-1.14-1-2.34-2-3.57-2.91a46.23,46.23,0,0,0-3.88-2.54,30.48,30.48,0,0,0-4.24-2,19.23,19.23,0,0,0-4.67-1.15,23,23,0,0,0-4.77.07,37.67,37.67,0,0,0-9,2.26,38.18,38.18,0,0,0-8.24,4.34,29.43,29.43,0,0,0-6.77,6.46,23.64,23.64,0,0,0-4.08,8.48,20.58,20.58,0,0,0-.17,9.43,26,26,0,0,0,3.66,8.61,37.27,37.27,0,0,0,6,7.07,36.61,36.61,0,0,0,7.5,5.43,16.7,16.7,0,0,0,2.14,1,9.52,9.52,0,0,0,1.14.38l1.08.32c1.45.42,2.91.85,4.37,1.24a68.31,68.31,0,0,0,18,2.69,37.24,37.24,0,0,0,9.1-1.12l1.1-.32c.37-.11.73-.25,1.09-.37.73-.24,1.44-.57,2.13-.81s1.42-.53,2.13-.83c.35-.15.77-.37,1.13-.54a4.55,4.55,0,0,0,.83-.48ZM1105.8,224.28c-.68.28-1.39.53-2.1.78s-1.41.54-2.12.76c-.36.11-.71.23-1.07.33l-1.08.28a36.2,36.2,0,0,1-8.87.88,55.75,55.75,0,0,1-8.91-.92c-2.94-.54-5.85-1.26-8.74-2.09-1.44-.41-2.88-.85-4.32-1.3l-1.09-.33c-.36-.11-.67-.22-1-.35a19.51,19.51,0,0,1-2-.94,36.85,36.85,0,0,1-12.66-12.08,24.59,24.59,0,0,1-3.31-8,18.62,18.62,0,0,1,.21-8.53,21.76,21.76,0,0,1,3.78-7.71,27.14,27.14,0,0,1,6.33-6,35.73,35.73,0,0,1,7.79-4,34.83,34.83,0,0,1,8.5-2.06,20.45,20.45,0,0,1,4.28,0,17.1,17.1,0,0,1,4.11,1,37.39,37.39,0,0,1,7.78,4,74.18,74.18,0,0,1,7.14,5.35h0l.2.23,0,0a3,3,0,0,0-.41-.29,6.37,6.37,0,0,0-.8-.56,10.22,10.22,0,0,0-1.46-.69,14.25,14.25,0,0,0-3.13-.8,27.12,27.12,0,0,0-6.43-.08,46.38,46.38,0,0,0-6.32,1.09,37.92,37.92,0,0,0-6.12,2,29.7,29.7,0,0,0-5.62,3.24,17.62,17.62,0,0,0-4.5,4.8,12,12,0,0,0-1.34,3.07,11,11,0,0,0-.41,3.32,22.8,22.8,0,0,0,.87,6.45,18,18,0,0,0,3,5.84,21.61,21.61,0,0,0,4.72,4.49,38.16,38.16,0,0,0,11.7,5.26,77.74,77.74,0,0,0,12.54,2.32c4,.43,7.93.63,11.9.71A10,10,0,0,1,1105.8,224.28Z" style="fill: #fff"/>
      <path d="M1259.39-6.81l-180.94-4.28L1108,223.09h0v1a84.94,84.94,0,0,0,8.45-4.48,64.24,64.24,0,0,0,7.17-5.46c1.11-1,2.2-2,3.23-3.13a43.46,43.46,0,0,0,2.93-3.43,40.68,40.68,0,0,0,2.54-3.72c.77-1.29,1.42-2.67,2.09-4a76.73,76.73,0,0,1,4.59-7.63q2.49-3.7,5.33-7.15a116.89,116.89,0,0,1,12.27-12.9c2.21-2,4.49-3.88,6.86-5.64A44.32,44.32,0,0,1,1171,162a19.75,19.75,0,0,1,2-.79c.68-.22,1.39-.41,2.1-.58a34.58,34.58,0,0,1,13-.57,28.27,28.27,0,0,1,8.28,2.51,22,22,0,0,1,6.83,5.14,21.27,21.27,0,0,1,2.5,3.49c.76,1.27,1.5,2.55,2.19,3.86s1.36,2.6,1.91,3.94a15.93,15.93,0,0,1,.69,2c.06.27.11.53.14.78-.84-.87-1.7-1.7-2.6-2.49-1.14-1-2.34-2-3.58-2.91a44.65,44.65,0,0,0-3.88-2.54,30,30,0,0,0-4.24-2,19.12,19.12,0,0,0-4.67-1.15,22.89,22.89,0,0,0-4.76.07,38.92,38.92,0,0,0-17.29,6.6,29.43,29.43,0,0,0-6.77,6.46,23.62,23.62,0,0,0-4.07,8.48,20.58,20.58,0,0,0-.17,9.43,25.82,25.82,0,0,0,3.66,8.61,38.57,38.57,0,0,0,13.48,12.5,18.07,18.07,0,0,0,2.14,1,10.88,10.88,0,0,0,1.14.38l1.09.32c1.44.42,2.9.85,4.37,1.24a68.25,68.25,0,0,0,18,2.69,37.22,37.22,0,0,0,9.09-1.12l1.11-.32c.36-.11.72-.25,1.09-.37.72-.24,1.43-.57,2.12-.81s1.42-.53,2.13-.83c.35-.15.77-.37,1.14-.54a5,5,0,0,0,.83-.48Zm-41.64,231.09c-.69.28-1.39.53-2.1.78s-1.42.54-2.13.76c-.36.11-.71.23-1.07.33l-1.08.28a36.15,36.15,0,0,1-8.87.88,55.5,55.5,0,0,1-8.9-.92c-2.95-.54-5.86-1.26-8.74-2.09-1.45-.41-2.88-.85-4.33-1.3l-1.08-.33c-.36-.11-.67-.22-1-.35a19.36,19.36,0,0,1-2-.94,36.76,36.76,0,0,1-12.67-12.08,24.57,24.57,0,0,1-3.3-8,18.49,18.49,0,0,1,.21-8.53,21.6,21.6,0,0,1,3.78-7.71,27.29,27.29,0,0,1,6.32-6,36.19,36.19,0,0,1,7.79-4,35,35,0,0,1,8.51-2.06,20.45,20.45,0,0,1,4.28,0,17.33,17.33,0,0,1,4.11,1,37.64,37.64,0,0,1,7.78,4,74.05,74.05,0,0,1,7.13,5.35h0l.21.23,0,0a3.81,3.81,0,0,0-.41-.29,6.37,6.37,0,0,0-.8-.56,9.85,9.85,0,0,0-1.47-.69,14.11,14.11,0,0,0-3.13-.8,27.12,27.12,0,0,0-6.43-.08,46.64,46.64,0,0,0-6.32,1.09,37.49,37.49,0,0,0-6.11,2,29.47,29.47,0,0,0-5.63,3.24,17.74,17.74,0,0,0-4.49,4.8,12,12,0,0,0-1.35,3.07,11.72,11.72,0,0,0-.41,3.32,23.54,23.54,0,0,0,.87,6.45,18,18,0,0,0,3,5.84,21.57,21.57,0,0,0,4.71,4.49,38.16,38.16,0,0,0,11.7,5.26,78.06,78.06,0,0,0,12.55,2.32c4,.43,7.93.63,11.9.71A10,10,0,0,1,1217.75,224.28Z" style="fill: #fff"/>
      <path d="M1371.33-6.81l-180.94-4.28,29.54,234.18h0v1a85.93,85.93,0,0,0,8.46-4.48,63.22,63.22,0,0,0,7.16-5.46q1.68-1.5,3.24-3.13c1-1.09,2-2.24,2.92-3.43a38.76,38.76,0,0,0,2.54-3.72c.78-1.29,1.42-2.67,2.1-4a76.64,76.64,0,0,1,4.58-7.63c1.66-2.47,3.45-4.85,5.33-7.15a117.92,117.92,0,0,1,12.28-12.9c2.2-2,4.48-3.88,6.86-5.64a43.54,43.54,0,0,1,7.49-4.6,18.06,18.06,0,0,1,2-.79c.68-.22,1.39-.41,2.09-.58a34.61,34.61,0,0,1,13-.57,28.2,28.2,0,0,1,8.27,2.51,21.73,21.73,0,0,1,6.83,5.14,21.33,21.33,0,0,1,2.51,3.49c.76,1.27,1.49,2.55,2.18,3.86s1.37,2.6,1.91,3.94a15.93,15.93,0,0,1,.69,2,4.59,4.59,0,0,1,.14.78c-.83-.87-1.7-1.7-2.6-2.49-1.14-1-2.34-2-3.57-2.91a46.23,46.23,0,0,0-3.88-2.54,30.48,30.48,0,0,0-4.24-2,19.23,19.23,0,0,0-4.67-1.15,23,23,0,0,0-4.77.07,37.67,37.67,0,0,0-9,2.26,38.18,38.18,0,0,0-8.24,4.34,29.43,29.43,0,0,0-6.77,6.46,23.64,23.64,0,0,0-4.08,8.48,20.58,20.58,0,0,0-.17,9.43,26,26,0,0,0,3.66,8.61,37.27,37.27,0,0,0,6,7.07,36.61,36.61,0,0,0,7.5,5.43,16.7,16.7,0,0,0,2.14,1,9.52,9.52,0,0,0,1.14.38l1.08.32c1.45.42,2.91.85,4.37,1.24a68.31,68.31,0,0,0,18,2.69,37.24,37.24,0,0,0,9.1-1.12l1.1-.32c.37-.11.73-.25,1.09-.37.73-.24,1.44-.57,2.13-.81s1.42-.53,2.13-.83c.35-.15.77-.37,1.13-.54a4.55,4.55,0,0,0,.83-.48Zm-41.64,231.09c-.68.28-1.39.53-2.1.78s-1.41.54-2.12.76c-.36.11-.71.23-1.07.33l-1.08.28a36.2,36.2,0,0,1-8.87.88,55.75,55.75,0,0,1-8.91-.92c-2.94-.54-5.85-1.26-8.74-2.09-1.44-.41-2.88-.85-4.32-1.3l-1.09-.33c-.36-.11-.67-.22-1-.35a19.51,19.51,0,0,1-2-.94,36.85,36.85,0,0,1-12.66-12.08,24.59,24.59,0,0,1-3.31-8,18.62,18.62,0,0,1,.21-8.53,21.76,21.76,0,0,1,3.78-7.71,27.14,27.14,0,0,1,6.33-6,35.73,35.73,0,0,1,7.79-4,34.83,34.83,0,0,1,8.5-2.06,20.45,20.45,0,0,1,4.28,0,17.1,17.1,0,0,1,4.11,1,37.39,37.39,0,0,1,7.78,4,74.18,74.18,0,0,1,7.14,5.35h0l.2.23,0,0a3,3,0,0,0-.41-.29,6.37,6.37,0,0,0-.8-.56,10.22,10.22,0,0,0-1.46-.69,14.25,14.25,0,0,0-3.13-.8,27.12,27.12,0,0,0-6.43-.08,46.38,46.38,0,0,0-6.32,1.09,37.92,37.92,0,0,0-6.12,2,29.7,29.7,0,0,0-5.62,3.24,17.62,17.62,0,0,0-4.5,4.8,12,12,0,0,0-1.34,3.07,11,11,0,0,0-.41,3.32,22.8,22.8,0,0,0,.87,6.45,18,18,0,0,0,3,5.84,21.61,21.61,0,0,0,4.72,4.49,38.16,38.16,0,0,0,11.7,5.26,77.74,77.74,0,0,0,12.54,2.32c4,.43,7.93.63,11.9.71A10,10,0,0,1,1329.69,224.28Z" style="fill: #fff"/>
      <path d="M1483.28-6.81l-180.94-4.28,29.54,234.18h0v1a84.94,84.94,0,0,0,8.45-4.48,64.24,64.24,0,0,0,7.17-5.46c1.11-1,2.2-2,3.23-3.13a43.46,43.46,0,0,0,2.93-3.43,40.68,40.68,0,0,0,2.54-3.72c.77-1.29,1.42-2.67,2.09-4a76.73,76.73,0,0,1,4.59-7.63q2.49-3.7,5.33-7.15a116.89,116.89,0,0,1,12.27-12.9c2.21-2,4.49-3.88,6.86-5.64a44.32,44.32,0,0,1,7.49-4.6,19.75,19.75,0,0,1,2-.79c.68-.22,1.39-.41,2.1-.58a34.58,34.58,0,0,1,13-.57,28.27,28.27,0,0,1,8.28,2.51,22,22,0,0,1,6.83,5.14,21.27,21.27,0,0,1,2.5,3.49c.76,1.27,1.5,2.55,2.19,3.86s1.36,2.6,1.91,3.94a15.93,15.93,0,0,1,.69,2c.06.27.11.53.14.78-.84-.87-1.7-1.7-2.6-2.49-1.14-1-2.34-2-3.58-2.91a44.65,44.65,0,0,0-3.88-2.54,30,30,0,0,0-4.24-2,19.12,19.12,0,0,0-4.67-1.15,22.89,22.89,0,0,0-4.76.07,38.92,38.92,0,0,0-17.29,6.6,29.43,29.43,0,0,0-6.77,6.46,23.62,23.62,0,0,0-4.07,8.48,20.58,20.58,0,0,0-.17,9.43,25.82,25.82,0,0,0,3.66,8.61,38.57,38.57,0,0,0,13.48,12.5,18.07,18.07,0,0,0,2.14,1,10.88,10.88,0,0,0,1.14.38l1.09.32c1.44.42,2.9.85,4.37,1.24a68.25,68.25,0,0,0,18,2.69,37.22,37.22,0,0,0,9.09-1.12l1.11-.32c.36-.11.72-.25,1.09-.37.72-.24,1.43-.57,2.12-.81s1.42-.53,2.13-.83c.35-.15.77-.37,1.14-.54a5,5,0,0,0,.83-.48Zm-41.64,231.09c-.69.28-1.39.53-2.1.78s-1.42.54-2.13.76c-.36.11-.71.23-1.07.33l-1.08.28a36.15,36.15,0,0,1-8.87.88,55.5,55.5,0,0,1-8.9-.92c-3-.54-5.86-1.26-8.74-2.09-1.45-.41-2.88-.85-4.33-1.3l-1.08-.33c-.36-.11-.67-.22-1-.35a19.36,19.36,0,0,1-1.95-.94,36.76,36.76,0,0,1-12.67-12.08,24.57,24.57,0,0,1-3.3-8,18.49,18.49,0,0,1,.21-8.53,21.6,21.6,0,0,1,3.78-7.71,27.29,27.29,0,0,1,6.32-6,36.19,36.19,0,0,1,7.79-4A35,35,0,0,1,1411,173a20.36,20.36,0,0,1,4.27,0,17.29,17.29,0,0,1,4.12,1,37.64,37.64,0,0,1,7.78,4,74.05,74.05,0,0,1,7.13,5.35h0l.21.23,0,0a3.81,3.81,0,0,0-.41-.29,6.37,6.37,0,0,0-.8-.56,9.85,9.85,0,0,0-1.47-.69,14.11,14.11,0,0,0-3.13-.8,27.12,27.12,0,0,0-6.43-.08,46.64,46.64,0,0,0-6.32,1.09,37.49,37.49,0,0,0-6.11,2,29.47,29.47,0,0,0-5.63,3.24,17.74,17.74,0,0,0-4.49,4.8,12,12,0,0,0-1.35,3.07,11.72,11.72,0,0,0-.41,3.32,23.54,23.54,0,0,0,.87,6.45,18,18,0,0,0,3,5.84,21.57,21.57,0,0,0,4.71,4.49,38.16,38.16,0,0,0,11.7,5.26,78.06,78.06,0,0,0,12.55,2.32c4,.43,7.93.63,11.9.71A10,10,0,0,1,1441.64,224.28Z" style="fill: #fff"/>
      <path d="M1595.22-6.81l-180.94-4.28,29.54,234.18h0v1a85.93,85.93,0,0,0,8.46-4.48,63.22,63.22,0,0,0,7.16-5.46q1.68-1.5,3.24-3.13c1-1.09,2-2.24,2.92-3.43a38.76,38.76,0,0,0,2.54-3.72c.78-1.29,1.42-2.67,2.1-4a76.64,76.64,0,0,1,4.58-7.63c1.66-2.47,3.45-4.85,5.33-7.15a117.92,117.92,0,0,1,12.28-12.9c2.2-2,4.48-3.88,6.86-5.64a43.54,43.54,0,0,1,7.49-4.6,18.06,18.06,0,0,1,2-.79c.68-.22,1.39-.41,2.09-.58a34.61,34.61,0,0,1,13-.57,28.2,28.2,0,0,1,8.27,2.51,21.73,21.73,0,0,1,6.83,5.14,21.33,21.33,0,0,1,2.51,3.49c.76,1.27,1.49,2.55,2.18,3.86s1.37,2.6,1.91,3.94a15.93,15.93,0,0,1,.69,2,4.59,4.59,0,0,1,.14.78c-.83-.87-1.7-1.7-2.6-2.49-1.14-1-2.34-2-3.57-2.91a46.23,46.23,0,0,0-3.88-2.54,30.48,30.48,0,0,0-4.24-2,19.23,19.23,0,0,0-4.67-1.15,23,23,0,0,0-4.77.07,37.67,37.67,0,0,0-9,2.26,38.18,38.18,0,0,0-8.24,4.34,29.43,29.43,0,0,0-6.77,6.46,23.64,23.64,0,0,0-4.08,8.48,20.58,20.58,0,0,0-.17,9.43,26,26,0,0,0,3.66,8.61,37.27,37.27,0,0,0,6,7.07,36.61,36.61,0,0,0,7.5,5.43,16.7,16.7,0,0,0,2.14,1,9.52,9.52,0,0,0,1.14.38l1.08.32c1.45.42,2.91.85,4.37,1.24a68.31,68.31,0,0,0,18,2.69,37.24,37.24,0,0,0,9.1-1.12l1.1-.32c.37-.11.73-.25,1.09-.37.73-.24,1.44-.57,2.13-.81s1.42-.53,2.13-.83c.35-.15.77-.37,1.13-.54a4.55,4.55,0,0,0,.83-.48Zm-41.64,231.09c-.68.28-1.39.53-2.1.78s-1.41.54-2.12.76c-.36.11-.71.23-1.07.33l-1.08.28a36.2,36.2,0,0,1-8.87.88,55.75,55.75,0,0,1-8.91-.92c-2.94-.54-5.85-1.26-8.74-2.09-1.44-.41-2.88-.85-4.32-1.3l-1.09-.33c-.36-.11-.67-.22-1-.35a19.51,19.51,0,0,1-2-.94,36.85,36.85,0,0,1-12.66-12.08,24.59,24.59,0,0,1-3.31-8,18.62,18.62,0,0,1,.21-8.53,21.76,21.76,0,0,1,3.78-7.71,27.14,27.14,0,0,1,6.33-6,35.73,35.73,0,0,1,7.79-4A34.83,34.83,0,0,1,1523,173a20.45,20.45,0,0,1,4.28,0,17.1,17.1,0,0,1,4.11,1,37.39,37.39,0,0,1,7.78,4,74.18,74.18,0,0,1,7.14,5.35h0l.2.23,0,0a3,3,0,0,0-.41-.29,6.37,6.37,0,0,0-.8-.56,10.22,10.22,0,0,0-1.46-.69,14.25,14.25,0,0,0-3.13-.8,27.12,27.12,0,0,0-6.43-.08,46.38,46.38,0,0,0-6.32,1.09,37.92,37.92,0,0,0-6.12,2,29.7,29.7,0,0,0-5.62,3.24,17.62,17.62,0,0,0-4.5,4.8,12,12,0,0,0-1.34,3.07,11,11,0,0,0-.41,3.32,22.8,22.8,0,0,0,.87,6.45,18,18,0,0,0,3,5.84,21.61,21.61,0,0,0,4.72,4.49,38.16,38.16,0,0,0,11.7,5.26,77.74,77.74,0,0,0,12.54,2.32c4,.43,7.93.63,11.9.71A10,10,0,0,1,1553.58,224.28Z" style="fill: #fff"/>
      <path d="M1707.17-6.81l-180.94-4.28,29.54,234.18h0v1a84.94,84.94,0,0,0,8.45-4.48,64.24,64.24,0,0,0,7.17-5.46c1.11-1,2.2-2,3.23-3.13a43.46,43.46,0,0,0,2.93-3.43,40.68,40.68,0,0,0,2.54-3.72c.77-1.29,1.42-2.67,2.09-4a76.73,76.73,0,0,1,4.59-7.63q2.49-3.7,5.33-7.15a116.89,116.89,0,0,1,12.27-12.9c2.21-2,4.49-3.88,6.86-5.64a44.32,44.32,0,0,1,7.49-4.6,19.75,19.75,0,0,1,2-.79c.68-.22,1.39-.41,2.1-.58a34.58,34.58,0,0,1,13-.57,28.27,28.27,0,0,1,8.28,2.51,22,22,0,0,1,6.83,5.14,21.27,21.27,0,0,1,2.5,3.49c.76,1.27,1.5,2.55,2.19,3.86s1.36,2.6,1.91,3.94a15.93,15.93,0,0,1,.69,2c.06.27.11.53.14.78-.84-.87-1.7-1.7-2.6-2.49-1.14-1-2.34-2-3.58-2.91a44.65,44.65,0,0,0-3.88-2.54,30,30,0,0,0-4.24-2,19.12,19.12,0,0,0-4.67-1.15,22.89,22.89,0,0,0-4.76.07,38.92,38.92,0,0,0-17.29,6.6,29.43,29.43,0,0,0-6.77,6.46,23.62,23.62,0,0,0-4.07,8.48,20.58,20.58,0,0,0-.17,9.43,25.82,25.82,0,0,0,3.66,8.61,38.57,38.57,0,0,0,13.48,12.5,18.07,18.07,0,0,0,2.14,1,10.88,10.88,0,0,0,1.14.38l1.09.32c1.44.42,2.9.85,4.37,1.24a68.25,68.25,0,0,0,18,2.69,37.22,37.22,0,0,0,9.09-1.12l1.11-.32c.36-.11.72-.25,1.09-.37.72-.24,1.43-.57,2.12-.81s1.42-.53,2.13-.83c.35-.15.77-.37,1.14-.54a5,5,0,0,0,.83-.48Zm-41.64,231.09c-.69.28-1.39.53-2.1.78s-1.42.54-2.13.76c-.36.11-.71.23-1.07.33l-1.08.28a36.15,36.15,0,0,1-8.87.88,55.5,55.5,0,0,1-8.9-.92c-3-.54-5.86-1.26-8.74-2.09-1.45-.41-2.88-.85-4.33-1.3l-1.08-.33c-.36-.11-.67-.22-1-.35a19.36,19.36,0,0,1-2-.94,36.76,36.76,0,0,1-12.67-12.08,24.57,24.57,0,0,1-3.3-8,18.49,18.49,0,0,1,.21-8.53,21.6,21.6,0,0,1,3.78-7.71,27.29,27.29,0,0,1,6.32-6,36.19,36.19,0,0,1,7.79-4,35,35,0,0,1,8.51-2.06,20.36,20.36,0,0,1,4.27,0,17.29,17.29,0,0,1,4.12,1,37.64,37.64,0,0,1,7.78,4,74.05,74.05,0,0,1,7.13,5.35h0l.21.23,0,0a3.81,3.81,0,0,0-.41-.29,6.37,6.37,0,0,0-.8-.56,9.85,9.85,0,0,0-1.47-.69,14.11,14.11,0,0,0-3.13-.8,27.12,27.12,0,0,0-6.43-.08,46.64,46.64,0,0,0-6.32,1.09,37.49,37.49,0,0,0-6.11,2,29.47,29.47,0,0,0-5.63,3.24,17.74,17.74,0,0,0-4.49,4.8,12,12,0,0,0-1.35,3.07,11.72,11.72,0,0,0-.41,3.32,23.54,23.54,0,0,0,.87,6.45,18,18,0,0,0,3,5.84,21.57,21.57,0,0,0,4.71,4.49,38.16,38.16,0,0,0,11.7,5.26,78.06,78.06,0,0,0,12.55,2.32c4,.43,7.93.63,11.9.71A10,10,0,0,1,1665.53,224.28Z" style="fill: #fff"/>
      <path d="M1819.11-6.81l-180.94-4.28,29.54,234.18h0v1a85.93,85.93,0,0,0,8.46-4.48,63.22,63.22,0,0,0,7.16-5.46q1.68-1.5,3.24-3.13c1-1.09,2-2.24,2.92-3.43a38.76,38.76,0,0,0,2.54-3.72c.78-1.29,1.42-2.67,2.1-4a76.64,76.64,0,0,1,4.58-7.63c1.66-2.47,3.45-4.85,5.33-7.15a117.92,117.92,0,0,1,12.28-12.9c2.2-2,4.48-3.88,6.86-5.64a43.54,43.54,0,0,1,7.49-4.6,18.06,18.06,0,0,1,2-.79c.67-.22,1.39-.41,2.09-.58a34.61,34.61,0,0,1,13-.57,28.2,28.2,0,0,1,8.27,2.51,21.73,21.73,0,0,1,6.83,5.14,21.33,21.33,0,0,1,2.51,3.49c.76,1.27,1.49,2.55,2.18,3.86s1.37,2.6,1.91,3.94a15.93,15.93,0,0,1,.69,2,4.59,4.59,0,0,1,.14.78c-.83-.87-1.7-1.7-2.6-2.49-1.14-1-2.34-2-3.57-2.91a46.23,46.23,0,0,0-3.88-2.54,30.48,30.48,0,0,0-4.24-2,19.23,19.23,0,0,0-4.67-1.15,23,23,0,0,0-4.77.07,37.67,37.67,0,0,0-9,2.26,38.18,38.18,0,0,0-8.24,4.34,29.43,29.43,0,0,0-6.77,6.46,23.64,23.64,0,0,0-4.08,8.48,20.58,20.58,0,0,0-.17,9.43,26,26,0,0,0,3.66,8.61,37.27,37.27,0,0,0,6,7.07,36.61,36.61,0,0,0,7.5,5.43,16.7,16.7,0,0,0,2.14,1,9.52,9.52,0,0,0,1.14.38l1.08.32c1.45.42,2.91.85,4.37,1.24a68.31,68.31,0,0,0,18,2.69,37.24,37.24,0,0,0,9.1-1.12l1.1-.32c.37-.11.73-.25,1.09-.37.73-.24,1.44-.57,2.13-.81s1.42-.53,2.13-.83c.35-.15.77-.37,1.13-.54a4.55,4.55,0,0,0,.83-.48Zm-41.64,231.09c-.68.28-1.39.53-2.1.78s-1.41.54-2.12.76c-.36.11-.71.23-1.07.33l-1.08.28a36.2,36.2,0,0,1-8.87.88,55.75,55.75,0,0,1-8.91-.92c-2.94-.54-5.85-1.26-8.74-2.09-1.44-.41-2.88-.85-4.32-1.3l-1.09-.33c-.36-.11-.67-.22-1-.35a19.51,19.51,0,0,1-2-.94,36.85,36.85,0,0,1-12.66-12.08,24.59,24.59,0,0,1-3.31-8,18.62,18.62,0,0,1,.21-8.53,21.76,21.76,0,0,1,3.78-7.71,27.14,27.14,0,0,1,6.33-6,35.73,35.73,0,0,1,7.79-4,34.83,34.83,0,0,1,8.5-2.06,20.45,20.45,0,0,1,4.28,0,17.1,17.1,0,0,1,4.11,1,37.64,37.64,0,0,1,7.78,4,74.18,74.18,0,0,1,7.14,5.35h0l.2.23,0,0a3,3,0,0,0-.41-.29,6.37,6.37,0,0,0-.8-.56,10.22,10.22,0,0,0-1.46-.69,14.25,14.25,0,0,0-3.13-.8,27.12,27.12,0,0,0-6.43-.08,46.38,46.38,0,0,0-6.32,1.09,37.92,37.92,0,0,0-6.12,2,29.7,29.7,0,0,0-5.62,3.24,17.62,17.62,0,0,0-4.5,4.8,12,12,0,0,0-1.34,3.07,11,11,0,0,0-.41,3.32,22.8,22.8,0,0,0,.87,6.45,18,18,0,0,0,2.95,5.84,21.61,21.61,0,0,0,4.72,4.49,38.16,38.16,0,0,0,11.7,5.26,77.74,77.74,0,0,0,12.54,2.32c4,.43,7.93.63,11.9.71A10,10,0,0,1,1777.47,224.28Z" style="fill: #fff"/>
      <path d="M1931.06-6.81l-180.94-4.28,29.54,234.18h0v1a84.94,84.94,0,0,0,8.45-4.48,64.24,64.24,0,0,0,7.17-5.46c1.11-1,2.2-2,3.23-3.13a43.46,43.46,0,0,0,2.93-3.43,40.68,40.68,0,0,0,2.54-3.72c.77-1.29,1.42-2.67,2.09-4a76.73,76.73,0,0,1,4.59-7.63q2.49-3.7,5.33-7.15a116.89,116.89,0,0,1,12.27-12.9c2.21-2,4.49-3.88,6.86-5.64a44.32,44.32,0,0,1,7.49-4.6,19.75,19.75,0,0,1,2-.79c.68-.22,1.39-.41,2.1-.58a34.58,34.58,0,0,1,13-.57,28.36,28.36,0,0,1,8.28,2.51,22,22,0,0,1,6.83,5.14,21.27,21.27,0,0,1,2.5,3.49c.76,1.27,1.5,2.55,2.19,3.86s1.36,2.6,1.91,3.94a15.93,15.93,0,0,1,.69,2c.06.27.11.53.14.78-.84-.87-1.7-1.7-2.6-2.49-1.14-1-2.34-2-3.58-2.91a44.65,44.65,0,0,0-3.88-2.54,30,30,0,0,0-4.24-2,19.12,19.12,0,0,0-4.67-1.15,22.89,22.89,0,0,0-4.76.07,38.92,38.92,0,0,0-17.29,6.6,29.43,29.43,0,0,0-6.77,6.46,23.62,23.62,0,0,0-4.07,8.48,20.58,20.58,0,0,0-.17,9.43,25.82,25.82,0,0,0,3.66,8.61,38.57,38.57,0,0,0,13.48,12.5,18.07,18.07,0,0,0,2.14,1,10.88,10.88,0,0,0,1.14.38l1.09.32c1.44.42,2.9.85,4.37,1.24a68.25,68.25,0,0,0,18,2.69,37.22,37.22,0,0,0,9.09-1.12l1.11-.32c.36-.11.72-.25,1.09-.37.72-.24,1.43-.57,2.12-.81s1.42-.53,2.13-.83c.35-.15.77-.37,1.14-.54a5,5,0,0,0,.83-.48Zm-41.64,231.09c-.69.28-1.39.53-2.1.78s-1.42.54-2.13.76c-.36.11-.71.23-1.07.33l-1.08.28a36.15,36.15,0,0,1-8.87.88,55.5,55.5,0,0,1-8.9-.92c-3-.54-5.86-1.26-8.74-2.09-1.45-.41-2.88-.85-4.33-1.3l-1.08-.33c-.36-.11-.67-.22-1-.35a19.36,19.36,0,0,1-1.95-.94,36.76,36.76,0,0,1-12.67-12.08,24.57,24.57,0,0,1-3.3-8,18.49,18.49,0,0,1,.21-8.53,21.6,21.6,0,0,1,3.78-7.71,27.09,27.09,0,0,1,6.32-6,36.19,36.19,0,0,1,7.79-4,35,35,0,0,1,8.51-2.06,20.36,20.36,0,0,1,4.27,0,17.29,17.29,0,0,1,4.12,1,37.64,37.64,0,0,1,7.78,4,74.05,74.05,0,0,1,7.13,5.35h0l.21.23,0,0a3.81,3.81,0,0,0-.41-.29,6.37,6.37,0,0,0-.8-.56,9.85,9.85,0,0,0-1.47-.69,14.11,14.11,0,0,0-3.13-.8,27.12,27.12,0,0,0-6.43-.08,46.64,46.64,0,0,0-6.32,1.09,37.49,37.49,0,0,0-6.11,2,29.47,29.47,0,0,0-5.63,3.24,17.74,17.74,0,0,0-4.49,4.8,12,12,0,0,0-1.35,3.07,11.72,11.72,0,0,0-.41,3.32,23.54,23.54,0,0,0,.87,6.45,18,18,0,0,0,3,5.84,21.57,21.57,0,0,0,4.71,4.49,38.16,38.16,0,0,0,11.7,5.26,78.06,78.06,0,0,0,12.55,2.32c4,.43,7.93.63,11.9.71A10,10,0,0,1,1889.42,224.28Z" style="fill: #fff"/>
      <path d="M2043-6.81l-180.94-4.28,29.54,234.18h0v1a85.93,85.93,0,0,0,8.46-4.48,63.22,63.22,0,0,0,7.16-5.46q1.68-1.5,3.24-3.13c1-1.09,2-2.24,2.92-3.43a38.76,38.76,0,0,0,2.54-3.72c.78-1.29,1.42-2.67,2.1-4a76.64,76.64,0,0,1,4.58-7.63c1.66-2.47,3.45-4.85,5.33-7.15a117.92,117.92,0,0,1,12.28-12.9c2.2-2,4.48-3.88,6.86-5.64a43.54,43.54,0,0,1,7.49-4.6,18.06,18.06,0,0,1,2-.79c.67-.22,1.39-.41,2.09-.58a34.61,34.61,0,0,1,13-.57,28.2,28.2,0,0,1,8.27,2.51,21.73,21.73,0,0,1,6.83,5.14,21.33,21.33,0,0,1,2.51,3.49c.76,1.27,1.49,2.55,2.18,3.86s1.37,2.6,1.91,3.94a15.93,15.93,0,0,1,.69,2,4.59,4.59,0,0,1,.14.78c-.83-.87-1.7-1.7-2.6-2.49-1.14-1-2.34-2-3.57-2.91a46.23,46.23,0,0,0-3.88-2.54,30.48,30.48,0,0,0-4.24-2,19.23,19.23,0,0,0-4.67-1.15,23,23,0,0,0-4.77.07,37.67,37.67,0,0,0-9,2.26,38.18,38.18,0,0,0-8.24,4.34,29.43,29.43,0,0,0-6.77,6.46,23.64,23.64,0,0,0-4.08,8.48,20.58,20.58,0,0,0-.17,9.43,26,26,0,0,0,3.66,8.61,37.27,37.27,0,0,0,6,7.07,36.61,36.61,0,0,0,7.5,5.43,16.7,16.7,0,0,0,2.14,1,9.52,9.52,0,0,0,1.14.38l1.08.32c1.45.42,2.91.85,4.37,1.24a68.31,68.31,0,0,0,18,2.69,37.24,37.24,0,0,0,9.1-1.12l1.1-.32c.37-.11.73-.25,1.09-.37.73-.24,1.44-.57,2.13-.81s1.42-.53,2.13-.83c.35-.15.77-.37,1.13-.54a4.55,4.55,0,0,0,.83-.48Zm-41.64,231.09c-.68.28-1.39.53-2.1.78s-1.41.54-2.12.76c-.36.11-.71.23-1.07.33l-1.08.28a36.2,36.2,0,0,1-8.87.88,55.75,55.75,0,0,1-8.91-.92c-2.94-.54-5.85-1.26-8.74-2.09-1.44-.41-2.88-.85-4.32-1.3l-1.09-.33c-.36-.11-.67-.22-1-.35a19.51,19.51,0,0,1-2-.94,36.85,36.85,0,0,1-12.66-12.08,24.59,24.59,0,0,1-3.31-8,18.62,18.62,0,0,1,.21-8.53,21.76,21.76,0,0,1,3.78-7.71,27.14,27.14,0,0,1,6.33-6,35.73,35.73,0,0,1,7.79-4,34.83,34.83,0,0,1,8.5-2.06,20.45,20.45,0,0,1,4.28,0,17.1,17.1,0,0,1,4.11,1,37.64,37.64,0,0,1,7.78,4,74.18,74.18,0,0,1,7.14,5.35h0l.2.23,0,0a3,3,0,0,0-.41-.29,6.37,6.37,0,0,0-.8-.56,10.22,10.22,0,0,0-1.46-.69,14.25,14.25,0,0,0-3.13-.8,27.12,27.12,0,0,0-6.43-.08,46.38,46.38,0,0,0-6.32,1.09,37.92,37.92,0,0,0-6.12,2,29.7,29.7,0,0,0-5.62,3.24,17.62,17.62,0,0,0-4.5,4.8,12,12,0,0,0-1.34,3.07,11,11,0,0,0-.41,3.32,22.8,22.8,0,0,0,.87,6.45,18,18,0,0,0,3,5.84,21.61,21.61,0,0,0,4.72,4.49,38.16,38.16,0,0,0,11.7,5.26,77.74,77.74,0,0,0,12.54,2.32c4,.43,7.93.63,11.9.71A10,10,0,0,1,2001.36,224.28Z" style="fill: #fff"/>
    </g>
  </g>
  <g>
    <path d="M683,286.42a7.47,7.47,0,0,0,3.15.74,22.17,22.17,0,0,0,3.25-.21c1.08-.13,2.15-.31,3.24-.46a13.29,13.29,0,0,1,3.34-.16,10.62,10.62,0,0,1,3.25.86l.76.31a6.68,6.68,0,0,1,.78.35c.5.26,1,.54,1.45.82l1.41.87a9.6,9.6,0,0,1,1.35,1,7.57,7.57,0,0,1,1.86,2.85l-.58.29c-.29-.47-.54-.94-.84-1.35a9.49,9.49,0,0,0-1-1.16,10,10,0,0,0-1.24-1l-1.36-.9c-.45-.29-.91-.58-1.38-.83a7.56,7.56,0,0,0-.7-.34l-.76-.34a10.23,10.23,0,0,0-3-.9,13.81,13.81,0,0,0-3.21,0c-1.08.11-2.17.25-3.27.34a20.19,20.19,0,0,1-3.3,0,7.41,7.41,0,0,1-3.15-.92Z" style="fill: gray"/>
    <path d="M646.7,340.93s-1,3.08-2,5.22-2.09,4.9-4.66,6.74-10.2,4.05-13,5.29-9.53,4.05-11.74,4.67-9.16,2.07-12.07,3.11-11.24,3.91-13.32,4.74-8.34,2.9-8.34,2.9-1.74-4.84,0-7" style="fill: gray"/>
    <path d="M576.64,359s-5-2.34-6.06-2.62,4.27-5.22,7.08-8.14,9.12-7.11,14.19-10.45,9.31-7.44,14.9-11A171.68,171.68,0,0,0,621.08,316c2.65-2.16,5.54-4.67,9.42-7.31s5-2.9,6.33-3.2a123.26,123.26,0,0,1,12.78-1.1c3,0,10,.82,11.26,1" style="fill: gray"/>
    <path d="M704,293.11a5.84,5.84,0,0,0-2-1.54,6.64,6.64,0,0,0-2.67-.49c-1.91,0-3.86.24-5.8.36s-3.9.2-5.85.13a19.08,19.08,0,0,1-2.92-.35,4.82,4.82,0,0,1-2.59-1.28,4.7,4.7,0,0,0,2.63,1.1,19.85,19.85,0,0,0,2.89.17c1.93,0,3.86-.2,5.79-.41s3.84-.46,5.83-.56a7.61,7.61,0,0,1,3,.46,3.63,3.63,0,0,1,2.3,2.15Z" style="fill: gray"/>
    <path d="M703.11,291.12s.69.47.92.17-.62-.9-.62-.9l1.65.86,1.21,1.73-2.2.11s.22-.32-.39-.93S703.11,291.12,703.11,291.12Z" style="fill: gray"/>
    <path d="M657.36,333.88c-.61,1-4.33,3.19-6.41,6.14s1.49,5,2.43,6.25,3.57,2.67,4.87,3.39c.18-.61,1.59-3.91,1.92-5.38a33.87,33.87,0,0,0,.51-5.93c0-1.25,0-2.64,0-2.64s1.07-1,1-1.86" style="fill: gray"/>
    <path d="M578.79,368.19s-4.62,4.79-5.8,6a58.17,58.17,0,0,1-5.08,4.24c-1.46,1.09-4.14,3-4.59,3.46s-2.6,1.47-3.26,1.2-2.25-.23-1.12-1.55,1.73-1.41,1.6-1.71-2.23,1.49-2.5,1.07-2.11-5.57-3.49-7.16-3.16-3.43-3.16-3.43a33.71,33.71,0,0,0,3-1.53c.82-.53-2.88.7-3.21.4a2.52,2.52,0,0,1,.06-3.19c1.15-1.1,7.19-2.47,10.12-3.13s4.91-.59,7.16-1.48,6.91-2.42,6.91-2.42" style="fill: gray"/>
    <path d="M712.12,296.79a2.53,2.53,0,0,0,.06-1.68,2.43,2.43,0,0,0-1.91-1.2c-.67,0-1-.74-2.11-.85a56.08,56.08,0,0,0-9.59.3,120.28,120.28,0,0,0-17.43,3.34,118.16,118.16,0,0,0-21.21,8.3s-12.08,6.7-17.29,9.84-34.46,21.44-40.57,25.5-20.17,14-24.68,16.86-5.74,3.6-6.53,4.88-2,3.36-.91,5.18,4.64,3.77,7.69,2.15a69.69,69.69,0,0,1,11.56-5.2,58.75,58.75,0,0,0,10.11-3.57c4.71-2.14,14.4-5.2,18.67-6.93s18.23-6.88,22.42-8.9,13.78-6.19,20.26-9.1,5.51-.43,10.82-2.68,10.11-4.4,14-8,9.73-10.88,11.42-12.79,1.83-2.11,1.83-2.11.49,0,2.43-1.45,5.11-4.49,5.86-5.17A37.66,37.66,0,0,0,712.12,296.79Z" style="fill: #2c0f00"/>
    <path d="M711.42,298a20.88,20.88,0,0,1,2.37,1.38,6.92,6.92,0,0,1,.57.42,3.17,3.17,0,0,1,.51.53,12.52,12.52,0,0,1,.78,1.17,18.35,18.35,0,0,1,2,5.07A22,22,0,0,0,716.6,304a19,19,0,0,0-1.36-2.32,10.73,10.73,0,0,0-.82-1,2.92,2.92,0,0,0-.45-.42l-.54-.36-2.32-1.37Z" style="fill: gray"/>
    <path d="M711.22,298.72c-.12.79-.24,1.6-.32,2.4a9.36,9.36,0,0,0-.06,1.17,8.18,8.18,0,0,0,.14,1.15c.15.78.35,1.57.54,2.37a11.84,11.84,0,0,1,.21,2.5c0,.82,0,1.64-.07,2.46a8.39,8.39,0,0,1-.53,2.42,8.07,8.07,0,0,1-2.9,3.89,8,8,0,0,0,2.7-4,12.88,12.88,0,0,0,.38-4.8A10.75,10.75,0,0,0,711,306c-.25-.77-.51-1.55-.72-2.36a7,7,0,0,1-.25-1.27,10.67,10.67,0,0,1,0-1.27c0-.83.14-1.65.26-2.47Z" style="fill: gray"/>
    <path d="M701.84,318.6c.91-1.45,1.82-2.9,2.76-4.33a15.84,15.84,0,0,0,1.35-2.16,14.25,14.25,0,0,0,.82-2.41,26,26,0,0,0,.8-5c0-.42,0-.82,0-1.25a6.49,6.49,0,0,1,.13-1.32,9.16,9.16,0,0,1,.82-2.61h0l0,0,1.59-2.11.8-1.05.07-.1.07-.07a.35.35,0,0,1,.15-.09.44.44,0,0,1,.39,0,.31.31,0,0,1,.11.09.15.15,0,0,1,.05.07,1.5,1.5,0,0,1,.18.41,6.11,6.11,0,0,1,.13.7h0l-.13-.23a10.53,10.53,0,0,0,1.81,1.2,4.33,4.33,0,0,0,1,.39,4.24,4.24,0,0,1,1.1.39,5.17,5.17,0,0,1,1.76,1.45,6.24,6.24,0,0,1,1,2,6,6,0,0,0-1.16-1.89,4.77,4.77,0,0,0-1.77-1.25,4,4,0,0,0-1-.28,5.37,5.37,0,0,1-1.12-.34,11.45,11.45,0,0,1-2-1.13l-.11-.07,0-.15h0a4.85,4.85,0,0,0-.13-.6,1.28,1.28,0,0,0-.08-.2h0l0,0a.4.4,0,0,0,.12,0h.13a.25.25,0,0,0,.07-.05h0s0,0,0,0l-.76,1.1L709.29,300l0,0a7.55,7.55,0,0,0-.6,2.3c0,.41-.07.82-.12,1.24s-.1.87-.19,1.3a41.8,41.8,0,0,1-1.34,5,20.7,20.7,0,0,1-1,2.4,6.9,6.9,0,0,1-.69,1.09l-.74,1C703.7,315.73,702.76,317.16,701.84,318.6Z" style="fill: gray"/>
    <path d="M690.84,314.61a28.43,28.43,0,0,1-2,3c-1.1,1.37-1.47,2.38-2.61,2.9a21.77,21.77,0,0,1-5.86,1.19,46.14,46.14,0,0,1-5,0c-1.19-.13-.23-1.78.4-2.34s3.6-3.06,4.73-3.84a40.65,40.65,0,0,1,5-2.72l.38-.18a5.16,5.16,0,0,0,2.06-1.87,2.39,2.39,0,0,1,.54-.61,3.66,3.66,0,0,1,3.13-.45c.7.37,1.71.81,1.78,1.72S690.84,314.61,690.84,314.61Z" style="fill: gray"/>
    <ellipse cx="703.83" cy="295.45" rx="1.52" ry="1.11" transform="translate(-57.64 348.67) rotate(-26.77)" style="fill: #fff"/>
    <path d="M570.2,367.69l-.51-.86c.22-.13,22.14-13.12,28.41-16.47,1.75-.93,5.26-2.83,9.65-5.22,11.54-6.26,29-15.73,36.74-19.64,10.58-5.34,39.42-19.32,39.71-19.46l.44.9c-.29.14-29.13,14.12-39.7,19.45-7.74,3.91-25.18,13.37-36.71,19.63l-9.66,5.23C592.32,354.58,570.42,367.56,570.2,367.69Z" style="fill: gray"/>
    <path d="M698.76,310.11a46.6,46.6,0,0,1-4.8-1l-2.37-.58c-.77-.16-1.59-.27-2.39-.4a15.64,15.64,0,0,1-4.76-1.37,6.29,6.29,0,0,1-2-1.55,4.82,4.82,0,0,1-1-2.26,5.54,5.54,0,0,0,1.18,2.09,7.11,7.11,0,0,0,1.94,1.35,17.89,17.89,0,0,0,4.66,1.23c.8.14,1.61.21,2.43.42l2.37.64c1.58.44,3.15.84,4.69,1.43Z" style="fill: gray"/>
    <g>
      <path d="M708.15,302.8a7.43,7.43,0,0,1,1.15-1.92,9.83,9.83,0,0,0,2-1.92c.5-.73,1.17-1.18,1-1.84-.45-1.48-1-.65-1-.65a27.32,27.32,0,0,0-2.37,3.26A26.79,26.79,0,0,0,708.15,302.8Z" style="fill: gray"/>
      <path d="M708.25,302.49a.32.32,0,0,0-.2,0,.35.35,0,0,0-.17.14v0l0-.06.06-.13.11-.25.25-.51a3.75,3.75,0,0,1,.69-1,12.3,12.3,0,0,0,1.59-1.43c.11-.13.22-.26.32-.4l.33-.45a5,5,0,0,0,.61-.79.44.44,0,0,0,0-.31,2.47,2.47,0,0,0-.15-.43,1,1,0,0,0-.15-.24h.07s0,0,0,.06l0,0h0c-.74.92-1.51,1.87-2.14,2.84a5.76,5.76,0,0,0-.57,1.58l-.21.87-.1.44-.05.22,0,.11v.08a.36.36,0,0,0,0-.21A.31.31,0,0,0,708.25,302.49Zm-.19.62a.37.37,0,0,1-.19-.17.35.35,0,0,1,0-.23v-.09l0-.11,0-.22.1-.45.2-.88c.07-.3.14-.59.23-.89,0-.15.1-.3.16-.46a3.77,3.77,0,0,1,.23-.45,35.83,35.83,0,0,1,2.19-2.92l0,0a.89.89,0,0,1,.32-.32.66.66,0,0,1,.6,0,1.19,1.19,0,0,1,.51.6,3.25,3.25,0,0,1,.21.6,1.15,1.15,0,0,1-.1.76,5.18,5.18,0,0,1-.69,1,5.1,5.1,0,0,0-.31.42,5.63,5.63,0,0,1-.38.45,13.32,13.32,0,0,1-1.67,1.47,4,4,0,0,0-.55.79l-.25.47-.12.24-.06.12,0,.06v0l0,.05a.35.35,0,0,1-.18.15A.35.35,0,0,1,708.06,303.11Z" style="fill: gray"/>
    </g>
    <path d="M710.05,297.78a.77.77,0,0,1-.43.67c-1.54.76-7,3.44-8.74,4.07-2.07.73-5.3,1-7,1.87s-11.67,6.93-12.57,7.2,6.16-4.82,7.52-5.51,4.85-2.81,7.45-3.33a23.16,23.16,0,0,0,6.7-2.4,57.2,57.2,0,0,0,5.82-3.23.77.77,0,0,1,1.22.66Z" style="fill: #fff"/>
  </g>
  <g>
    <path d="M545.86,331.66c6.51-5.3,13.29-10.29,20.16-15.13s13.89-9.47,21-13.92,14.43-8.68,21.84-12.7,15-7.82,22.65-11.29a261.93,261.93,0,0,1,47.94-16.79c2.06-.55,4.16-.91,6.25-1.35s4.18-.87,6.3-1.17,4.22-.69,6.34-1l6.4-.68a147,147,0,0,1,25.86.07l-1,7.81a140.11,140.11,0,0,0-24.43-1l-6.15.41c-2.05.18-4.09.46-6.14.69s-4.09.54-6.12.88-4.09.62-6.11,1.08a256.2,256.2,0,0,0-47.62,14.63c-7.74,3.12-15.35,6.6-22.85,10.3s-14.91,7.62-22.19,11.76-14.46,8.49-21.5,13.05S552.57,326.62,545.86,331.66Z" style="fill: #fff"/>
    <polygon points="721.6 269.72 757.95 268.89 726.05 251.43 721.6 269.72" style="fill: #fff"/>
  </g>
  <g>
    <g style="opacity: 0.12">
      <circle cx="709.69" cy="464.94" r="9.96" style="fill: #fff"/>
    </g>
    <g style="opacity: 0.85">
      <path d="M719.93,464.94a11.61,11.61,0,0,1-.63,4,9.37,9.37,0,0,1-5.59,5.73,10.28,10.28,0,0,1-4,.64,10.84,10.84,0,0,1-7.2-3.16,10.24,10.24,0,0,1,7.2-17.42,10,10,0,0,1,7.24,3A10.55,10.55,0,0,1,719.93,464.94Zm-.56,0a9.46,9.46,0,0,0-.71-3.71,9.58,9.58,0,0,0-2.12-3.13,10,10,0,0,0-6.85-2.86,9.71,9.71,0,0,0-6.9,16.6,9.28,9.28,0,0,0,6.9,2.68,10.3,10.3,0,0,0,6.62-2.95,10.75,10.75,0,0,0,2.18-3A8.64,8.64,0,0,0,719.37,464.94Z" style="fill: #fff"/>
    </g>
    <g style="opacity: 0.85">
      <path d="M703.08,459.79a7.94,7.94,0,0,1,2.82-2.51,6.07,6.07,0,0,1,1.8-.7,4.77,4.77,0,0,1,1.92,0v.06c-.62.15-1.21.28-1.8.45a15.83,15.83,0,0,0-1.73.56,8.57,8.57,0,0,0-3,2.15Z" style="fill: #fff"/>
    </g>
    <g style="opacity: 0.85">
      <path d="M718,464.94a8.31,8.31,0,0,1-.53,3.23,8.58,8.58,0,0,1-1.77,2.8,7.51,7.51,0,0,1-2.75,1.9,6.72,6.72,0,0,1-3.28.41v-.06a10.93,10.93,0,0,0,3.07-.86,9.94,9.94,0,0,0,2.64-1.7,8.38,8.38,0,0,0,2.57-5.72Z" style="fill: #fff"/>
    </g>
  </g>
  <g>
    <g style="opacity: 0.12">
      <circle cx="1930.69" cy="333.94" r="9.96" style="fill: #fff"/>
    </g>
    <g style="opacity: 0.85">
      <path d="M1940.93,333.94a11.61,11.61,0,0,1-.63,4,9.37,9.37,0,0,1-5.59,5.73,10.28,10.28,0,0,1-4,.64,10.84,10.84,0,0,1-7.2-3.16,10.24,10.24,0,0,1,7.2-17.42,10,10,0,0,1,7.24,3A10.55,10.55,0,0,1,1940.93,333.94Zm-.56,0a9.46,9.46,0,0,0-.71-3.71,9.58,9.58,0,0,0-2.12-3.13,10,10,0,0,0-6.85-2.86,9.71,9.71,0,0,0-6.9,16.6,9.28,9.28,0,0,0,6.9,2.68,10.3,10.3,0,0,0,6.62-2.95,10.75,10.75,0,0,0,2.18-3A8.64,8.64,0,0,0,1940.37,333.94Z" style="fill: #fff"/>
    </g>
    <g style="opacity: 0.85">
      <path d="M1924.08,328.79a7.94,7.94,0,0,1,2.82-2.51,6.07,6.07,0,0,1,1.8-.7,4.77,4.77,0,0,1,1.92,0v.06c-.62.15-1.21.28-1.8.45a15.83,15.83,0,0,0-1.73.56,8.57,8.57,0,0,0-3,2.15Z" style="fill: #fff"/>
    </g>
    <g style="opacity: 0.85">
      <path d="M1939,333.94a8.31,8.31,0,0,1-.53,3.23,8.58,8.58,0,0,1-1.77,2.8,7.51,7.51,0,0,1-2.75,1.9,6.72,6.72,0,0,1-3.28.41v-.06a10.93,10.93,0,0,0,3.07-.86,9.94,9.94,0,0,0,2.64-1.7,8.38,8.38,0,0,0,2.57-5.72Z" style="fill: #fff"/>
    </g>
  </g>
  <g>
    <g style="opacity: 0.12">
      <circle cx="1119.69" cy="330.94" r="9.96" style="fill: #fff"/>
    </g>
    <g style="opacity: 0.85">
      <path d="M1129.93,330.94a11.61,11.61,0,0,1-.63,4,9.37,9.37,0,0,1-5.59,5.73,10.28,10.28,0,0,1-4,.64,10.84,10.84,0,0,1-7.2-3.16,10.24,10.24,0,0,1,7.2-17.42,10,10,0,0,1,7.24,3A10.55,10.55,0,0,1,1129.93,330.94Zm-.56,0a9.46,9.46,0,0,0-.71-3.71,9.58,9.58,0,0,0-2.12-3.13,10,10,0,0,0-6.85-2.86,9.71,9.71,0,0,0-6.9,16.6,9.28,9.28,0,0,0,6.9,2.68,10.3,10.3,0,0,0,6.62-2.95,10.75,10.75,0,0,0,2.18-3A8.64,8.64,0,0,0,1129.37,330.94Z" style="fill: #fff"/>
    </g>
    <g style="opacity: 0.85">
      <path d="M1113.08,325.79a7.94,7.94,0,0,1,2.82-2.51,6.07,6.07,0,0,1,1.8-.7,4.77,4.77,0,0,1,1.92,0v.06c-.62.15-1.21.28-1.8.45a15.83,15.83,0,0,0-1.73.56,8.57,8.57,0,0,0-3,2.15Z" style="fill: #fff"/>
    </g>
    <g style="opacity: 0.85">
      <path d="M1128,330.94a8.31,8.31,0,0,1-.53,3.23,8.58,8.58,0,0,1-1.77,2.8,7.51,7.51,0,0,1-2.75,1.9,6.72,6.72,0,0,1-3.28.41v-.06a10.93,10.93,0,0,0,3.07-.86,9.94,9.94,0,0,0,2.64-1.7,8.38,8.38,0,0,0,2.57-5.72Z" style="fill: #fff"/>
    </g>
  </g>
  <g>
    <g style="opacity: 0.12">
      <circle cx="1513.67" cy="408.9" r="15.78" style="fill: #fff"/>
    </g>
    <g style="opacity: 0.85">
      <path d="M1529.89,408.9a18.63,18.63,0,0,1-1,6.3,14.8,14.8,0,0,1-8.85,9.09,16.18,16.18,0,0,1-6.37,1,17.1,17.1,0,0,1-11.4-5,16.21,16.21,0,0,1,11.4-27.59,15.82,15.82,0,0,1,11.47,4.72A16.74,16.74,0,0,1,1529.89,408.9Zm-.88,0a14.93,14.93,0,0,0-4.5-10.84,15.72,15.72,0,0,0-10.84-4.52,15.37,15.37,0,0,0-10.92,26.28,14.61,14.61,0,0,0,10.92,4.24,16.25,16.25,0,0,0,10.48-4.67,16.65,16.65,0,0,0,3.45-4.72A13.78,13.78,0,0,0,1529,408.9Z" style="fill: #fff"/>
    </g>
    <g style="opacity: 0.85">
      <path d="M1503.2,400.75a12.73,12.73,0,0,1,4.47-4,9.42,9.42,0,0,1,2.85-1.1,7.64,7.64,0,0,1,3,0v.09c-1,.24-1.93.44-2.85.71a24.26,24.26,0,0,0-2.74.88,13.72,13.72,0,0,0-4.71,3.41Z" style="fill: #fff"/>
    </g>
    <g style="opacity: 0.85">
      <path d="M1526.76,408.9a13.33,13.33,0,0,1-.85,5.11,13.54,13.54,0,0,1-2.8,4.43,11.86,11.86,0,0,1-4.35,3,10.63,10.63,0,0,1-5.19.64V422a17.61,17.61,0,0,0,4.86-1.36,15.25,15.25,0,0,0,4.18-2.69,13.24,13.24,0,0,0,4.06-9.05Z" style="fill: #fff"/>
    </g>
  </g>
  <g>
    <g style="opacity: 0.12">
      <circle cx="75.64" cy="347.85" r="23.01" style="fill: #fff"/>
    </g>
    <g style="opacity: 0.85">
      <path d="M99.28,347.85A26.82,26.82,0,0,1,97.83,357a21.7,21.7,0,0,1-12.9,13.25,23.88,23.88,0,0,1-9.29,1.46A25,25,0,0,1,59,364.47,23.62,23.62,0,0,1,84.7,326a23.29,23.29,0,0,1,7.66,5.15A24.35,24.35,0,0,1,99.28,347.85Zm-1.28,0A21.68,21.68,0,0,0,91.45,332a23,23,0,0,0-15.81-6.59,22.41,22.41,0,0,0-15.92,38.31A21.31,21.31,0,0,0,75.64,370a23.8,23.8,0,0,0,15.29-6.82,24.53,24.53,0,0,0,5-6.88A20,20,0,0,0,98,347.85Z" style="fill: #fff"/>
    </g>
    <g style="opacity: 0.85">
      <path d="M60.37,336a18.62,18.62,0,0,1,6.52-5.81,13.68,13.68,0,0,1,4.16-1.61,11.07,11.07,0,0,1,4.44.07v.13c-1.44.35-2.81.65-4.16,1.05a33.65,33.65,0,0,0-4,1.28,19.81,19.81,0,0,0-6.86,5Z" style="fill: #fff"/>
    </g>
    <g style="opacity: 0.85">
      <path d="M94.72,347.85a19.42,19.42,0,0,1-1.23,7.45,19.85,19.85,0,0,1-4.09,6.46,17.25,17.25,0,0,1-6.34,4.38,15.48,15.48,0,0,1-7.57.94V367a25.15,25.15,0,0,0,7.08-2,22.08,22.08,0,0,0,6.1-3.92,19.26,19.26,0,0,0,5.92-13.19Z" style="fill: #fff"/>
    </g>
  </g>
  <g>
    <path d="M639.3,140.14A58.81,58.81,0,0,1,649.4,125c7.16-8,17.62-22.88,25.67-26.23s12.4-12.89,15.32-20.13,17.25-9.48,30.92-7.22,18.62-4.3,18.62-4.3" style="fill: #679742"/>
    <path d="M654.07,153.18s9.43-14.69,25.13-12.65,15.93-16,26.86-20.53,28.18,5.86,33.55-2.24S733,101.2,742.7,89.25s-2.23-25.76-9.32-19.79S720.78,79,713.7,74.22s-21-.37-21.33,9.76-5.26,12.7-12,15.19S663.28,107,663.86,113.9s-19.31,15.43-24.56,26.24Z" style="fill: #99c663"/>
    <path d="M642.51,143s26.69-16.41,36.43-26.42c13.71-14.09,31.28-26.94,47.12-24.37A70.55,70.55,0,0,0,710.74,99c-7.91,4.83-15.53,12.1-20.84,17.42-10.95,11-37.12,27.49-41.35,31.89Z" style="fill: #e0ecd0"/>
  </g>
  <g>
    <path d="M648.23,148.31a58.76,58.76,0,0,1-4.09-17.74c-.89-10.69-4.55-28.52-1.46-36.67s-.86-17.87-4.12-25,4.94-19,16-27.45S664.18,25,664.18,25" style="fill: #679742"/>
    <path d="M667.85,146.52s-4.22-16.94,8-27-.68-22.55,3.51-33.64S703,69.46,700.8,60s-16.57-6.57-18.61-21.81-20.27-16.07-20.79-6.81-1.7,15.73-10,17.58-14.71,15-7.54,22.21,5.62,12.54,2.85,19.12-6.11,17.8-.66,22.15-2,24.63,2.23,35.87Z" style="fill: #99c663"/>
    <path d="M652.49,147.92s6.38-30.68,5.79-44.63c-.84-19.64,1.88-41.24,14.61-51a70.52,70.52,0,0,0-5.55,15.82c-1.91,9.06-1.86,19.6-1.63,27.11.48,15.51-5.49,45.86-5.19,52Z" style="fill: #e0ecd0"/>
  </g>
  <g>
    <path d="M694.73,124.46a58.73,58.73,0,0,0-13.06-12.7c-8.68-6.3-22-18.65-30.61-20.24s-14.84-10-19.22-16.44-18.86-5.64-31.75-.56S581,74.24,581,74.24" style="fill: #679742"/>
    <path d="M683,140.31s-12.31-12.38-27.23-7.08S636.88,121,625.22,118.82s-26.31,11.66-33.26,4.87,3-17.57-9-27.22-3.25-25.66,4.94-21.31,14.34,6.69,20.24.51,20.49-4.79,22.91,5S638.85,92,645.91,93.06s18.39,4,19.29,10.91,22.12,11,29.53,20.49Z" style="fill: #99c663"/>
    <path d="M692.19,127.9S662.64,117.47,651,109.73c-16.38-10.89-36.26-19.75-51.2-13.9a70.83,70.83,0,0,1,16.42,3.44c8.74,3.06,17.72,8.56,24,12.65,13,8.44,42.08,19,47.14,22.47Z" style="fill: #e0ecd0"/>
  </g>
  <g>
    <path d="M1548.85,15.89a5.92,5.92,0,0,0,.82,2.9q1.36,2.09,4.8,2.09a8.08,8.08,0,0,0,2.81-.46,3.21,3.21,0,0,0,2.45-3.17,2.77,2.77,0,0,0-1-2.45,10.38,10.38,0,0,0-3.29-1.24l-2.76-.64a12.37,12.37,0,0,1-3.82-1.39,4.45,4.45,0,0,1-1.94-3.93A6.14,6.14,0,0,1,1548.79,3a7.51,7.51,0,0,1,5.39-1.81,9.17,9.17,0,0,1,5.46,1.59q2.25,1.59,2.25,5.1h-2.67a5.4,5.4,0,0,0-.88-2.59q-1.24-1.65-4.23-1.65a4.78,4.78,0,0,0-3.47,1.06,3.37,3.37,0,0,0-1.06,2.46,2.43,2.43,0,0,0,1.25,2.26,17.12,17.12,0,0,0,3.7,1.14l2.85.68a8.58,8.58,0,0,1,3.19,1.32,5.07,5.07,0,0,1,1.94,4.28,5.38,5.38,0,0,1-2.48,5,10.88,10.88,0,0,1-5.75,1.5,8.47,8.47,0,0,1-6-2,6.84,6.84,0,0,1-2.12-5.39Z" style="fill: #fff"/>
    <path d="M1581.79,1.66V4.17h-7.08V22.66h-2.87V4.17h-7.08V1.66Z" style="fill: #fff"/>
    <path d="M1601.19,4.67a11.58,11.58,0,0,1,2.09,7.13,12.49,12.49,0,0,1-2.39,7.82,9.47,9.47,0,0,1-8,3.66,9.57,9.57,0,0,1-7.62-3.2,12.09,12.09,0,0,1-2.47-7.81A12.41,12.41,0,0,1,1584.92,5a9.17,9.17,0,0,1,8-3.89Q1598.52,1.09,1601.19,4.67Zm-2.51,13.38a11.47,11.47,0,0,0,1.68-6.2,8.88,8.88,0,0,0-1.94-6,6.61,6.61,0,0,0-5.29-2.26,6.9,6.9,0,0,0-5.32,2.24q-2.05,2.25-2.06,6.61a9.63,9.63,0,0,0,1.77,5.88q1.76,2.4,5.72,2.4A5.92,5.92,0,0,0,1598.68,18.05Z" style="fill: #fff"/>
    <path d="M1606.94,1.66h9.39a6.38,6.38,0,0,1,4.5,1.58,5.77,5.77,0,0,1,1.72,4.44A6.44,6.44,0,0,1,1621,12a5.76,5.76,0,0,1-4.68,1.83h-6.56v8.87h-2.84Zm11,2.89a6.22,6.22,0,0,0-2.57-.44h-5.62v7.28h5.62a5.37,5.37,0,0,0,3.09-.82,3.23,3.23,0,0,0,1.18-2.87A3.18,3.18,0,0,0,1618,4.55Z" style="fill: #fff"/>
  </g>
  <g>
    <path d="M1756.77,1.66h3.36l10.47,17v-17h2.71v21h-3.19L1759.49,5.72V22.66h-2.72Z" style="fill: #fff"/>
    <path d="M1778.19,1.66h15.24V4.24H1781v6.37h11.52V13H1781v7.12h12.68v2.5h-15.45Z" style="fill: #fff"/>
    <path d="M1799.21,22.66h-3.42l7.44-10.77-7-10.23h3.55l5.29,8,5.26-8h3.38l-7,10.23,7.31,10.77h-3.52L1805,14Z" style="fill: #fff"/>
    <path d="M1832.24,1.66V4.17h-7.08V22.66h-2.87V4.17h-7.08V1.66Z" style="fill: #fff"/>
  </g>
  <g>
    <path d="M1302,1.66h9.4a6.38,6.38,0,0,1,4.5,1.58,5.76,5.76,0,0,1,1.71,4.44,6.48,6.48,0,0,1-1.52,4.28,5.76,5.76,0,0,1-4.68,1.83h-6.56v8.87H1302Zm11,2.89a6.22,6.22,0,0,0-2.57-.44h-5.62v7.28h5.62a5.37,5.37,0,0,0,3.09-.82,3.23,3.23,0,0,0,1.18-2.87A3.18,3.18,0,0,0,1313,4.55Z" style="fill: #fff"/>
    <path d="M1321.59,1.66h9.55a9.33,9.33,0,0,1,3.89.71,5,5,0,0,1,2.9,5,5.56,5.56,0,0,1-.78,3.08,5.55,5.55,0,0,1-2.18,1.93,4.35,4.35,0,0,1,1.85,1.32,4.67,4.67,0,0,1,.7,2.64l.1,2.82a8.44,8.44,0,0,0,.2,1.79,1.74,1.74,0,0,0,.91,1.28v.47h-3.49a2.51,2.51,0,0,1-.22-.7,12.53,12.53,0,0,1-.15-1.65l-.17-3.51a3,3,0,0,0-1.49-2.76,6.07,6.07,0,0,0-2.48-.38h-6.29v9h-2.85Zm9.24,9.63a5.19,5.19,0,0,0,3.08-.81A3.27,3.27,0,0,0,1335,7.6a3.1,3.1,0,0,0-1.58-3.06,5,5,0,0,0-2.27-.43h-6.75v7.18Z" style="fill: #fff"/>
    <path d="M1342.66,1.66h15.24V4.24h-12.46v6.37H1357V13h-11.52v7.12h12.68v2.5h-15.46Z" style="fill: #fff"/>
    <path d="M1363.58,1.66l6,17.89,6-17.89h3.19l-7.67,21h-3l-7.65-21Z" style="fill: #fff"/>
    <path d="M1382.09,1.66H1385v21h-2.87Z" style="fill: #fff"/>
    <path d="M1406.88,4.67A11.58,11.58,0,0,1,1409,11.8a12.49,12.49,0,0,1-2.38,7.82,9.47,9.47,0,0,1-8,3.66,9.57,9.57,0,0,1-7.62-3.2,12.09,12.09,0,0,1-2.48-7.81A12.42,12.42,0,0,1,1390.61,5a9.17,9.17,0,0,1,8-3.89C1402.35,1.09,1405.09,2.28,1406.88,4.67Zm-2.51,13.38a11.47,11.47,0,0,0,1.68-6.2,8.88,8.88,0,0,0-1.94-6,6.64,6.64,0,0,0-5.3-2.26,6.89,6.89,0,0,0-5.31,2.24c-1.38,1.5-2.06,3.7-2.06,6.61a9.69,9.69,0,0,0,1.76,5.88q1.77,2.4,5.73,2.4A5.92,5.92,0,0,0,1404.37,18.05Z" style="fill: #fff"/>
    <path d="M1415.43,1.66v13a7.56,7.56,0,0,0,.86,3.81,4.55,4.55,0,0,0,4.32,2.28c2.43,0,4.09-.82,5-2.47a7.81,7.81,0,0,0,.71-3.62v-13h2.87v11.8a13.57,13.57,0,0,1-1.05,6q-1.92,3.79-7.26,3.8c-3.55,0-6-1.27-7.24-3.8a13.57,13.57,0,0,1-1-6V1.66Z" style="fill: #fff"/>
    <path d="M1435.35,15.89a5.92,5.92,0,0,0,.82,2.9c.9,1.39,2.51,2.09,4.8,2.09a8.08,8.08,0,0,0,2.81-.46,3.22,3.22,0,0,0,2.45-3.17,2.77,2.77,0,0,0-1-2.45,10.38,10.38,0,0,0-3.29-1.24l-2.76-.64a12.37,12.37,0,0,1-3.82-1.39,4.45,4.45,0,0,1-1.94-3.93A6.14,6.14,0,0,1,1435.29,3a7.51,7.51,0,0,1,5.39-1.81,9.17,9.17,0,0,1,5.46,1.59q2.25,1.59,2.25,5.1h-2.67a5.4,5.4,0,0,0-.88-2.59q-1.24-1.65-4.23-1.65a4.78,4.78,0,0,0-3.47,1.06,3.37,3.37,0,0,0-1.06,2.46,2.43,2.43,0,0,0,1.25,2.26,17.12,17.12,0,0,0,3.7,1.14l2.85.68a8.58,8.58,0,0,1,3.19,1.32,5.07,5.07,0,0,1,1.94,4.28,5.38,5.38,0,0,1-2.48,5,10.88,10.88,0,0,1-5.75,1.5,8.47,8.47,0,0,1-6-2,6.84,6.84,0,0,1-2.12-5.39Z" style="fill: #fff"/>
  </g>
</svg>
