<svg xmlns="http://www.w3.org/2000/svg" viewBox="0 0 620 214.67">
  <title>background-org</title>
  <rect width="620" height="214.67" style="fill: #00bfe7"/>
  <g>
    <g style="opacity: 0.12">
      <circle cx="77.1" cy="122.12" r="10.27" style="fill: #fff"/>
    </g>
    <g style="opacity: 0.85">
      <path d="M87.65,122.12a12,12,0,0,1-.65,4.1,9.67,9.67,0,0,1-5.76,5.92,10.7,10.7,0,0,1-4.14.65,11.13,11.13,0,0,1-7.42-3.25,10.53,10.53,0,1,1,14.88-14.89A10.88,10.88,0,0,1,87.65,122.12Zm-.57,0a9.7,9.7,0,0,0-2.93-7.06,10.23,10.23,0,0,0-7.05-2.94A10,10,0,0,0,70,129.22,9.48,9.48,0,0,0,77.1,132a10.64,10.64,0,0,0,6.82-3.05,10.79,10.79,0,0,0,2.24-3.06A8.87,8.87,0,0,0,87.08,122.12Z" style="fill: #fff"/>
    </g>
    <g style="opacity: 0.85">
      <path d="M70.28,116.81a8.35,8.35,0,0,1,2.91-2.59,6.2,6.2,0,0,1,1.86-.72,5.08,5.08,0,0,1,2,0v.06c-.64.16-1.26.29-1.86.47a16.72,16.72,0,0,0-1.78.57,8.88,8.88,0,0,0-3.06,2.22Z" style="fill: #fff"/>
    </g>
    <g style="opacity: 0.85">
      <path d="M85.61,122.12a8.48,8.48,0,0,1-.55,3.33,8.8,8.8,0,0,1-1.82,2.88,7.75,7.75,0,0,1-2.83,2,7,7,0,0,1-3.38.42v-.06a11.49,11.49,0,0,0,3.16-.89A9.89,9.89,0,0,0,82.91,128a8.59,8.59,0,0,0,2.65-5.89Z" style="fill: #fff"/>
    </g>
  </g>
  <g>
    <g style="opacity: 0.12">
      <circle cx="99.65" cy="114.27" r="5.12" style="fill: #fff"/>
    </g>
    <g style="opacity: 0.85">
      <path d="M104.91,114.27a6,6,0,0,1-.32,2,5,5,0,0,1-1.1,1.79,4.92,4.92,0,0,1-1.77,1.15,5.23,5.23,0,0,1-2.07.33A5.57,5.57,0,0,1,96,118a5.25,5.25,0,0,1,0-7.39A5.32,5.32,0,0,1,99.65,109a5.38,5.38,0,0,1,2,.39,5.14,5.14,0,0,1,1.7,1.14A5.41,5.41,0,0,1,104.91,114.27Zm-.28,0a5,5,0,0,0-.37-1.91,4.89,4.89,0,0,0-1.09-1.6,5.1,5.1,0,0,0-3.52-1.47,5,5,0,0,0-3.53,8.52,4.74,4.74,0,0,0,3.53,1.38,5.24,5.24,0,0,0,3.4-1.52,5.49,5.49,0,0,0,1.12-1.53A4.45,4.45,0,0,0,104.63,114.27Z" style="fill: #fff"/>
    </g>
    <g style="opacity: 0.85">
      <path d="M96.26,111.63a4.19,4.19,0,0,1,1.45-1.29,2.8,2.8,0,0,1,.92-.36,2.36,2.36,0,0,1,1,0v0c-.32.08-.62.15-.92.24a7.06,7.06,0,0,0-.89.28,4.49,4.49,0,0,0-1.53,1.11Z" style="fill: #fff"/>
    </g>
    <g style="opacity: 0.85">
      <path d="M103.9,114.27a4.3,4.3,0,0,1-1.19,3.1,3.8,3.8,0,0,1-1.4,1,3.5,3.5,0,0,1-1.69.21v0a5.86,5.86,0,0,0,1.58-.44,4.62,4.62,0,0,0,1.35-.88,4.26,4.26,0,0,0,1.32-2.93Z" style="fill: #fff"/>
    </g>
  </g>
  <g>
    <g style="opacity: 0.12">
      <circle cx="102.98" cy="150.42" r="7.85" style="fill: #fff"/>
    </g>
    <g style="opacity: 0.85">
      <path d="M111.05,150.42a9.14,9.14,0,0,1-.5,3.14,7.48,7.48,0,0,1-1.69,2.75,7.63,7.63,0,0,1-2.71,1.77,8,8,0,0,1-3.17.5,8.5,8.5,0,0,1-5.67-2.49,8,8,0,0,1,0-11.33,8,8,0,0,1,11.38,0A8.36,8.36,0,0,1,111.05,150.42Zm-.44,0a7.38,7.38,0,0,0-.56-2.93,7.53,7.53,0,0,0-1.68-2.46,7.79,7.79,0,0,0-5.39-2.25,7.64,7.64,0,0,0-5.43,13.07A7.24,7.24,0,0,0,103,158a8.15,8.15,0,0,0,5.22-2.33,8.5,8.5,0,0,0,1.71-2.35A6.75,6.75,0,0,0,110.61,150.42Z" style="fill: #fff"/>
    </g>
    <g style="opacity: 0.85">
      <path d="M97.77,146.36a6.42,6.42,0,0,1,2.22-2,4.92,4.92,0,0,1,1.42-.55,3.89,3.89,0,0,1,1.52,0v0c-.49.12-1,.22-1.42.36a12.64,12.64,0,0,0-1.36.43,7,7,0,0,0-2.35,1.7Z" style="fill: #fff"/>
    </g>
    <g style="opacity: 0.85">
      <path d="M109.49,150.42a6.57,6.57,0,0,1-.42,2.55,6.65,6.65,0,0,1-1.4,2.2,5.92,5.92,0,0,1-2.16,1.5,5.3,5.3,0,0,1-2.58.32v-.05a8.62,8.62,0,0,0,2.42-.68,7.4,7.4,0,0,0,2.08-1.34,6.56,6.56,0,0,0,2-4.5Z" style="fill: #fff"/>
    </g>
  </g>
  <g>
    <g style="opacity: 0.12">
      <circle cx="77.19" cy="161.05" r="4.84" style="fill: #fff"/>
    </g>
    <g style="opacity: 0.85">
      <path d="M82.17,161.05a5.57,5.57,0,0,1-.31,1.93,4.6,4.6,0,0,1-2.71,2.79,5.06,5.06,0,0,1-2,.3,5.24,5.24,0,0,1-3.49-1.53,5,5,0,0,1,3.49-8.46,5.18,5.18,0,0,1,1.91.36,4.93,4.93,0,0,1,1.61,1.09A5.09,5.09,0,0,1,82.17,161.05Zm-.27,0a4.58,4.58,0,0,0-1.38-3.33,4.82,4.82,0,0,0-3.33-1.38,4.68,4.68,0,0,0-3.35,1.35,4.8,4.8,0,0,0-1.39,3.36,4.7,4.7,0,0,0,1.4,3.34,4.44,4.44,0,0,0,3.34,1.31,5,5,0,0,0,3.22-1.44,5.07,5.07,0,0,0,1.06-1.44A4.35,4.35,0,0,0,81.9,161.05Z" style="fill: #fff"/>
    </g>
    <g style="opacity: 0.85">
      <path d="M74,158.55a4,4,0,0,1,1.37-1.23,3.12,3.12,0,0,1,.88-.33,2.24,2.24,0,0,1,.93,0v0c-.3.07-.59.13-.87.22a6.32,6.32,0,0,0-.84.27,4.22,4.22,0,0,0-1.45,1Z" style="fill: #fff"/>
    </g>
    <g style="opacity: 0.85">
      <path d="M81.21,161.05A4,4,0,0,1,80.09,164a3.64,3.64,0,0,1-1.33.93,3.25,3.25,0,0,1-1.6.19v0a5.57,5.57,0,0,0,1.49-.42,4.52,4.52,0,0,0,1.29-.83,4,4,0,0,0,1.24-2.77Z" style="fill: #fff"/>
    </g>
  </g>
  <g>
    <g style="opacity: 0.12">
      <circle cx="96.25" cy="133.45" r="4.03" style="fill: #fff"/>
    </g>
    <g style="opacity: 0.85">
      <path d="M100.39,133.45a4.67,4.67,0,0,1-.25,1.61,4,4,0,0,1-.87,1.42,3.9,3.9,0,0,1-1.39.91,4.18,4.18,0,0,1-1.63.25,4.4,4.4,0,0,1-2.92-1.27,4.13,4.13,0,0,1,0-5.83,4.1,4.1,0,0,1,4.49-.92,3.86,3.86,0,0,1,1.35.9A4.28,4.28,0,0,1,100.39,133.45Zm-.22,0a3.85,3.85,0,0,0-.29-1.5,4,4,0,0,0-.86-1.27,4,4,0,0,0-2.77-1.16,3.93,3.93,0,0,0-2.8,6.72,3.75,3.75,0,0,0,2.8,1.09,4.18,4.18,0,0,0,2.68-1.2,4.38,4.38,0,0,0,.88-1.2A3.58,3.58,0,0,0,100.17,133.45Z" style="fill: #fff"/>
    </g>
    <g style="opacity: 0.85">
      <path d="M93.57,131.37a3.2,3.2,0,0,1,1.14-1,2.4,2.4,0,0,1,.73-.28,1.86,1.86,0,0,1,.78,0v0l-.73.19a6.28,6.28,0,0,0-.7.22,3.43,3.43,0,0,0-1.2.87Z" style="fill: #fff"/>
    </g>
    <g style="opacity: 0.85">
      <path d="M99.59,133.45a3.46,3.46,0,0,1-.21,1.31,3.63,3.63,0,0,1-.72,1.13,3,3,0,0,1-1.11.77,2.77,2.77,0,0,1-1.33.17v0a4.31,4.31,0,0,0,1.24-.35,3.74,3.74,0,0,0,1.07-.68,3.4,3.4,0,0,0,1-2.32Z" style="fill: #fff"/>
    </g>
  </g>
  <g>
    <g style="opacity: 0.12">
      <circle cx="81.22" cy="144.18" r="2.44" style="fill: #fff"/>
    </g>
    <g style="opacity: 0.85">
      <path d="M83.72,144.18a2.74,2.74,0,0,1-.16,1A2.27,2.27,0,0,1,83,146a2.36,2.36,0,0,1-.84.55,2.55,2.55,0,0,1-1,.16,2.61,2.61,0,0,1-1.76-.78,2.5,2.5,0,0,1,1.76-4.25,2.31,2.31,0,0,1,1,.18,2.49,2.49,0,0,1,1.54,2.32Zm-.14,0a2.34,2.34,0,0,0-.17-.91,2.38,2.38,0,0,0-.52-.77,2.48,2.48,0,0,0-1.67-.7,2.38,2.38,0,0,0-1.69,4.06,2.27,2.27,0,0,0,1.69.66,2.48,2.48,0,0,0,1.61-.73,2.72,2.72,0,0,0,.54-.72A2.11,2.11,0,0,0,83.58,144.18Z" style="fill: #fff"/>
    </g>
    <g style="opacity: 0.85">
      <path d="M79.6,142.92a1.88,1.88,0,0,1,.69-.62,1.67,1.67,0,0,1,.44-.17,1.06,1.06,0,0,1,.47,0h0l-.44.11c-.14.05-.29.08-.42.14a2.12,2.12,0,0,0-.73.52Z" style="fill: #fff"/>
    </g>
    <g style="opacity: 0.85">
      <path d="M83.24,144.18a2.32,2.32,0,0,1-.13.78,2.08,2.08,0,0,1-.44.69,1.64,1.64,0,0,1-.67.46,1.56,1.56,0,0,1-.8.1h0A3.08,3.08,0,0,0,82,146a2.49,2.49,0,0,0,.65-.42,2,2,0,0,0,.62-1.39Z" style="fill: #fff"/>
    </g>
  </g>
  <g>
    <g style="opacity: 0.12">
      <circle cx="80.39" cy="173.62" r="1.89" style="fill: #fff"/>
    </g>
    <g style="opacity: 0.85">
      <path d="M82.33,173.62a2.4,2.4,0,0,1-.12.75,1.82,1.82,0,0,1-1.06,1.09,2,2,0,0,1-.76.12A2,2,0,0,1,79,175a1.93,1.93,0,0,1,0-2.72,2,2,0,0,1,1.36-.58,1.88,1.88,0,0,1,.74.15,1.79,1.79,0,0,1,.63.42A2,2,0,0,1,82.33,173.62Zm-.11,0a1.85,1.85,0,0,0-.13-.7,1.91,1.91,0,0,0-.4-.6,2,2,0,0,0-1.3-.54,1.83,1.83,0,0,0-1.85,1.84,1.82,1.82,0,0,0,.55,1.3,1.72,1.72,0,0,0,1.3.51,1.88,1.88,0,0,0,1.25-.56,2.11,2.11,0,0,0,.42-.56A1.62,1.62,0,0,0,82.22,173.62Z" style="fill: #fff"/>
    </g>
    <g style="opacity: 0.85">
      <path d="M79.14,172.65a1.44,1.44,0,0,1,.53-.48A1.09,1.09,0,0,1,80,172a.92.92,0,0,1,.37,0h0l-.34.09-.33.1a1.88,1.88,0,0,0-.56.41Z" style="fill: #fff"/>
    </g>
    <g style="opacity: 0.85">
      <path d="M82,173.62a1.4,1.4,0,0,1-.1.61,1.53,1.53,0,0,1-.33.53,1.57,1.57,0,0,1-.52.36,1.48,1.48,0,0,1-.62.08h0A1.94,1.94,0,0,0,81,175a1.77,1.77,0,0,0,.5-.32,1.55,1.55,0,0,0,.48-1.08Z" style="fill: #fff"/>
    </g>
  </g>
  <g>
    <g style="opacity: 0.12">
      <circle cx="89.21" cy="158.4" r="2.52" style="fill: #fff"/>
    </g>
    <g style="opacity: 0.85">
      <path d="M91.8,158.4a2.86,2.86,0,0,1-.15,1,2.4,2.4,0,0,1-1.42,1.46,2.7,2.7,0,0,1-2.84-.64,2.58,2.58,0,0,1,0-3.64,2.58,2.58,0,0,1,1.82-.77,2.47,2.47,0,0,1,1,.19,2.63,2.63,0,0,1,.84.56A2.69,2.69,0,0,1,91.8,158.4Zm-.14,0a2.13,2.13,0,0,0-.18-.94,2.54,2.54,0,0,0-.53-.8,2.51,2.51,0,0,0-1.74-.72,2.45,2.45,0,0,0-1.74,4.2,2.28,2.28,0,0,0,1.74.68,2.63,2.63,0,0,0,1.68-.75,2.74,2.74,0,0,0,.55-.75A2.08,2.08,0,0,0,91.66,158.4Z" style="fill: #fff"/>
    </g>
    <g style="opacity: 0.85">
      <path d="M87.54,157.09a2.09,2.09,0,0,1,.71-.64,2,2,0,0,1,.46-.17,1.11,1.11,0,0,1,.48,0h0l-.45.12a2.25,2.25,0,0,0-.44.14,2.21,2.21,0,0,0-.75.54Z" style="fill: #fff"/>
    </g>
    <g style="opacity: 0.85">
      <path d="M91.3,158.4a2.06,2.06,0,0,1-.58,1.52,1.83,1.83,0,0,1-.69.48,1.86,1.86,0,0,1-.84.11v0a2.81,2.81,0,0,0,.78-.22,2.26,2.26,0,0,0,.67-.43,2.1,2.1,0,0,0,.65-1.44Z" style="fill: #fff"/>
    </g>
  </g>
  <g>
    <g style="opacity: 0.12">
      <circle cx="94.42" cy="169.57" r="3.9" style="fill: #fff"/>
    </g>
    <g style="opacity: 0.85">
      <path d="M98.43,169.57a4.59,4.59,0,0,1-.24,1.56A3.66,3.66,0,0,1,96,173.38a4.09,4.09,0,0,1-1.58.25,4.23,4.23,0,0,1-2.82-1.24,4,4,0,0,1,2.82-6.82,4.09,4.09,0,0,1,1.54.29,3.94,3.94,0,0,1,1.3.88A4.11,4.11,0,0,1,98.43,169.57Zm-.21,0a3.76,3.76,0,0,0-1.12-2.68,3.88,3.88,0,0,0-2.68-1.12,3.81,3.81,0,0,0-2.7,1.1,3.81,3.81,0,0,0,0,5.4,3.57,3.57,0,0,0,2.7,1A4,4,0,0,0,97,172.17a4.12,4.12,0,0,0,.86-1.17A3.5,3.5,0,0,0,98.22,169.57Z" style="fill: #fff"/>
    </g>
    <g style="opacity: 0.85">
      <path d="M91.83,167.56a3.12,3.12,0,0,1,1.11-1,2.21,2.21,0,0,1,.7-.27,1.94,1.94,0,0,1,.76,0v0c-.25.06-.48.11-.71.18a5.39,5.39,0,0,0-.68.22,3.52,3.52,0,0,0-1.16.84Z" style="fill: #fff"/>
    </g>
    <g style="opacity: 0.85">
      <path d="M97.66,169.57a3.46,3.46,0,0,1-.21,1.27,3.36,3.36,0,0,1-.69,1.09,3,3,0,0,1-1.08.75,2.69,2.69,0,0,1-1.28.16v0a4.46,4.46,0,0,0,1.2-.34,3.65,3.65,0,0,0,1-.67,3.29,3.29,0,0,0,1-2.24Z" style="fill: #fff"/>
    </g>
  </g>
  <g>
    <g style="opacity: 0.12">
      <circle cx="285.04" cy="170.88" r="10.27" style="fill: #fff"/>
    </g>
    <g style="opacity: 0.85">
      <path d="M295.6,170.88A12.26,12.26,0,0,1,295,175a9.9,9.9,0,0,1-2.21,3.59,9.64,9.64,0,0,1-3.55,2.32,10.35,10.35,0,0,1-4.15.65,11.11,11.11,0,0,1-7.42-3.25,10.55,10.55,0,0,1,11.47-17.18,10.41,10.41,0,0,1,3.42,2.3A10.91,10.91,0,0,1,295.6,170.88Zm-.57,0a9.7,9.7,0,0,0-2.93-7.06,10.25,10.25,0,0,0-7.06-2.94,10,10,0,0,0-7.1,17.1,9.55,9.55,0,0,0,7.1,2.77,10.64,10.64,0,0,0,6.83-3.05,10.89,10.89,0,0,0,2.24-3.07A8.94,8.94,0,0,0,295,170.88Z" style="fill: #fff"/>
    </g>
    <g style="opacity: 0.85">
      <path d="M278.23,165.57a8.25,8.25,0,0,1,2.91-2.59,5.89,5.89,0,0,1,1.85-.72,4.89,4.89,0,0,1,2,0v.06c-.64.16-1.25.29-1.85.47a14.17,14.17,0,0,0-1.78.57,9,9,0,0,0-3.07,2.21Z" style="fill: #fff"/>
    </g>
    <g style="opacity: 0.85">
      <path d="M293.56,170.88a8.59,8.59,0,0,1-.55,3.32,8.7,8.7,0,0,1-1.83,2.89,7.69,7.69,0,0,1-2.82,1.95,6.91,6.91,0,0,1-3.39.42v-.05a11.55,11.55,0,0,0,3.17-.89,10.07,10.07,0,0,0,2.72-1.76,8.57,8.57,0,0,0,2.64-5.88Z" style="fill: #fff"/>
    </g>
  </g>
  <g>
    <g style="opacity: 0.12">
      <circle cx="292.7" cy="114.9" r="5.12" style="fill: #fff"/>
    </g>
    <g style="opacity: 0.85">
      <path d="M298,114.9a6,6,0,0,1-.32,2,4.84,4.84,0,0,1-2.87,3,5.44,5.44,0,0,1-2.07.32,5.52,5.52,0,0,1-3.69-1.62,5.25,5.25,0,0,1,3.69-8.94,5.18,5.18,0,0,1,2,.38,5.32,5.32,0,0,1,1.7,1.15A5.39,5.39,0,0,1,298,114.9Zm-.29,0a4.81,4.81,0,0,0-.36-1.91,5.21,5.21,0,0,0-1.09-1.61,5.14,5.14,0,0,0-3.52-1.46,5,5,0,0,0-3.54,1.43,5,5,0,0,0-1.47,3.55,5,5,0,0,0,1.47,3.53,4.69,4.69,0,0,0,3.54,1.38,5.28,5.28,0,0,0,3.4-1.51,5.49,5.49,0,0,0,1.12-1.53A4.47,4.47,0,0,0,297.67,114.9Z" style="fill: #fff"/>
    </g>
    <g style="opacity: 0.85">
      <path d="M289.31,112.25a4,4,0,0,1,1.45-1.29,3.33,3.33,0,0,1,.92-.36,2.54,2.54,0,0,1,1,0v0c-.32.08-.63.14-.93.23a9,9,0,0,0-.88.28,4.52,4.52,0,0,0-1.53,1.11Z" style="fill: #fff"/>
    </g>
    <g style="opacity: 0.85">
      <path d="M296.94,114.9a4.24,4.24,0,0,1-.27,1.65,4.29,4.29,0,0,1-.91,1.44,3.83,3.83,0,0,1-1.41,1,3.35,3.35,0,0,1-1.68.21v0a5.24,5.24,0,0,0,1.57-.44,5,5,0,0,0,1.36-.87,4.29,4.29,0,0,0,1.32-2.93Z" style="fill: #fff"/>
    </g>
  </g>
  <g>
    <g style="opacity: 0.12">
      <circle cx="302.51" cy="147.25" r="7.85" style="fill: #fff"/>
    </g>
    <g style="opacity: 0.85">
      <path d="M310.58,147.25a8.9,8.9,0,0,1-.5,3.14,7.32,7.32,0,0,1-4.4,4.52,8,8,0,0,1-3.17.5,8.5,8.5,0,0,1-5.67-2.49,8.07,8.07,0,0,1,5.67-13.73,8.21,8.21,0,0,1,3.1.59,8.12,8.12,0,0,1,2.61,1.76A8.36,8.36,0,0,1,310.58,147.25Zm-.43,0a7.57,7.57,0,0,0-.57-2.93,7.66,7.66,0,0,0-1.67-2.46,7.79,7.79,0,0,0-5.4-2.25,7.64,7.64,0,0,0-5.43,13.07,7.27,7.27,0,0,0,5.43,2.12,8.15,8.15,0,0,0,5.22-2.33,8.53,8.53,0,0,0,1.72-2.35A6.9,6.9,0,0,0,310.15,147.25Z" style="fill: #fff"/>
    </g>
    <g style="opacity: 0.85">
      <path d="M297.3,143.19a6.45,6.45,0,0,1,2.23-2,4.71,4.71,0,0,1,1.42-.55,3.84,3.84,0,0,1,1.51,0v0c-.49.12-1,.22-1.42.36a13.39,13.39,0,0,0-1.36.43,6.87,6.87,0,0,0-2.34,1.7Z" style="fill: #fff"/>
    </g>
    <g style="opacity: 0.85">
      <path d="M309,147.25a6.59,6.59,0,0,1-1.82,4.75,5.92,5.92,0,0,1-2.16,1.5,5.48,5.48,0,0,1-2.59.32v0a8.52,8.52,0,0,0,2.42-.68,7.4,7.4,0,0,0,2.08-1.34,6.58,6.58,0,0,0,2-4.5Z" style="fill: #fff"/>
    </g>
  </g>
  <g>
    <g style="opacity: 0.12">
      <circle cx="279.67" cy="96.17" r="4.84" style="fill: #fff"/>
    </g>
    <g style="opacity: 0.85">
      <path d="M284.64,96.17a5.54,5.54,0,0,1-.31,1.93,4.47,4.47,0,0,1-1,1.7,4.57,4.57,0,0,1-1.67,1.09,5,5,0,0,1-1.95.31,5.24,5.24,0,0,1-3.5-1.53,5,5,0,0,1-1.44-3.5,4.93,4.93,0,0,1,1.45-3.49,4.92,4.92,0,0,1,5.39-1.11,4.91,4.91,0,0,1,1.61,1.08A5.11,5.11,0,0,1,284.64,96.17Zm-.27,0a4.65,4.65,0,0,0-.35-1.8,4.8,4.8,0,0,0-1-1.53,4.86,4.86,0,0,0-3.32-1.38,4.71,4.71,0,0,0-3.35,8.06,4.48,4.48,0,0,0,3.35,1.3,5.18,5.18,0,0,0,4.27-2.88A4.12,4.12,0,0,0,284.37,96.17Z" style="fill: #fff"/>
    </g>
    <g style="opacity: 0.85">
      <path d="M276.46,93.67a3.84,3.84,0,0,1,1.37-1.22,2.72,2.72,0,0,1,.87-.34,2.42,2.42,0,0,1,.93,0v0l-.87.22a8.21,8.21,0,0,0-.84.27,4.12,4.12,0,0,0-1.44,1Z" style="fill: #fff"/>
    </g>
    <g style="opacity: 0.85">
      <path d="M283.68,96.17a4,4,0,0,1-.26,1.57,4.24,4.24,0,0,1-.86,1.36,3.62,3.62,0,0,1-1.33.92,3.38,3.38,0,0,1-1.6.2v0a5.38,5.38,0,0,0,1.5-.42,4.61,4.61,0,0,0,1.28-.83,4,4,0,0,0,1.24-2.77Z" style="fill: #fff"/>
    </g>
  </g>
  <g>
    <g style="opacity: 0.12">
      <circle cx="286.6" cy="130.12" r="4.03" style="fill: #fff"/>
    </g>
    <g style="opacity: 0.85">
      <path d="M290.75,130.12a4.94,4.94,0,0,1-.26,1.61,3.82,3.82,0,0,1-.87,1.42,3.9,3.9,0,0,1-1.39.91,4.12,4.12,0,0,1-1.63.25,4.35,4.35,0,0,1-2.91-1.27A4.15,4.15,0,0,1,286.6,126a4.32,4.32,0,0,1,1.59.3,4.08,4.08,0,0,1,1.34.91A4.23,4.23,0,0,1,290.75,130.12Zm-.23,0a3.85,3.85,0,0,0-.29-1.5,3.81,3.81,0,0,0-.86-1.27,4,4,0,0,0-2.77-1.16,3.93,3.93,0,0,0-2.79,6.72A3.71,3.71,0,0,0,286.6,134a4.18,4.18,0,0,0,2.68-1.2,4.13,4.13,0,0,0,.88-1.2A3.47,3.47,0,0,0,290.52,130.12Z" style="fill: #fff"/>
    </g>
    <g style="opacity: 0.85">
      <path d="M283.92,128a3.23,3.23,0,0,1,1.15-1,2.42,2.42,0,0,1,.73-.29,2,2,0,0,1,.77,0v0c-.25.06-.49.11-.72.18a5.21,5.21,0,0,0-.7.23,3.46,3.46,0,0,0-1.21.87Z" style="fill: #fff"/>
    </g>
    <g style="opacity: 0.85">
      <path d="M290,130.12a3.35,3.35,0,0,1-.94,2.44,3,3,0,0,1-1.11.77,2.74,2.74,0,0,1-1.33.16v0a4.38,4.38,0,0,0,1.25-.35,3.84,3.84,0,0,0,1.07-.69,3.37,3.37,0,0,0,1-2.31Z" style="fill: #fff"/>
    </g>
  </g>
  <g>
    <g style="opacity: 0.12">
      <circle cx="260.83" cy="146.05" r="2.44" style="fill: #fff"/>
    </g>
    <g style="opacity: 0.85">
      <path d="M263.33,146.05a2.89,2.89,0,0,1-.15,1,2.35,2.35,0,0,1-.53.85,2.16,2.16,0,0,1-.84.55,2.52,2.52,0,0,1-1,.16,2.62,2.62,0,0,1-1.76-.77,2.5,2.5,0,0,1,1.76-4.26,2.68,2.68,0,0,1,1,.18,2.48,2.48,0,0,1,.81.55A2.59,2.59,0,0,1,263.33,146.05Zm-.14,0a2.2,2.2,0,0,0-.17-.91,2.38,2.38,0,0,0-.52-.77,2.42,2.42,0,0,0-1.67-.69,2.37,2.37,0,0,0-1.69.68,2.38,2.38,0,0,0,0,3.37,2.29,2.29,0,0,0,1.69.66,2.59,2.59,0,0,0,2.15-1.45A2.08,2.08,0,0,0,263.19,146.05Z" style="fill: #fff"/>
    </g>
    <g style="opacity: 0.85">
      <path d="M259.21,144.79a2.06,2.06,0,0,1,.69-.62,1.67,1.67,0,0,1,.44-.17,1.48,1.48,0,0,1,.47,0v0a3.15,3.15,0,0,0-.44.11,3.38,3.38,0,0,0-.42.13,2.21,2.21,0,0,0-.73.53Z" style="fill: #fff"/>
    </g>
    <g style="opacity: 0.85">
      <path d="M262.85,146.05a2.12,2.12,0,0,1-.13.79,2.15,2.15,0,0,1-.44.68,1.77,1.77,0,0,1-.67.47,1.67,1.67,0,0,1-.8.09h0a2.6,2.6,0,0,0,.75-.21,2.49,2.49,0,0,0,.65-.42,2,2,0,0,0,.62-1.39Z" style="fill: #fff"/>
    </g>
  </g>
  <g>
    <g style="opacity: 0.12">
      <circle cx="264.77" cy="164.24" r="1.89" style="fill: #fff"/>
    </g>
    <g style="opacity: 0.85">
      <path d="M266.71,164.24a2.2,2.2,0,0,1-.12.76,2,2,0,0,1-.4.66,1.91,1.91,0,0,1-.66.42,2,2,0,0,1-.76.12,2,2,0,0,1-1.36-.59,1.94,1.94,0,0,1,1.36-3.3,1.84,1.84,0,0,1,.74.14,1.93,1.93,0,0,1,.63.42A2,2,0,0,1,266.71,164.24Zm-.1,0a1.86,1.86,0,0,0-.14-.7,1.81,1.81,0,0,0-.4-.59,1.87,1.87,0,0,0-1.3-.54,1.77,1.77,0,0,0-1.3.53,1.82,1.82,0,0,0,0,2.61,1.77,1.77,0,0,0,1.3.51,2,2,0,0,0,1.25-.56,2.16,2.16,0,0,0,.42-.57A1.8,1.8,0,0,0,266.61,164.24Z" style="fill: #fff"/>
    </g>
    <g style="opacity: 0.85">
      <path d="M263.52,163.27a1.56,1.56,0,0,1,.54-.48,1.15,1.15,0,0,1,.34-.13.87.87,0,0,1,.36,0h0l-.34.08c-.11,0-.22.06-.33.11a1.59,1.59,0,0,0-.56.41Z" style="fill: #fff"/>
    </g>
    <g style="opacity: 0.85">
      <path d="M266.34,164.24a1.57,1.57,0,0,1-.11.61,1.39,1.39,0,0,1-.33.53,1.32,1.32,0,0,1-.52.36,1.2,1.2,0,0,1-.62.08h0a2.26,2.26,0,0,0,.58-.16,2.06,2.06,0,0,0,.5-.33,1.6,1.6,0,0,0,.49-1.08Z" style="fill: #fff"/>
    </g>
  </g>
  <g>
    <g style="opacity: 0.12">
      <circle cx="271.48" cy="117.03" r="2.52" style="fill: #fff"/>
    </g>
    <g style="opacity: 0.85">
      <path d="M274.07,117a2.71,2.71,0,0,1-.16,1,2.44,2.44,0,0,1-.54.88,2.48,2.48,0,0,1-.87.57,2.57,2.57,0,0,1-1,.16,2.72,2.72,0,0,1-1.83-.8,2.6,2.6,0,0,1,1.83-4.41,2.57,2.57,0,0,1,1,.19,2.41,2.41,0,0,1,.84.57A2.61,2.61,0,0,1,274.07,117Zm-.14,0a2.53,2.53,0,0,0-.18-.94,2.41,2.41,0,0,0-.54-.79,2.51,2.51,0,0,0-1.73-.72,2.46,2.46,0,0,0-1.75,4.2,2.39,2.39,0,0,0,1.75.68,2.58,2.58,0,0,0,1.67-.75,2.63,2.63,0,0,0,.56-.76A2.08,2.08,0,0,0,273.93,117Z" style="fill: #fff"/>
    </g>
    <g style="opacity: 0.85">
      <path d="M269.8,115.73a2,2,0,0,1,.72-.64,1.46,1.46,0,0,1,.45-.18,1.34,1.34,0,0,1,.49,0v0l-.45.11c-.15,0-.3.08-.44.14a2.24,2.24,0,0,0-.76.55Z" style="fill: #fff"/>
    </g>
    <g style="opacity: 0.85">
      <path d="M273.57,117a2.27,2.27,0,0,1-.13.82,2.51,2.51,0,0,1-.45.71,2,2,0,0,1-.7.48,1.67,1.67,0,0,1-.83.1h0a2.81,2.81,0,0,0,.78-.22,2.64,2.64,0,0,0,.67-.43,2.12,2.12,0,0,0,.65-1.45Z" style="fill: #fff"/>
    </g>
  </g>
  <g>
    <g style="opacity: 0.12">
      <circle cx="276.44" cy="146.04" r="3.9" style="fill: #fff"/>
    </g>
    <g style="opacity: 0.85">
      <path d="M280.45,146a4.43,4.43,0,0,1-.25,1.56,3.55,3.55,0,0,1-.83,1.36,3.92,3.92,0,0,1-1.35.89,4.08,4.08,0,0,1-1.58.24,4.22,4.22,0,0,1-2.82-1.23,4,4,0,0,1,0-5.64,4,4,0,0,1,2.81-1.19,4,4,0,0,1,4,4Zm-.22,0a3.49,3.49,0,0,0-.28-1.46,3.53,3.53,0,0,0-.83-1.22,3.88,3.88,0,0,0-2.68-1.12,3.8,3.8,0,0,0-2.7,6.5,3.61,3.61,0,0,0,2.7,1,4,4,0,0,0,2.59-1.16,3.94,3.94,0,0,0,.86-1.16A3.34,3.34,0,0,0,280.23,146Z" style="fill: #fff"/>
    </g>
    <g style="opacity: 0.85">
      <path d="M273.85,144a3.09,3.09,0,0,1,1.11-1,2.5,2.5,0,0,1,.7-.28,1.89,1.89,0,0,1,.75,0v0l-.7.17c-.23.07-.46.13-.68.22a3.41,3.41,0,0,0-1.16.85Z" style="fill: #fff"/>
    </g>
    <g style="opacity: 0.85">
      <path d="M279.68,146a3.37,3.37,0,0,1-.21,1.26,3.27,3.27,0,0,1-.7,1.1,2.75,2.75,0,0,1-1.07.74,2.59,2.59,0,0,1-1.29.16v0a4.43,4.43,0,0,0,1.21-.34,3.85,3.85,0,0,0,1-.66,3.29,3.29,0,0,0,1-2.24Z" style="fill: #fff"/>
    </g>
  </g>
</svg>
