<svg xmlns="http://www.w3.org/2000/svg" viewBox="0 0 300 481.8">
  <path fill="#fff" d="M249.7 481.8H47.9L13.8 275h270l-34.1 206.8z"/>
  <path fill="#ddd" d="M244.4 200H53.2l-39.4 75h270l-39.4-75z"/>
  <path fill="#282828" d="M30.4 265l28.9-55h179l29 55h-237z"/>
  <path fill="#568933" d="M158.2 161a76.4 76.4 0 0 1-13.3 19.7c-9.4 10.4-23.2 29.8-33.7 34.1S95 231.6 91.1 241.1s-22.6 12.3-40.5 9.3-24.3 5.5-24.3 5.5"/>
  <path fill="#8abf51" d="M139 143.8s-12.5 19.2-33 16.4S85.1 181 70.8 187 34 179.1 27 189.7s8.5 21.7-4.2 37.2 2.8 33.7 12 26 16.6-12.5 25.8-6.2 27.5.6 28-12.6 6.9-16.6 15.6-19.8 22.5-10.1 21.8-19.2 25.3-20 32.2-34.2z"/>
  <path fill="#daeac7" d="M154 157.2s-35 21.3-47.7 34.4c-18 18.3-41 35-61.8 31.6a92.4 92.4 0 0 0 20.1-8.8A154.3 154.3 0 0 0 92 191.7c14.4-14.3 48.7-35.7 54.2-41.5z"/>
  <path fill="#568933" d="M158.6 147a76.6 76.6 0 0 1 11.2 21c4.7 13.2 15.3 34.5 14.1 45.8s7.1 22.3 13.6 30.1.2 25.8-11 40S180 308 180 308"/>
  <path fill="#8abf51" d="M134.4 155.8s11 20-1 36.8 8.4 28.2 6.8 43.6-24.2 28.7-18.3 40 23.1 2.7 30.9 21.2 31 13.5 28.5 1.7-3.1-20.5 6.8-25.6 13.5-24 2-30.6-11.3-14-10-23.2 1.8-24.5-6.6-28.2-5.7-31.8-14.9-44.5z"/>
  <path fill="#daeac7" d="M153.4 148.9s2.2 40.9 7.7 58.3c7.6 24.5 11.5 52.7-1.4 69.3a92.4 92.4 0 0 0 1.8-21.9 157 157 0 0 0-7.1-34.7c-5.8-19.5-8.5-59.8-11-67.4z"/>
  <path fill="#568933" d="M142.7 134.9a76.7 76.7 0 0 1 23.6 3c13.5 3.7 37 7.3 45.6 14.7s22.3 7 32.5 6.2 21.2 14.7 26.5 32 15.9 19.2 15.9 19.2"/>
  <path fill="#8abf51" d="M136 159.8s22.7 2.4 29.5 22 28 9.3 39.7 19.4 9.5 36.4 22.1 38 15.6-17.4 35.2-13 28.8-17.7 17.7-22.5-18.5-9.1-17-20.2-11.8-24.8-23.8-19.3-18 1.3-24.8-5.1-19-15.5-26.9-10.8-29.2-13.6-45-13.4z"/>
  <path fill="#daeac7" d="M141.3 140.3s34.7 21.6 52 27.2c24.6 7.8 49.8 20.9 56 41a92.4 92.4 0 0 0-16.8-14 157.2 157.2 0 0 0-32.6-14.2c-19.2-6.5-53.7-27.5-61.4-29.8z"/>
  <path fill="#568933" d="M139.8 139a76.4 76.4 0 0 1 19.5-13.7c12.5-6.3 32.3-19.5 43.6-19.8s21.3-9.8 28.2-17.2 25.5-3.4 41.1 5.8 24.8 3.5 24.8 3.5"/>
  <path fill="#8abf51" d="M151.6 161.8s18.5-13.4 36.6-3.5 27-11.9 42.5-12.3 31.5 20.5 41.9 13.2-.2-23.3 17.2-33.3 9.5-32.4-2-28.5-19.9 5.7-26.2-3.5S236 83.4 231 95.7s-12.4 13-21.8 12.8-24.5 1.4-27.1 10.1-30.8 9.7-42.3 20.4z"/>
  <path fill="#daeac7" d="M142.4 144s40.3-7.4 56.8-15c23.4-10.7 50.9-18 69-7.4a92.3 92.3 0 0 0-22 1 158 158 0 0 0-33.5 11.4c-18.6 8.2-58.3 15.9-65.5 19.2z"/>
  <path fill="#568933" d="M135.3 158.1a77 77 0 0 1-2.9-23.6c.3-14-2-37.7 3.1-47.9s1.4-23.3-2-33 9-24 24.6-33.5S172.9 0 172.9 0"/>
  <path fill="#8abf51" d="M161 158.4s-3-22.6 14.2-33.9 2.2-29.4 9.2-43.2 32.9-18.2 31.3-30.8-20.6-10.8-21.2-30.9S170.3-4 168.4 7.9s-4.4 20.2-15.5 21.5-21.1 17.6-12.8 27.8 5.6 17.1 1.1 25.3-10.4 22.3-3.9 28.7-6 31.7-2 47z"/>
  <path fill="#daeac7" d="M141 158.2s12.4-39 13.5-57.2c1.6-25.7 8-53.4 26-64.3a92.5 92.5 0 0 0-9.4 19.8 157 157 0 0 0-5.8 35c-1.5 20.2-13.4 58.8-13.8 66.8z"/>
  <g>
    <path fill="#568933" d="M144 172.6a76.4 76.4 0 0 1-22.4-8c-12.4-6.5-34.6-15-41.4-24.2S60 128.8 50 127.4s-17.5-18.8-19-36.9-11.4-22.2-11.4-22.2"/>
    <path fill="#8abf51" d="M155.9 149.8s-21.6-7.3-24-27.9-25.3-15-34.6-27.5-1.5-37.6-13.5-41.8-18.9 13.6-37 5.2-32 11-22.2 18 16 13 12.3 23.5S43 126 56 123.3s17.8 2.6 23 10.3 15.4 19.2 24 16.3 25.7 19.5 41 22.7z"/>
    <path fill="#daeac7" d="M146.6 167.7s-29.3-28.6-45-37.8c-22.3-12.9-44.1-31-46-52a92.8 92.8 0 0 0 13.6 17.3c8.6 8.5 20.3 15.8 28.7 20.8 17.4 10.4 46.6 38.3 53.6 42.3z"/>
  </g>
  <g>
    <path fill="#568933" d="M133.8 154.2a52.6 52.6 0 0 1-9.3-13.4c-4.4-8.6-13.4-22.1-13.6-30s-6.7-14.5-11.8-19.3-2.3-17.4 4-28.1 2.5-17 2.5-17"/>
    <path fill="#8abf51" d="M149.5 146s-9.2-12.6-2.3-25-8.2-18.5-8.5-29.1 14-21.6 9-28.7-16 0-22.7-11.9-22.3-6.5-19.6 1.4 3.9 13.6-2.4 18-7.2 17.4 1.2 21 8.9 8.5 8.8 14.9.9 16.8 6.9 18.6 6.6 21.1 14 29z"/>
    <path fill="#daeac7" d="M137.3 152.4s-5-27.6-10.3-39c-7.3-16-12.3-34.9-5-47.3a63.9 63.9 0 0 0 .8 15c1.4 8.2 5 17 7.7 23 5.6 12.8 10.9 40 13.2 45z"/>
  </g>
  <g>
    <path fill="#568933" d="M144.8 160a52.6 52.6 0 0 1-15.8 4c-9.6 1-25.5 4.4-32.8 1.8s-16 1-22.3 4-17.1-4.2-24.8-14-14.9-8.4-14.9-8.4"/>
    <path fill="#8abf51" d="M143 142.5s-15.1 4-24.2-6.8-20.2.9-30.2-2.7-15-21-23.5-18.9-5.7 15-19.3 17-14.1 18.4-5.8 18.7 14.1 1.3 15.9 8.8 13.6 13 20 6.4 11.1-5.2 17-2.8 16 5.3 19.9.3 22 1.5 32-2.4z"/>
    <path fill="#daeac7" d="M144.4 156.3s-27.5-5.4-40-4.6c-17.5 1-37-1.2-45.8-12.5a63.5 63.5 0 0 0 14.2 4.8c8.1 1.6 17.6 1.4 24.3 1.1 13.9-.6 41.1 4.3 46.6 4z"/>
  </g>
  <g>
    <path fill="#568933" d="M154.7 149.9a52.3 52.3 0 0 1 1 16.3c-.8 9.6-.2 25.8-4.1 32.6s-1.9 15.9 0 22.6-7.2 16.1-18.1 22-11 13-11 13"/>
    <path fill="#8abf51" d="M137.1 148.6s1.2 15.6-11 22.6-2.8 20-8 29.2-23.4 11.1-22.8 19.8 13.6 8.2 13.2 22 15.5 17.2 17.4 9 3.8-13.6 11.4-14 15.2-11 10-18.5-3.2-11.9.3-17.3 8-14.8 3.8-19.5 5.4-21.4 3.3-32z"/>
    <path fill="#daeac7" d="M150.9 149.6s-10.2 26.2-11.7 38.6c-2.1 17.5-7.7 36.2-20.4 42.9a63.1 63.1 0 0 0 7.2-13.2c3-7.7 4.5-17 5.4-23.7 1.9-13.7 11.6-39.7 12.2-45.1z"/>
  </g>
  <g>
    <path fill="#568933" d="M150.2 140.2a52.6 52.6 0 0 1 14.4 7.8c7.6 5.8 21.7 14 25.4 20.8s12.4 10 19.1 12.1 9.8 14.7 9 27 5.2 16.3 5.2 16.3"/>
    <path fill="#8abf51" d="M139.8 154.4s13.8 7.2 13.2 21.4 15.5 13 20.4 22.4-3 25.6 4.7 29.7 14.2-7.2 25.7.5 22.8-4 16.9-9.8-9.5-10.5-5.8-17.2-1.3-18.8-10.4-18.3-11.7-3.7-14.5-9.5-8.3-14.6-14.4-13.6-15.3-16-25.4-19.8z"/>
    <path fill="#daeac7" d="M148 143.3s16.7 22.5 26.4 30.4c13.7 11.1 26.5 25.8 25.5 40.1a63.4 63.4 0 0 0-7.3-13.1c-5-6.7-12-13-17.2-17.2-10.7-9-27.4-31-31.7-34.4z"/>
  </g>
  <g>
    <path fill="#568933" d="M138.8 139.3a52.4 52.4 0 0 1 15-6.5c9.2-2.5 24.3-8.7 32-7.3s15.6-3.7 21.3-7.7 17.5 1.2 26.8 9.6 16 5.8 16 5.8"/>
    <path fill="#8abf51" d="M143.6 156.3s14.2-6.5 25 2.6 19.7-4.2 30.1-2.4 18.4 18.1 26.4 14.6 3-15.6 16.1-20 10.9-20.4 2.6-19.3-14.1 1-17-6-15.8-10.5-20.9-3-10.1 7-16.4 5.6-16.6-2.4-19.5 3-22 2.3-31.2 7.9z"/>
    <path fill="#daeac7" d="M139.8 143s28 .6 40.2-2.2c17.2-4 36.7-5.1 47.3 4.5a63 63 0 0 0-14.8-2.3c-8.3-.2-17.6 1.6-24.1 3-13.6 3-41.3 2.7-46.6 4z"/>
  </g>
  <g>
    <path fill="#568933" d="M136.5 141a52.6 52.6 0 0 1 6-15c4.8-8.3 11.3-23.3 17.7-27.7s8.5-13.6 9.8-20.5 13.3-11.4 25.7-12 15.6-7.2 15.6-7.2"/>
    <path fill="#8abf51" d="M151.8 149.8s5.6-14.6 19.7-15.7 11-17 19.8-23 25.8 0 29-8-8.8-13.4-2.5-25.6S211 55.3 206 61.9s-9.3 10.6-16.4 7.7-18.5 3.6-16.9 12.5-2.3 12.1-7.7 15.5-13.6 10-11.8 16-14 17-16.7 27.5z"/>
    <path fill="#daeac7" d="M139.8 143s20.4-19.3 27-29.9c9.5-14.8 22.5-29.3 36.9-30a63 63 0 0 0-12.2 8.8c-6 5.7-11.4 13.5-15 19.1-7.6 11.7-27.5 31-30.4 35.6z"/>
  </g>
  <path fill="#daeac7" d="M157 154.2c.8 3.2-7.5 4-10 6-.8.6-1-.4-2.2-.2-3.1.9-3.3-.5-4.9-3.4-.6-1-3.7-.8-4-2-.6-2.4-1.9-9.5-.5-11.4 1-1.4 1.5-6.7 8.8-3 1.2.7 3 1 6.5.8 2.3-.1 4 2 5.2 2 2.1-.1.6 9 1.1 11.2z"/>
</svg>
