<svg xmlns="http://www.w3.org/2000/svg" viewBox="0 0 258.08 504.05">
  <title>sla</title>
  <g>
    <path d="M42.49,504.05s-13.1-28.84-16.74-72.54S7.17,315,19.79,281.63s-3.5-73-16.83-102,20.19-77.88,65.25-112.2S107.69,0,107.69,0" style="fill: #568933"/>
    <path d="M122.68,496.73s-17.25-69.25,32.89-110.17-2.76-92.16,14.34-137.49,96.47-67.33,87.46-106-67.72-26.87-76.09-89.16-82.84-65.68-85-27.85-7,64.3-41.09,71.87-60.12,61.5-30.83,90.8S47.4,240,36,266.87s-25,72.76-2.67,90.57-8.31,100.67,9.12,146.61Z" style="fill: #8abf51"/>
    <path d="M59.89,502.46S86,377.05,83.55,320c-3.43-80.31,7.67-168.58,59.74-208.45,0,0-15.37,29.81-22.72,64.67-7.8,37.05-7.58,80.13-6.63,110.83,2,63.4-22.45,187.47-21.23,212.39Z" style="fill: #daeac7"/>
  </g>
</svg>
