<svg xmlns="http://www.w3.org/2000/svg" viewBox="0 0 282.01 309.69">
  <title>crop-in-production-top-part</title>
  <g>
    <g>
      <path d="M140.18,160.94a76.39,76.39,0,0,1-13.27,19.76c-9.4,10.39-23.14,29.81-33.67,34.14S77,231.62,73.11,241.07s-22.59,12.3-40.44,9.29-24.36,5.52-24.36,5.52" style="fill: #568933"/>
      <path d="M121,143.82S108.56,163,88.05,160.23,67.15,181,52.83,186.92,16,179.13,9,189.68s8.52,21.67-4.19,37.24,2.78,33.69,12.07,25.91,16.53-12.42,25.76-6.11,27.49.59,27.92-12.65,6.94-16.57,15.69-19.79S108.68,204.2,108,195.11s25.31-20.06,32.22-34.17Z" style="fill: #8abf51"/>
      <path d="M136,157.22s-35,21.32-47.74,34.35c-18,18.35-41,35.05-61.71,31.62a92.41,92.41,0,0,0,20.06-8.84C57,208.08,67,198.61,73.93,191.68c14.37-14.31,48.66-35.73,54.21-41.46Z" style="fill: #daeac7"/>
    </g>
    <g>
      <path d="M140.64,147a76.6,76.6,0,0,1,11.14,21c4.72,13.2,15.33,34.49,14.17,45.82s7.08,22.28,13.59,30.13.16,25.73-10.94,40S162,308,162,308" style="fill: #568933"/>
      <path d="M116.47,155.8s11,20-1.11,36.75,8.44,28.24,6.88,43.65S98,264.94,103.94,276.14s23.13,2.74,30.84,21.3,31,13.48,28.54,1.61-3.14-20.44,6.78-25.58,13.52-24,2.06-30.59-11.32-13.94-10-23.18,1.73-24.54-6.63-28.2-5.7-31.79-14.87-44.55Z" style="fill: #8abf51"/>
      <path d="M135.39,148.87s2.26,40.89,7.7,58.31c7.66,24.53,11.49,52.72-1.32,69.32a92.4,92.4,0,0,0,1.7-21.85c-.63-12.09-4.24-25.38-7.06-34.79-5.82-19.43-8.48-59.77-10.91-67.37Z" style="fill: #daeac7"/>
    </g>
    <g>
      <path d="M124.72,134.88a76.72,76.72,0,0,1,23.61,3c13.51,3.73,37,7.28,45.64,14.74s22.3,7,32.47,6.2,21.14,14.64,26.47,32S268.8,210,268.8,210" style="fill: #568933"/>
      <path d="M118.07,159.75s22.69,2.46,29.44,22,28,9.33,39.68,19.46,9.57,36.38,22.16,37.94,15.53-17.36,35.15-13,28.85-17.62,17.72-22.42-18.52-9.18-17-20.26-11.83-24.82-23.85-19.26-17.92,1.25-24.74-5.12-19.08-15.52-26.88-10.79-29.3-13.6-45-13.43Z" style="fill: #8abf51"/>
      <path d="M123.27,140.28s34.76,21.66,52.14,27.21c24.48,7.83,49.75,20.89,56,40.92a92.08,92.08,0,0,0-16.9-13.95C204.22,188,191.27,183.35,182,180.25c-19.24-6.41-53.78-27.41-61.4-29.79Z" style="fill: #daeac7"/>
    </g>
    <g>
      <path d="M121.81,139a76.59,76.59,0,0,1,19.48-13.68c12.5-6.34,32.29-19.53,43.68-19.8s21.21-9.83,28.19-17.26,25.5-3.39,41.08,5.83S279,97.62,279,97.62" style="fill: #568933"/>
      <path d="M133.63,161.83s18.44-13.44,36.59-3.52,27-11.9,42.45-12.29,31.56,20.47,41.92,13.15-.19-23.29,17.26-33.27,9.49-32.44-2-28.51-19.89,5.67-26.24-3.53-25.45-10.41-30.6,1.8-12.42,13-21.75,12.85-24.55,1.36-27.14,10.1-30.83,9.65-42.34,20.34Z" style="fill: #8abf51"/>
      <path d="M124.38,143.92s40.29-7.36,56.88-14.95c23.38-10.67,50.86-18,68.94-7.38a92.35,92.35,0,0,0-21.89,1c-11.92,2.15-24.65,7.4-33.63,11.37-18.55,8.21-58.23,15.91-65.47,19.27Z" style="fill: #daeac7"/>
    </g>
    <g>
      <path d="M117.37,158.11a76.54,76.54,0,0,1-2.91-23.63c.3-14-2-37.68,3.1-47.86s1.32-23.34-2-33,9-24.1,24.48-33.51S154.89,0,154.89,0" style="fill: #568933"/>
      <path d="M143.11,158.45s-3.17-22.6,14.13-33.94,2.19-29.39,9.14-43.24,32.92-18.19,31.34-30.79S177.08,39.68,176.5,19.6,152.34-4,150.41,7.91,146.06,28.13,135,29.4,113.78,47,122.12,57.24s5.61,17.06,1.1,25.23-10.36,22.31-3.86,28.71-6,31.74-2,46.93Z" style="fill: #8abf51"/>
      <path d="M123,158.18s12.47-39,13.6-57.22c1.58-25.65,8.05-53.35,25.94-64.29a91.91,91.91,0,0,0-9.38,19.8c-3.72,11.52-5.08,25.23-5.8,35-1.49,20.23-13.38,58.87-13.83,66.83Z" style="fill: #daeac7"/>
    </g>
    <g>
      <path d="M126.08,172.64a76.4,76.4,0,0,1-22.42-8c-12.4-6.54-34.6-15.06-41.41-24.2s-20.28-11.63-30.38-13-17.51-18.85-19-36.9S1.51,68.3,1.51,68.3" style="fill: #568933"/>
      <path d="M137.92,149.78s-21.63-7.28-24-27.83S88.59,106.83,79.33,94.42s-1.54-37.59-13.5-41.81S46.93,66.23,28.7,57.76s-31.95,11-22.12,18.09S22.7,88.79,18.86,99.29,25.08,126.08,38,123.23s17.77,2.63,23,10.32S76.38,152.8,85,149.86s25.69,19.57,41.07,22.78Z" style="fill: #8abf51"/>
      <path d="M128.65,167.68s-29.3-28.62-45.08-37.78C61.35,117,39.48,98.81,37.7,77.92A92.32,92.32,0,0,0,51.21,95.17C59.85,103.65,71.49,111,79.93,116c17.42,10.39,46.64,38.32,53.56,42.28Z" style="fill: #daeac7"/>
    </g>
    <g>
      <path d="M115.87,154.15a52.64,52.64,0,0,1-9.37-13.36c-4.33-8.57-13.36-22.13-13.54-29.94S86.24,96.31,81.15,91.52s-2.31-17.47,4-28.15,2.47-16.94,2.47-16.94" style="fill: #568933"/>
      <path d="M131.55,146.06s-9.2-12.64-2.39-25.08-8.14-18.48-8.4-29.09,14-21.61,9-28.72-16,.12-22.79-11.85-22.22-6.51-19.54,1.34,3.88,13.63-2.43,18-7.15,17.43,1.21,21,8.89,8.51,8.79,14.91S96,123.35,102,125.13s6.59,21.12,13.91,29Z" style="fill: #8abf51"/>
      <path d="M119.27,152.39s-5-27.61-10.2-39c-7.31-16-12.32-34.86-5-47.24a63.24,63.24,0,0,0,.71,15c1.47,8.17,5.06,16.89,7.77,23,5.62,12.71,10.87,39.91,13.17,44.87Z" style="fill: #daeac7"/>
    </g>
    <g>
      <path d="M126.86,160.07A52.65,52.65,0,0,1,111,164c-9.56.94-25.48,4.44-32.82,1.78s-16,1-22.29,4-17.13-4.18-24.79-13.94-14.89-8.43-14.89-8.43" style="fill: #568933"/>
      <path d="M125,142.53s-15.12,4-24.24-6.86-20.18.9-30.17-2.7-15.06-20.92-23.5-18.82S41.42,129.07,27.8,131.1,13.68,149.46,22,149.8s14.11,1.32,15.88,8.78,13.66,13,20,6.46,11.15-5.2,17.08-2.8,16,5.24,19.85.3,22.08,1.5,32.09-2.47Z" style="fill: #8abf51"/>
      <path d="M126.45,156.26s-27.55-5.31-40-4.6c-17.58,1-36.95-1.14-45.85-12.42A63.52,63.52,0,0,0,54.8,144c8.14,1.59,17.57,1.41,24.3,1.1,13.88-.63,41.14,4.32,46.59,4Z" style="fill: #daeac7"/>
    </g>
    <g>
      <path d="M136.71,149.9a52.29,52.29,0,0,1,1,16.28c-.78,9.57-.17,25.86-4.1,32.61s-1.87,15.91,0,22.65-7.17,16.1-18.14,21.9-11,13.15-11,13.15" style="fill: #568933"/>
      <path d="M119.12,148.6s1.23,15.58-11.07,22.62-2.72,20-8,29.2S76.73,211.5,77.29,220.18s13.67,8.25,13.24,22,15.54,17.17,17.36,9.07,3.82-13.64,11.46-14,15.21-11.13,9.93-18.52-3.12-11.9.3-17.3,8-14.83,3.83-19.48,5.42-21.46,3.3-32Z" style="fill: #8abf51"/>
      <path d="M132.89,149.62s-10.15,26.16-11.67,38.57c-2.15,17.48-7.72,36.16-20.41,42.91a63.14,63.14,0,0,0,7.24-13.17c3-7.72,4.52-17,5.42-23.71,1.85-13.77,11.59-39.71,12.22-45.14Z" style="fill: #daeac7"/>
    </g>
    <g>
      <path d="M132.25,140.19A52.56,52.56,0,0,1,146.57,148c7.68,5.76,21.79,13.92,25.41,20.84s12.48,10,19.16,12.08,9.82,14.64,8.88,27,5.3,16.27,5.3,16.27" style="fill: #568933"/>
      <path d="M121.78,154.39s13.85,7.25,13.26,21.42,15.5,12.95,20.43,22.35-3,25.6,4.64,29.75,14.25-7.18,25.67.51,22.82-4,16.93-9.86-9.52-10.5-5.8-17.19-1.32-18.8-10.38-18.26-11.74-3.69-14.49-9.47S163.75,159,157.59,160s-15.28-16-25.34-19.84Z" style="fill: #8abf51"/>
      <path d="M130,143.27s16.74,22.52,26.44,30.42c13.65,11.12,26.49,25.79,25.45,40.12a63.39,63.39,0,0,0-7.29-13.13c-4.93-6.67-12-12.9-17.19-17.22-10.67-8.9-27.44-31-31.7-34.38Z" style="fill: #daeac7"/>
    </g>
    <g>
      <path d="M120.79,139.3a52.44,52.44,0,0,1,15-6.51c9.27-2.53,24.37-8.67,32-7.28s15.59-3.68,21.3-7.71,17.58,1.23,26.78,9.56,16.1,5.8,16.1,5.8" style="fill: #568933"/>
      <path d="M125.57,156.28s14.23-6.49,25.05,2.67,19.74-4.28,30.19-2.41,18.37,18.08,26.33,14.59,3.08-15.66,16.16-19.95,10.83-20.48,2.6-19.42-14.13,1.08-17.12-6-15.66-10.49-20.8-3-10.12,7-16.36,5.63S155,126,152,131.47s-22,2.23-31.21,7.83Z" style="fill: #8abf51"/>
      <path d="M121.83,143s28.06.6,40.24-2.2c17.16-4,36.62-5.1,47.29,4.52a63,63,0,0,0-14.84-2.3c-8.29-.2-17.56,1.57-24.14,3-13.57,3-41.28,2.67-46.59,3.93Z" style="fill: #daeac7"/>
    </g>
    <g>
      <path d="M118.5,141.09A52.56,52.56,0,0,1,124.56,126c4.81-8.31,11.24-23.29,17.68-27.71s8.5-13.57,9.73-20.45,13.37-11.48,25.77-12,15.53-7.19,15.53-7.19" style="fill: #568933"/>
      <path d="M133.84,149.81s5.56-14.62,19.69-15.71,11-16.92,19.78-22.93,25.78,0,29-8.13-8.82-13.3-2.53-25.55S193.08,55.31,188,61.85s-9.3,10.69-16.38,7.79-18.51,3.54-16.91,12.47-2.27,12.1-7.68,15.51-13.59,10-11.8,16-14.09,17.07-16.7,27.51Z" style="fill: #8abf51"/>
      <path d="M121.83,143s20.38-19.29,27.07-29.85c9.43-14.88,22.47-29.37,36.82-30a63.16,63.16,0,0,0-12.18,8.79c-6,5.68-11.38,13.46-15,19.1-7.58,11.65-27.49,30.92-30.39,35.55Z" style="fill: #daeac7"/>
    </g>
    <path d="M139.06,154.16c.85,3.25-7.54,4.12-10,6-.83.65-1.08-.41-2.16-.13-3.16.83-3.31-.56-4.94-3.41-.6-1-3.69-.87-4-2-.64-2.43-1.85-9.5-.48-11.39,1.06-1.47,1.49-6.76,8.82-2.95,1.19.61,3,.84,6.46.71,2.32-.09,4.07,2,5.2,1.93C140,142.86,138.5,152,139.06,154.16Z" style="fill: #daeac7"/>
  </g>
</svg>
