<svg xmlns="http://www.w3.org/2000/svg" viewBox="0 0 299.99 481.8">
  <title>crop-in-production</title>
  <g>
    <g>
      <polygon points="253.42 481.8 51.63 481.8 17.51 275.03 287.54 275.03 253.42 481.8" style="fill: #fff"/>
      <polygon points="248.1 199.99 56.95 199.99 17.51 275.03 287.54 275.03 248.1 199.99" style="fill: #ddd"/>
      <polygon points="34.06 265.03 62.99 209.99 242.06 209.99 270.99 265.03 34.06 265.03" style="fill: #282828"/>
    </g>
    <path d="M63.34,496.58V364.84a23.67,23.67,0,0,1,23.59-23.6H214.41A23.67,23.67,0,0,1,238,364.84V496.58" style="fill: none;stroke: #2eacff;stroke-miterlimit: 10;stroke-width: 19px"/>
    <g>
      <polygon points="68.17 426.85 63.34 433.83 58.51 426.85 68.17 426.85" style="fill: #fff"/>
      <polygon points="68.17 415.42 63.34 422.4 58.51 415.42 68.17 415.42" style="fill: #fff"/>
      <polygon points="68.17 403.99 63.34 410.97 58.51 403.99 68.17 403.99" style="fill: #fff"/>
    </g>
    <g>
      <polygon points="144.58 346.07 137.61 341.24 144.58 336.41 144.58 346.07" style="fill: #fff"/>
      <polygon points="156.01 346.07 149.04 341.24 156.01 336.41 156.01 346.07" style="fill: #fff"/>
      <polygon points="167.44 346.07 160.47 341.24 167.44 336.41 167.44 346.07" style="fill: #fff"/>
    </g>
    <g>
      <polygon points="233.17 410.97 238 403.99 242.83 410.97 233.17 410.97" style="fill: #fff"/>
      <polygon points="233.17 422.4 238 415.42 242.83 422.4 233.17 422.4" style="fill: #fff"/>
      <polygon points="233.17 433.83 238 426.85 242.83 433.83 233.17 433.83" style="fill: #fff"/>
    </g>
  </g>
</svg>
