<svg xmlns="http://www.w3.org/2000/svg" viewBox="0 0 63.02 536.56">
  <title>vork</title>
  <g>
    <g>
      <path d="M13.06.31c0-.15,0-.26,0-.31Z" style="fill: silver"/>
      <path d="M48,.31l0-.31C47.94.05,48,.16,48,.31Z" style="fill: silver"/>
      <path d="M49.94,3c.31,6,3.11,96.28,1.62,132.09a4.48,4.48,0,0,1-4.48,4.3h0A4.48,4.48,0,0,1,42.59,135L38.79,4.31,35,135.49a4.48,4.48,0,0,1-9,0l.2-131.18L18.43,135A4.48,4.48,0,0,1,14,139.39h0a4.48,4.48,0,0,1-4.48-4.3C8,99.28,14.77,9,15.08,3,14.59,10.28,0,132.34,0,149v33c-.12,4,.92,7.71,2.12,11.75a20.43,20.43,0,0,0,1.09,3,14.13,14.13,0,0,0,2,3,29.42,29.42,0,0,0,2.93,3c1.11,1,2.33,2,3.48,3s2.35,2,3.38,3a22.6,22.6,0,0,1,2.6,3,12.24,12.24,0,0,1,1.58,3c.33,1,.59,2,.85,3a83.28,83.28,0,0,1,2.27,12.12,100.52,100.52,0,0,1,.5,12.13l-.26,12.13q-.09,6.06.22,12.12l.36,27.86q-.48,21.06-1,42.09-2.2,37.62-5,75.24C14.61,444,12,476.36,8.3,508.69a23.4,23.4,0,0,0,0,5,22.34,22.34,0,0,0,25.5,19.6c12-1.77,20.21-13.11,18.86-25.16C49,476,46.4,443.85,43.89,411.69q-2.82-37.62-5-75.24-.5-21-1-42.09l.36-27.86q.31-6.06.22-12.12l-.26-12.13a100.52,100.52,0,0,1,.5-12.13A83.28,83.28,0,0,1,41,218c.26-1,.52-2,.85-3a12.53,12.53,0,0,1,1.57-3,23.46,23.46,0,0,1,2.61-3c1-1,2.22-2,3.38-3s2.37-2,3.48-3a29.42,29.42,0,0,0,2.93-3,14.13,14.13,0,0,0,2-3,23,23,0,0,0,1.09-3c1.19-4,2.24-7.71,2.12-11.75V149C61,132.34,50.42,10.28,49.94,3Z" style="fill: silver"/>
    </g>
    <g>
      <path d="M15.06,3.31c0-.15,0-.26,0-.31Z" style="fill: #fff"/>
      <path d="M50,3.31l0-.31S50,3.16,50,3.31Z" style="fill: #fff"/>
      <path d="M50,3.31c.31,6,5.09,99,3.6,134.78a4.48,4.48,0,0,1-4.48,4.3h0A4.48,4.48,0,0,1,44.59,138L38.79,4.31,37,138.49a4.48,4.48,0,0,1-9,0L26.23,4.31,20.43,138A4.48,4.48,0,0,1,16,142.39h0a4.48,4.48,0,0,1-4.48-4.3C10,102.28,14.75,9.3,15.06,3.31,14.58,10.59,2,135.34,2,152v33c-.12,4,.92,7.71,2.12,11.75a20.43,20.43,0,0,0,1.09,3,14.13,14.13,0,0,0,2,3,29.42,29.42,0,0,0,2.93,3c1.11,1,2.33,2,3.48,3s2.35,2,3.38,3a23.46,23.46,0,0,1,2.61,3,12.53,12.53,0,0,1,1.57,3c.33,1,.59,2,.85,3a83.28,83.28,0,0,1,2.27,12.12,100.52,100.52,0,0,1,.5,12.13l-.26,12.13q-.09,6.06.22,12.12l.36,27.86q-.48,21.06-1,42.09-2.2,37.62-5,75.24c-2.51,32.34-5.17,64.67-8.82,97a23.4,23.4,0,0,0,0,5,22.34,22.34,0,0,0,25.5,19.6c12-1.77,20.21-13.11,18.86-25.16C51,479,48.4,446.85,45.89,414.69q-2.82-37.62-5-75.24-.5-21-1-42.09l.36-27.86q.31-6.06.22-12.12l-.26-12.13a100.52,100.52,0,0,1,.5-12.13A83.28,83.28,0,0,1,43,221c.26-1,.52-2,.85-3a12.53,12.53,0,0,1,1.57-3,23.46,23.46,0,0,1,2.61-3c1-1,2.22-2,3.38-3s2.37-2,3.48-3a29.42,29.42,0,0,0,2.93-3,14.13,14.13,0,0,0,2-3,23,23,0,0,0,1.09-3c1.19-4,2.24-7.71,2.12-11.75V152C63,135.34,50.44,10.59,50,3.31Z" style="fill: #fff"/>
    </g>
  </g>
</svg>
