<svg xmlns="http://www.w3.org/2000/svg" viewBox="0 0 55.85 533.39">
  <title>mes</title>
  <g>
    <path d="M38.15.21A3.67,3.67,0,0,1,43,3.67V202.36c0,3-.77,13.47-1,14.48A83.28,83.28,0,0,0,39.73,229a100.44,100.44,0,0,0-.5,12.13l.26,12.12q.09,6.06-.22,12.13l-.36,27.86,1,42.09q2.21,37.62,5,75.24c2.52,32.34,5.18,64.67,8.83,97a23.4,23.4,0,0,1,0,5,22.36,22.36,0,0,1-25.5,19.6C16.22,530.37,8,519,9.36,507c3.62-32.15,6.26-64.3,8.76-96.45q2.84-37.62,5-75.24l1-42.09-.36-27.86q-.32-6.06-.22-12.13l.26-12.12a102.53,102.53,0,0,0-.5-12.13A83.28,83.28,0,0,0,21,216.84c-.27-1-.53-2-.85-3a12.58,12.58,0,0,0-1.58-3,22.65,22.65,0,0,0-2.6-3c-1-1-2.22-2-3.38-3s-2.37-2-3.48-3a29.42,29.42,0,0,1-2.93-3,14.13,14.13,0,0,1-2-3,20.43,20.43,0,0,1-1.09-3c-1.2-4-2.24-7.71-2.12-11.75,0,0-1-43.17-1-108.5C0,20.06,26.11,4.39,38.15.21Z" style="fill: silver"/>
    <path d="M40.15,1.21A3.67,3.67,0,0,1,45,4.67V203.36c0,3-.77,13.47-1,14.48A83.28,83.28,0,0,0,41.73,230a100.52,100.52,0,0,0-.5,12.13l.26,12.12q.09,6.07-.22,12.13l-.36,27.86,1,42.09q2.21,37.62,5,75.24c2.52,32.34,5.18,64.67,8.83,97a23.4,23.4,0,0,1,0,5,22.36,22.36,0,0,1-25.5,19.6C18.22,531.37,10,520,11.36,508c3.62-32.15,6.26-64.3,8.76-96.45q2.84-37.62,5-75.24l1-42.09-.36-27.86q-.32-6.06-.22-12.13l.26-12.12a102.62,102.62,0,0,0-.5-12.13A83.28,83.28,0,0,0,23,217.84c-.27-1-.53-2-.85-3a12.58,12.58,0,0,0-1.58-3,24.09,24.09,0,0,0-2.6-3c-1-1-2.22-2-3.38-3s-2.37-2-3.48-3a29.42,29.42,0,0,1-2.93-3,14.59,14.59,0,0,1-2-3,21.57,21.57,0,0,1-1.08-3c-1.2-4-2.24-7.71-2.12-11.75,0,0-1-43.17-1-108.5C2,21.06,28.11,5.39,40.15,1.21Z" style="fill: #fff"/>
  </g>
</svg>
