<svg xmlns="http://www.w3.org/2000/svg" viewBox="0 0 448 448">
  <title>nitrospira</title>
  <circle cx="224" cy="224" r="224"/>
  <g>
    <g>
      <ellipse cx="83.42" cy="153.35" rx="38.25" ry="48.75" style="fill: #60461b"/>
      <path d="M124.16,153.35a64.39,64.39,0,0,1-2.54,17.6,54.39,54.39,0,0,1-7.8,16A42.13,42.13,0,0,1,100.64,199a32.34,32.34,0,0,1-34-.68,42.37,42.37,0,0,1-12.33-12.26,58.81,58.81,0,0,1-9.49-32.74,62.21,62.21,0,0,1,2.31-17,53.54,53.54,0,0,1,7.17-15.7,41.89,41.89,0,0,1,12.32-12.27,33,33,0,0,1,16.84-5.18,33.48,33.48,0,0,1,17.23,4.51,42,42,0,0,1,13.17,12.07,54.39,54.39,0,0,1,7.8,16A64,64,0,0,1,124.16,153.35Zm-5,0A59.4,59.4,0,0,0,117,137.1a51.48,51.48,0,0,0-6.77-14.85,39.34,39.34,0,0,0-11.45-11.43,29.49,29.49,0,0,0-31.08-.67,39.56,39.56,0,0,0-12.29,11.23A51.92,51.92,0,0,0,48,136.56a61.47,61.47,0,0,0-2.44,16.79A60.77,60.77,0,0,0,48,170.15a50.71,50.71,0,0,0,7.39,15.18,39.06,39.06,0,0,0,12.29,11.25,30.62,30.62,0,0,0,15.76,4.09,30.14,30.14,0,0,0,15.34-4.77,39.14,39.14,0,0,0,11.44-11.45A51.36,51.36,0,0,0,117,169.6,59.4,59.4,0,0,0,119.16,153.35Z" style="fill: #ffc596"/>
    </g>
    <g>
      <ellipse cx="134.45" cy="141.95" rx="32.21" ry="53.84" style="fill: #60461b"/>
      <path d="M102.48,142a73.67,73.67,0,0,0,7.16,33.12,44.48,44.48,0,0,0,10,13.46,26.13,26.13,0,0,0,6.92,4.43,19,19,0,0,0,15.65-.22,26.16,26.16,0,0,0,6.69-4.58,43.71,43.71,0,0,0,9.35-13.56,68.19,68.19,0,0,0,5-15.95,85.84,85.84,0,0,0,1.44-16.7c-.17-11.17-2.33-22.42-7.17-32.29a42.89,42.89,0,0,0-9.37-13.06c-3.87-3.56-8.65-5.94-13.67-6s-10,2.14-14,5.61a43.52,43.52,0,0,0-10,13A67.84,67.84,0,0,0,104.5,125a76.84,76.84,0,0,0-1.47,8.4Q102.57,137.66,102.48,142Zm-.5,0a99,99,0,0,1,1.3-17.18A72.05,72.05,0,0,1,108,108a45.88,45.88,0,0,1,9.66-14.89,28.48,28.48,0,0,1,7.55-5.34,23.16,23.16,0,0,1,9.28-2.2,23.46,23.46,0,0,1,9.37,2,29.76,29.76,0,0,1,7.81,5.18A47.1,47.1,0,0,1,162,107.54a72.67,72.67,0,0,1,5.2,16.91,91.24,91.24,0,0,1-.39,34.91A72.18,72.18,0,0,1,161.2,176a46.59,46.59,0,0,1-10.35,14.29,28.83,28.83,0,0,1-7.53,4.91,20.78,20.78,0,0,1-17.64-.23,28.11,28.11,0,0,1-7.29-5.05,45.56,45.56,0,0,1-9.7-14.39,71.91,71.91,0,0,1-5-16.47A96.29,96.29,0,0,1,102,142Z" style="fill: #ffc596"/>
    </g>
    <g>
      <ellipse cx="183.19" cy="135.94" rx="28.47" ry="47.84" style="fill: #60461b"/>
      <path d="M155,135.94A63.19,63.19,0,0,0,162,165a39.4,39.4,0,0,0,8.89,11.42c3.58,3.05,7.9,5,12.26,4.89s8.52-2.15,11.9-5.28a38.89,38.89,0,0,0,8.22-11.52c4.27-8.71,6.18-18.66,6.35-28.54a76.92,76.92,0,0,0-1.24-14.77A60.85,60.85,0,0,0,204.08,107a38.54,38.54,0,0,0-8.2-12A22.87,22.87,0,0,0,190,91a16.43,16.43,0,0,0-13.74-.21,23.27,23.27,0,0,0-6.11,3.91,39.39,39.39,0,0,0-8.86,11.92A64.79,64.79,0,0,0,155,135.94Zm-.5,0a86,86,0,0,1,1.47-15.18,66.82,66.82,0,0,1,4.41-14.63,40.55,40.55,0,0,1,8.54-12.85,24.66,24.66,0,0,1,6.46-4.56,18.49,18.49,0,0,1,15.77-.21,25.79,25.79,0,0,1,6.71,4.4A41.71,41.71,0,0,1,207,105.66a64.42,64.42,0,0,1,4.95,14.8,79.83,79.83,0,0,1,1.69,15.48,80.69,80.69,0,0,1-1.29,15.57,65.39,65.39,0,0,1-4.58,15.08,41.31,41.31,0,0,1-9.17,13.24,26.27,26.27,0,0,1-7,4.67,19.54,19.54,0,0,1-16.77-.22,25.63,25.63,0,0,1-6.74-4.83,40.22,40.22,0,0,1-8.5-13.35,67.71,67.71,0,0,1-4-14.9A88.84,88.84,0,0,1,154.47,135.94Z" style="fill: #ffc596"/>
    </g>
    <g>
      <ellipse cx="231.16" cy="135.94" rx="28.5" ry="47.84" style="fill: #60461b"/>
      <path d="M202.91,135.94a64.76,64.76,0,0,0,6.34,29.38,39.25,39.25,0,0,0,8.87,11.91,23,23,0,0,0,6.11,3.91,16.58,16.58,0,0,0,13.76-.21,22.83,22.83,0,0,0,5.87-4.06,38.67,38.67,0,0,0,8.21-12,60.77,60.77,0,0,0,4.34-14.12,76.35,76.35,0,0,0,1.25-14.79c-.17-9.87-2.09-19.82-6.36-28.54a38.74,38.74,0,0,0-8.23-11.52,18.25,18.25,0,0,0-11.91-5.28c-4.36-.1-8.68,1.85-12.27,4.89a39.35,39.35,0,0,0-8.9,11.43A63.28,63.28,0,0,0,202.91,135.94Zm-.5,0a88.74,88.74,0,0,1,1.11-15.25,66.59,66.59,0,0,1,4-14.91,40,40,0,0,1,8.51-13.34,25.67,25.67,0,0,1,6.74-4.84,19.54,19.54,0,0,1,16.77-.22,26.27,26.27,0,0,1,7,4.67,41.22,41.22,0,0,1,9.19,13.24,64.86,64.86,0,0,1,4.59,15.09,81.62,81.62,0,0,1-.4,31.05,63.65,63.65,0,0,1-5,14.8A41.53,41.53,0,0,1,245.8,179a25.37,25.37,0,0,1-6.71,4.4,18.59,18.59,0,0,1-15.77-.21,24.88,24.88,0,0,1-6.47-4.56,40.54,40.54,0,0,1-8.55-12.84,67.48,67.48,0,0,1-4.42-14.64A86,86,0,0,1,202.41,135.94Z" style="fill: #ffc596"/>
    </g>
    <g>
      <ellipse cx="282.72" cy="135.94" rx="41.06" ry="47.84" style="fill: #60461b"/>
      <path d="M241.91,135.94l.25,4.34c.12,1.45.4,2.87.59,4.3a50.73,50.73,0,0,0,2.27,8.35,48,48,0,0,0,8.67,14.67c7.39,8.58,18.15,13.88,29,13.68s21.26-5.8,28.14-14.39a47.15,47.15,0,0,0,8-14.46,53.86,53.86,0,0,0,2.88-16.49,50.82,50.82,0,0,0-10.26-31.47,40.52,40.52,0,0,0-12.68-10.88,34.85,34.85,0,0,0-32.48-.45,41.62,41.62,0,0,0-13.31,10.64,49,49,0,0,0-8.39,15.06A52.84,52.84,0,0,0,241.91,135.94Zm-.5,0a58.08,58.08,0,0,1,2.79-17.25,50.39,50.39,0,0,1,8-15.56A42.54,42.54,0,0,1,265.5,91.49,36.24,36.24,0,0,1,300.17,91a43.64,43.64,0,0,1,13.89,11.4,54.44,54.44,0,0,1,11.72,33.5,55.2,55.2,0,0,1-11,34,44.36,44.36,0,0,1-14,11.9,37.81,37.81,0,0,1-18,4.4c-1.56-.12-3.11-.21-4.66-.37-1.52-.32-3.06-.55-4.56-.95l-2.21-.71a16.11,16.11,0,0,1-2.17-.81l-2.11-1-1-.48c-.35-.17-.67-.39-1-.58a43.37,43.37,0,0,1-13.37-12.14,51.22,51.22,0,0,1-7.76-16,56.94,56.94,0,0,1-1.85-8.61c-.15-1.46-.38-2.91-.46-4.38Z" style="fill: #ffc596"/>
    </g>
    <g>
      <ellipse cx="155.8" cy="309.34" rx="21.36" ry="39.75" style="fill: #60461b"/>
      <path d="M176.91,309.34a57.5,57.5,0,0,0-4.57-23.8,33.49,33.49,0,0,0-6.56-10c-2.72-2.79-6.29-4.8-10-4.7s-7.08,2.18-9.61,5a32.92,32.92,0,0,0-5.9,10.06,63,63,0,0,0-3.84,23.39,61.33,61.33,0,0,0,4.63,23.08,33.38,33.38,0,0,0,6,9.58c2.46,2.68,5.54,4.54,8.76,4.59s6.49-1.62,9.15-4.23a33.76,33.76,0,0,0,6.63-9.51A55.75,55.75,0,0,0,176.91,309.34Zm.5,0a86.16,86.16,0,0,1-.67,12.32,63.56,63.56,0,0,1-2.68,12.2A34.25,34.25,0,0,1,168,345.19a19.58,19.58,0,0,1-5.22,4.43,14.16,14.16,0,0,1-14.05.21,20.27,20.27,0,0,1-5.49-4.28,35.53,35.53,0,0,1-6.74-11.26,61.33,61.33,0,0,1-3.2-12.35,74,74,0,0,1-.84-12.6,66.59,66.59,0,0,1,4.83-24.62,36,36,0,0,1,6.8-10.78,19.6,19.6,0,0,1,5.22-4,13.79,13.79,0,0,1,6.5-1.59,13.62,13.62,0,0,1,6.4,1.8,18.9,18.9,0,0,1,5,4.13,34.9,34.9,0,0,1,6.15,10.86A73.79,73.79,0,0,1,177.41,309.34Z" style="fill: #ffc596"/>
    </g>
    <g>
      <ellipse cx="195.91" cy="321.34" rx="35.25" ry="41.25" style="fill: #60461b"/>
      <path d="M160.41,321.34A49.43,49.43,0,0,1,169,292.53a36.7,36.7,0,0,1,11.49-10.63c.28-.16.56-.35.86-.5l.9-.43,1.82-.85a13.88,13.88,0,0,1,1.89-.72q.95-.33,1.92-.63c1.3-.35,2.64-.56,4-.83s2.7-.24,4-.34a32.54,32.54,0,0,1,15.65,3.84,37.52,37.52,0,0,1,12.13,10.38,48,48,0,0,1,9.47,29.52,47.31,47.31,0,0,1-10.13,29,37.78,37.78,0,0,1-12,9.89,32.22,32.22,0,0,1-15.11,3.62A31.4,31.4,0,0,1,181,359.78a36.8,36.8,0,0,1-11.39-10.13A48.57,48.57,0,0,1,160.41,321.34Zm.5,0A42.78,42.78,0,0,0,170.48,349a35.62,35.62,0,0,0,11.43,9.12,30.39,30.39,0,0,0,14,3.22,29.44,29.44,0,0,0,13.77-3.67,34.74,34.74,0,0,0,10.8-9.35,43.73,43.73,0,0,0,8.68-27,46,46,0,0,0-2.48-14.09,40.32,40.32,0,0,0-6.87-12.35A34.71,34.71,0,0,0,209.13,286a29.22,29.22,0,0,0-13.22-3.44,29.91,29.91,0,0,0-13.47,3,35.64,35.64,0,0,0-11.33,8.61,40.31,40.31,0,0,0-7.49,12.56,43,43,0,0,0-2,7.17c-.16,1.23-.4,2.45-.51,3.69Z" style="fill: #ffc596"/>
    </g>
    <g>
      <ellipse cx="235.66" cy="338.59" rx="24" ry="42" style="fill: #60461b"/>
      <path d="M211.91,338.59a58.1,58.1,0,0,0,5.27,25.52,34.6,34.6,0,0,0,7.43,10.47c3.07,2.89,7,4.85,11,4.76a15.62,15.62,0,0,0,10.7-5.11,34.08,34.08,0,0,0,6.77-10.57,62.64,62.64,0,0,0,4.53-25.07,61.46,61.46,0,0,0-5.3-24.72,34.46,34.46,0,0,0-6.82-10.08,14.79,14.79,0,0,0-9.88-4.7c-3.62-.1-7.26,1.63-10.26,4.33a35.07,35.07,0,0,0-7.48,10A56.5,56.5,0,0,0,211.91,338.59Zm-.5,0a84,84,0,0,1,.84-13.24,62.84,62.84,0,0,1,3.22-13,35.57,35.57,0,0,1,7-11.87,21.43,21.43,0,0,1,5.78-4.45,16.23,16.23,0,0,1,14.86-.22,21.9,21.9,0,0,1,6,4.29,36.46,36.46,0,0,1,7.7,11.79,59.38,59.38,0,0,1,3.75,13.2,74.11,74.11,0,0,1,1,13.53A66.38,66.38,0,0,1,256.1,365a36.91,36.91,0,0,1-7.73,11.3,21.37,21.37,0,0,1-5.76,4,16.14,16.14,0,0,1-7,1.54,16,16,0,0,1-6.85-1.75,20.49,20.49,0,0,1-5.51-4.17,35.84,35.84,0,0,1-7.08-11.39,61.29,61.29,0,0,1-3.6-12.77A80.63,80.63,0,0,1,211.41,338.59Z" style="fill: #ffc596"/>
    </g>
    <g>
      <ellipse cx="270.91" cy="330.34" rx="29.25" ry="41.25" style="fill: #60461b"/>
      <path d="M241.41,330.34c-.07-9.3,1.6-18.8,6-27.35a34.24,34.24,0,0,1,9.24-11.28,25,25,0,0,1,6.62-3.68,24.49,24.49,0,0,1,7.6-1.44,24.81,24.81,0,0,1,14.52,4.69,35,35,0,0,1,9.9,11.12,55,55,0,0,1,6.82,27.94,54.11,54.11,0,0,1-7.54,27.5,35.35,35.35,0,0,1-9.85,10.61,24,24,0,0,1-13.85,4.39,23.34,23.34,0,0,1-13.57-4.8,34.21,34.21,0,0,1-9.19-10.76A56.79,56.79,0,0,1,241.41,330.34Zm.5,0a48.33,48.33,0,0,0,7.14,26.4,33.22,33.22,0,0,0,9.37,9.77,22,22,0,0,0,12.49,3.83,21.36,21.36,0,0,0,12.19-4.24,32.14,32.14,0,0,0,8.72-9.93,50.46,50.46,0,0,0,6.33-25.83,54.71,54.71,0,0,0-1.83-13.26A45,45,0,0,0,291.09,305a32.28,32.28,0,0,0-8.66-9.41,20.59,20.59,0,0,0-11.52-4,19.52,19.52,0,0,0-6.1.86,22.46,22.46,0,0,0-5.74,2.66,33.15,33.15,0,0,0-9.33,9.26A47.18,47.18,0,0,0,241.91,330.34Z" style="fill: #ffc596"/>
    </g>
    <g>
      <ellipse cx="313.18" cy="345.34" rx="30.47" ry="41.25" style="fill: #60461b"/>
      <path d="M282.47,345.34c.18-9.45,2.33-19,7.23-27.22a34.37,34.37,0,0,1,9.66-10.62,25.23,25.23,0,0,1,13.82-4.66,25.81,25.81,0,0,1,14.1,4.24,35.32,35.32,0,0,1,10.32,10.45c5.38,8.25,7.85,18.07,8,27.81A58.32,58.32,0,0,1,344,359.91a48.68,48.68,0,0,1-5.65,13.7,35.28,35.28,0,0,1-10.39,11l-1.62,1-1.75.87a22,22,0,0,1-3.63,1.44l-.93.3-1,.2-1.93.37c-1.29.2-2.61.2-3.92.29-1.3-.13-2.61-.17-3.89-.41l-1.91-.43-.95-.22-.91-.34a20.31,20.31,0,0,1-3.54-1.55l-1.68-.91-1.57-1.09A34.32,34.32,0,0,1,289,373,49.27,49.27,0,0,1,284,359.5l-.41-1.75-.28-1.76c-.18-1.18-.38-2.35-.46-3.54s-.27-2.36-.28-3.55Zm.5,0a46.27,46.27,0,0,0,8.3,26.22,33.11,33.11,0,0,0,9.75,9.11,23.18,23.18,0,0,0,12.16,3.42,22.45,22.45,0,0,0,11.88-3.86,32.4,32.4,0,0,0,9.08-9.28c4.93-7.42,7.31-16.53,7.51-25.61s-2-18.32-6.79-26.06a32.38,32.38,0,0,0-9.16-9.8,23.16,23.16,0,0,0-12.52-4.14,23.85,23.85,0,0,0-12.79,3.72,33.06,33.06,0,0,0-9.8,9.63C285.34,326.43,282.93,336,283,345.34Z" style="fill: #ffc596"/>
    </g>
    <g>
      <ellipse cx="351.71" cy="334.09" rx="27.94" ry="37.5" style="fill: #60461b"/>
      <path d="M324,334.09a41.36,41.36,0,0,0,7.72,23.82,30,30,0,0,0,8.94,8.16,21.15,21.15,0,0,0,11,3,20.51,20.51,0,0,0,10.74-3.46,29.37,29.37,0,0,0,8.28-8.34c4.52-6.68,6.72-15,6.92-23.2a44.34,44.34,0,0,0-6.21-23.66,29.3,29.3,0,0,0-8.35-8.85,21.21,21.21,0,0,0-11.38-3.74,21.84,21.84,0,0,0-11.64,3.32,30.16,30.16,0,0,0-9,8.68A42.44,42.44,0,0,0,324,334.09Zm-.5,0a50.08,50.08,0,0,1,6.65-24.82,31.3,31.3,0,0,1,8.87-9.69,23.21,23.21,0,0,1,12.66-4.24,24,24,0,0,1,12.94,3.82,32.44,32.44,0,0,1,9.52,9.51,47.81,47.81,0,0,1,7.48,25.42,52.28,52.28,0,0,1-1.56,13.34A44,44,0,0,1,374.88,360a32.25,32.25,0,0,1-9.59,10c-.5.31-1,.65-1.51.95l-1.6.79a19.69,19.69,0,0,1-3.35,1.3l-.85.28-.89.17-1.78.34c-1.18.18-2.4.18-3.6.26-1.19-.12-2.4-.16-3.58-.38l-1.75-.4-.87-.2-.84-.3a18.49,18.49,0,0,1-3.25-1.42l-1.55-.84c-.49-.32-1-.66-1.44-1a31.28,31.28,0,0,1-8.93-10.2A45.34,45.34,0,0,1,324.87,347l-.37-1.6-.25-1.61c-.16-1.08-.34-2.15-.42-3.23s-.24-2.16-.25-3.24Z" style="fill: #ffc596"/>
    </g>
    <g>
      <ellipse cx="287.03" cy="241.1" rx="18" ry="33.91" style="fill: #60461b"/>
      <path d="M269.28,241.1a48.52,48.52,0,0,0,3.87,20.22,28.61,28.61,0,0,0,5.54,8.47c2.3,2.37,5.28,4.07,8.34,4s5.87-1.87,8-4.3a27.87,27.87,0,0,0,4.89-8.54A54.25,54.25,0,0,0,303,241.1a52.76,52.76,0,0,0-3.93-19.5,28.56,28.56,0,0,0-5-8.07c-2-2.25-4.53-3.79-7.11-3.84s-5.26,1.3-7.5,3.48a29.07,29.07,0,0,0-5.63,8A47,47,0,0,0,269.28,241.1Zm-.5,0a68.27,68.27,0,0,1,2.64-20.92,29.36,29.36,0,0,1,5-9.81,17.07,17.07,0,0,1,4.47-3.9,13,13,0,0,1,6.1-1.78,13.22,13.22,0,0,1,6.22,1.56A17.64,17.64,0,0,1,298,210a30.34,30.34,0,0,1,5.71,9.73,52.17,52.17,0,0,1,2.66,10.59A64.68,64.68,0,0,1,307,241.1a57.61,57.61,0,0,1-4.13,21,30.75,30.75,0,0,1-5.78,9.26,16.93,16.93,0,0,1-4.46,3.47,11.79,11.79,0,0,1-5.63,1.39,11.66,11.66,0,0,1-5.52-1.6,15.87,15.87,0,0,1-4.2-3.6,29.55,29.55,0,0,1-5.13-9.33A65.39,65.39,0,0,1,268.78,241.1Z" style="fill: #ffc596"/>
    </g>
    <g>
      <ellipse cx="308.78" cy="235.85" rx="21.75" ry="28.66" style="fill: #60461b"/>
      <path d="M287.28,235.85a37.86,37.86,0,0,0,1.48,9.71,28.94,28.94,0,0,0,4.37,8.66,21.4,21.4,0,0,0,7.08,6.15,15.51,15.51,0,0,0,8.57,1.75,15.17,15.17,0,0,0,7.66-3.19,21.34,21.34,0,0,0,5.43-6.41,30,30,0,0,0,3.14-8,34.49,34.49,0,0,0,1-8.66,33.54,33.54,0,0,0-1-8.66,29.13,29.13,0,0,0-3.12-8,21.26,21.26,0,0,0-5.44-6.42,15.08,15.08,0,0,0-7.67-3.19,15.62,15.62,0,0,0-8.58,1.76,21.44,21.44,0,0,0-7.08,6.16,29.09,29.09,0,0,0-4.36,8.67A37.79,37.79,0,0,0,287.28,235.85Zm-.5,0a35,35,0,0,1,5.38-19,23.94,23.94,0,0,1,7-7.09,17.34,17.34,0,0,1,19.17-.06,24.15,24.15,0,0,1,7.12,7.08,35.72,35.72,0,0,1,0,38.18,24.11,24.11,0,0,1-7.12,7.07,17.31,17.31,0,0,1-19.17-.05,23.94,23.94,0,0,1-7-7.09A35,35,0,0,1,286.78,235.85Z" style="fill: #ffc596"/>
    </g>
    <g>
      <ellipse cx="339.53" cy="236.76" rx="22.5" ry="27.75" style="fill: #60461b"/>
      <path d="M316.78,236.76a35.21,35.21,0,0,1,5.64-18.88,24.2,24.2,0,0,1,7.21-7.11,19.62,19.62,0,0,1,9.9-3,20.46,20.46,0,0,1,10.14,2.58,25.21,25.21,0,0,1,7.85,6.89A33.63,33.63,0,0,1,364,236.76a34.46,34.46,0,0,1-5.82,20,25,25,0,0,1-8,7.4A20.94,20.94,0,0,1,339.53,267c-.94-.08-1.87-.14-2.79-.27s-1.83-.36-2.71-.65a20.73,20.73,0,0,1-5-2.35,24.23,24.23,0,0,1-7.31-7.62A36.27,36.27,0,0,1,316.78,236.76Zm.5,0a27.92,27.92,0,0,0,6.64,17.77c4.12,4.76,9.89,7.65,15.61,7.47s11.06-3.4,14.69-8.14a29.23,29.23,0,0,0,5.81-17.1,30,30,0,0,0-5.13-17.61,22,22,0,0,0-6.65-6.31,17.69,17.69,0,0,0-8.72-2.58,18.51,18.51,0,0,0-9,2.14,23.08,23.08,0,0,0-7.3,6.1A28.9,28.9,0,0,0,317.28,236.76Z" style="fill: #ffc596"/>
    </g>
    <g>
      <ellipse cx="362.03" cy="235.85" rx="16.5" ry="28.66" style="fill: #60461b"/>
      <path d="M345.28,235.85a51.76,51.76,0,0,1,3.26-17.8,25.09,25.09,0,0,1,4.81-7.91,12.73,12.73,0,0,1,8.68-4.2,13.28,13.28,0,0,1,9,3.84,26.08,26.08,0,0,1,5.47,7.82,45.74,45.74,0,0,1,4,18.25,46.94,46.94,0,0,1-3.22,18.59,25.64,25.64,0,0,1-5.44,8.31c-.63.59-1.32,1.15-2,1.69l-1.15.73c-.19.11-.37.24-.58.35l-.63.28-1.28.53-1.36.35-.69.17-.71.06L362,267l-1.41-.15-.7-.08-.68-.19-1.33-.41-1.24-.59-.6-.31c-.19-.11-.37-.25-.56-.37l-1.08-.76a22.44,22.44,0,0,1-1.87-1.77,24.57,24.57,0,0,1-4.77-8.4A54.24,54.24,0,0,1,345.28,235.85Zm.5,0a40.64,40.64,0,0,0,1.19,8.86,33.22,33.22,0,0,0,3.26,8.17,23.74,23.74,0,0,0,5.22,6.5A10.1,10.1,0,0,0,362,262a9.73,9.73,0,0,0,6.21-3,23.38,23.38,0,0,0,4.54-6.6,35,35,0,0,0,2.73-8,49.9,49.9,0,0,0,1-8.56,42.07,42.07,0,0,0-3-16.91,23.18,23.18,0,0,0-4.51-7.09,10.61,10.61,0,0,0-7-3.41,11,11,0,0,0-7.37,3.05,23.76,23.76,0,0,0-5.17,7A37.85,37.85,0,0,0,345.78,235.85Z" style="fill: #ffc596"/>
    </g>
  </g>
</svg>
