<svg xmlns="http://www.w3.org/2000/svg" viewBox="0 0 734.3 202.4">
  <g fill="#210d00">
    <path d="M640.9 107.4c-3.3 0-13.8.5-25.1 1l2.2 1.7c2.7 2 5.4 3.8 8 6.1l7.3 6.9a197.2 197.2 0 0 1 14.2 14.1s2 .9 11.6-.5 27-6.4 31-7.4a38 38 0 0 0 3.3-1.1l1.9-2.6a36.1 36.1 0 0 1 8-7.8h.1l3-1.5.6-.3c-8.9-.3-30.4-1-37.3-2-9-1.3-21-6.7-28.8-6.6z"/>
    <path d="M720 101c-2.4-1.3-2.2-4.7-6-7.2-1-.7-2.7-1.8-5.2-3.1l-1.4-.8-1.5-.9-5.7-3-.6-.3-.8-.4c-6-3-13.1-6.3-20-8.8-15-5.8-42.7-15.8-69.3-21.4s-61-10.6-92.4-10.7h-1.7c-9.6.2-57.4 1.1-79.6 2.4C411 48.2 270.3 58 240.4 61S140.7 73 119 74.6l-9.4.6-8.5.8a34 34 0 0 0-15 3.6c-5.3 3.2-13.5 8.4-13.3 17s9.5 22.4 23.5 22.5h.2l15.2.1c12 .3 25.7 1.1 36.5 3.3 15.7 3.2 22.2 5.2 43.3 6.5s62 8.9 80.7 10.8 79 10.1 98 10.9a1022.2 1022.2 0 0 1 47.3 3l43.3 3c29 2 20.7 9 44.2 11s45 3.5 66-2 56-20.6 65.8-24.3c8.4-3.2 10.2-4 10.6-4a196.8 196.8 0 0 1-15.3-13l-7.5-6.6c-2.5-2.1-5.2-4-7.9-6l-4-3.3c-14.4.6-29 1.2-31 .8-2.7-.6 14.3-3.2 26.6-4.6a44.6 44.6 0 0 1-6.1-7l-.7-.9a25.2 25.2 0 0 1-3.4-8.4 19.8 19.8 0 0 1 .8-10 22.2 22.2 0 0 0 .2 9.8 28 28 0 0 0 4.4 8.6 57 57 0 0 0 7.4 7.7c3.9-.4 7-.6 8.4-.6 6.3.1 23-.8 33.3 2.3s17.3 4 28.8 4.1c8.3.2 19.7.4 27.2-.5a3.2 3.2 0 0 1 3.6 3.8l6-2.7h-.1a3.8 3.8 0 0 1 1.8-.5 2.7 2.7 0 0 1 2.2 1 4.3 4.3 0 0 1 .6 1.8 7.5 7.5 0 0 0 1.9-4.2 10 10 0 0 0-4.6-8zm-125.9 20.3h1.8a21 21 0 0 0 11-2.8 10.8 10.8 0 0 1 3.1-1.1c3.8-.7 10.3 1.6 12.1 4.3s4.7 6.3 3.2 9.7-15 7-15 7a115.5 115.5 0 0 1-13 6.8c-6.6 2.9-10 5.8-15 5.5s-17.3-4-23.4-7-14.1-7-18.2-9.7 2.6-6.8 6-7.6 18.8-4.2 24.4-4.9 15.7-.6 23-.2zm99.6-22.6c-3.4 0-6.1-2.2-6-4.7s2.8-4.5 6.2-4.4 6.2 2.2 6.2 4.7-3 4.5-6.4 4.4z"/>
  </g>
  <path fill="#fff" d="M693.8 98.7c3.4 0 6.2-2 6.3-4.4s-2.7-4.6-6.1-4.7-6.3 1.9-6.4 4.4 2.7 4.6 6.1 4.7z"/>
  <g fill="#6d6d6d">
    <path d="M272.2 139.8c-18.7-2-59.6-9.5-80.7-10.8s-27.6-3.3-43.3-6.5c-10.8-2.2-24.4-3-36.5-3.3-7 7.2-9.3 22.5-9.3 22.5s26.6 4.6 35.7 5.5 44.7 6.6 57.2 8.5 40.4 10 49.5 11.9 38.8 4.7 51.4 5.6 44.3 7.6 57 5.9 22.2-9.5 29.9-15.4a223 223 0 0 0 13.6-11.5c-10.6-.7-20-1.3-26.5-1.5-19-.8-79.2-9-98-10.9zM432.8 1.7c-5.3-1.4-10-2.7-29-.6s-34.3 5.6-48 8.3-45.3 9.3-72.4 11.5-50.2 9-75 11.3-55.4 5.3-71.2 10.5S92.8 55.4 96 58.5c2.2 2 9.3 11.2 13.6 16.8l9.3-.7C140.7 73 210.6 63.9 240.4 61S411 48.2 435.8 46.8c22.2-1.2 70-2.2 79.6-2.4-8.5-6-25.6-17.5-34.3-22.1-10.7-5.8-43-19.1-48.3-20.6zM633 42.2a73.5 73.5 0 0 0 9.8 6.8 237.3 237.3 0 0 0 21.4 10.8c7.2 3.3 14.6 6.2 21.6 9.8a28 28 0 0 1 8.7 6.9 23.8 23.8 0 0 1 4.3 8.8l.8.4.6.4c2 1 4 2 5.6 3l1.6.8 1.5.8a29.7 29.7 0 0 0-1.5-11.9 35.1 35.1 0 0 0-2.8-6.3 174.8 174.8 0 0 0-7.1-11.6 31.3 31.3 0 0 0-2.2-2.8l-2-2.6a44.3 44.3 0 0 0-10.2-9.3 56.8 56.8 0 0 0-12.3-5.9c-4.3-1.5-8.5-2.9-12.6-4.5a88.2 88.2 0 0 1-12.2-5.5 29.8 29.8 0 0 1-10-8.7v.1a30.6 30.6 0 0 0 9.5 9.4 81.5 81.5 0 0 0 12 6.2l12.5 5a58 58 0 0 1 11.6 6 41.6 41.6 0 0 1 9.3 9l2.1 2.8a26.6 26.6 0 0 1 1.9 2.5 105.7 105.7 0 0 1 6.6 11.6l1.2 2.3c.4 1.1.7 2.6-.1 3s-1.8-.6-2.4-1.4a20.8 20.8 0 0 0-2.8-4 31.5 31.5 0 0 0-10-7.6c-7.4-3.4-14.9-6.1-22.2-9.1a236.4 236.4 0 0 1-21.7-9.7 78 78 0 0 1-10.1-6.1c-3-2.4-6.2-5.1-7.4-9 1 4 4 7 7 9.6zM414.3 180.8c1 6.4 7.7 16.5 11 21.6 1.9-1.9 13.3-11 17.3-15.8a135 135 0 0 0 13.2-20.3c2.2-4.7 5-9.6 5-9.6l-43.3-3c-13.2 6.6-4.2 20.8-3.2 27.1zM86 79.7c3.5-2 7.2-3 15-3.7-6.5-1.1-16-2.6-22-3.3-9.8-1-16.8-5.1-28.6-8.4s-36.3-9.8-42.5-8-7 9.7-6.4 11.3S18 72 14 72.4 0 72 0 72s2.9 10 4.8 18.4S3.5 121 3.7 123s11.2-.4 11.1.9-2.5.5-9 3.1-.8 5.5 1 7.7 11.5 3 14 2 15.9-2.5 23.3-3.7 19.8-3.5 26.4-5.6l25.8-8.3c-14-.1-23.2-14-23.5-22.5s8-13.8 13.3-17zM734 139.1a21 21 0 0 0-3.6-8.6 19.5 19.5 0 0 0-3.2-3.5 19.3 19.3 0 0 1-2.8-3.3 42 42 0 0 1-2.9-4.9 4.5 4.5 0 0 0 1-1.7 13 13 0 0 0 .4-2.6 13.4 13.4 0 0 0 0-1.4 4.3 4.3 0 0 0-.7-1.7 2.7 2.7 0 0 0-2.2-1 3.8 3.8 0 0 0-1.8.5h.2l-6 2.6a1.2 1.2 0 0 1 0 .2 3.7 3.7 0 0 1-.4.8 3.2 3.2 0 0 1-2.9 1.6H707l-.6.3-3 1.4h-.1a36.1 36.1 0 0 0-8 7.9l-2 2.5-1.1 2-2.5 4.5a105.6 105.6 0 0 1-12.5 16.6 62.3 62.3 0 0 1-7.6 7.1c-2.7 2.2-6 3.4-9 5.2-6.2 3.3-12.2 6.8-18.3 10.3q9.1-5.2 18.5-10l4.6-2.3a28 28 0 0 0 4.6-2.7 81.8 81.8 0 0 0 8-6.8 170 170 0 0 0 14.5-15.5c1.1-1.3 2.2-2.9 3.2-4.3l2.4-3.7 1.7-1a15.4 15.4 0 0 1 3.5-1.9l3.1-.5-.7 1.1a48.2 48.2 0 0 0-2.5 4.6 26.7 26.7 0 0 0-1.6 5c-.8 3.3-1.3 6.7-2 10-.5 3-2 6-3.4 9-2.9 6-5.6 12.2-10.6 16.7a32.5 32.5 0 0 1-17.3 9c6.7-.7 12.9-4 18-8.4a33 33 0 0 0 6.5-7.7c1.8-2.9 3.4-5.8 5-8.8a47.4 47.4 0 0 0 4-9.4c.8-3.2 1.6-6.5 2.6-9.6a30.2 30.2 0 0 1 1.7-4.4 43.7 43.7 0 0 1 2.5-4.1l3-4.4.5-.2a23 23 0 0 0 2.2-.9l1.6-.7 4 6.6c.5.8 1 1.6 1.3 2.4a12.6 12.6 0 0 1 .9 2.3 41.6 41.6 0 0 1 1 5.4 77.3 77.3 0 0 1 .4 11 89.3 89.3 0 0 1-.9 11 74.4 74.4 0 0 0 2.4-22.2 44 44 0 0 0-.6-5.7 13.7 13.7 0 0 0-.8-3l-1.2-2.5a77.7 77.7 0 0 0-3.9-6.5l1-.4a43.6 43.6 0 0 0 3.2 4.6 20.6 20.6 0 0 0 3.4 3.4 18 18 0 0 1 3.2 3 20.2 20.2 0 0 1 4 7.9 25.2 25.2 0 0 1 .5 9 25.4 25.4 0 0 0 .2-9.2zM610 117.4a10.8 10.8 0 0 0-3.1 1.1 21 21 0 0 1-11 2.8H594c-7.3-.4-17.5-.4-23.1.3s-21 4-24.4 4.8-10 4.9-6 7.6 12 6.7 18.1 9.8 18.4 6.6 23.5 6.9 8.4-2.6 15-5.5a115.5 115.5 0 0 0 13-6.8s13.5-3.6 15-7-1.3-7-3.2-9.6-8.2-5.1-12-4.4zM647.4 137.3a197.2 197.2 0 0 0-14.1-14.2l-7.3-6.9c-2.6-2.3-5.3-4.1-8-6.1l-2.2-1.7-3.1.1 4 3.2 7.9 6 7.5 6.7a196.8 196.8 0 0 0 15.3 12.9zM601.6 96.7l.6 1a44.6 44.6 0 0 0 6.2 7l2.6-.3a57 57 0 0 1-7.4-7.8 28 28 0 0 1-4.4-8.6 22.2 22.2 0 0 1-.3-9.8 19.8 19.8 0 0 0-.8 10 25.2 25.2 0 0 0 3.5 8.5z"/>
  </g>
  <path fill="#fff" d="M708.7 109.7c-7.6 1-19 .7-27.2.5-11.6-.2-18.4-1-28.8-4.1s-27-2.2-33.3-2.3c-1.5 0-4.6.2-8.4.6 1.5 1.4 3.1 2.7 4.8 4 11.3-.5 21.8-1 25-1 7.9 0 20 5.3 28.9 6.6 7 1 28.4 1.7 37.3 2 1.7-1 3.5-1.8 5.2-2.6a3.2 3.2 0 0 0-3.5-3.7zM581.7 109.3c2 .4 16.6-.2 31-.8q-2.2-1.8-4.3-3.8c-12.3 1.4-29.4 4-26.7 4.5z"/>
  <path fill="#fff" d="M608.4 104.7q2 2 4.3 3.8l3-.1a95.4 95.4 0 0 1-4.7-4zM712.2 113.6a1.2 1.2 0 0 0 0-.1c-1.8.7-3.5 1.6-5.3 2.5h.1z"/>
  <path fill="#fff" d="M709 116a3.2 3.2 0 0 0 2.8-1.5 3.7 3.7 0 0 0 .4-.9L707 116z"/>
</svg>
