<svg xmlns="http://www.w3.org/2000/svg" viewBox="0 0 1528.24 1529.02">
    <path d="M0 346.65h1528.24v1047.5A134.87 134.87 0 0 1 1393.37 1529H134.87A134.87 134.87 0 0 1 0 1394.16V346.65z" fill="#2eacff"
    />
    <g>
        <path d="M3000 246.65H0v388.83a73.57 73.57 0 0 1 93.75 0 73.54 73.54 0 0 0 93.75 0 73.57 73.57 0 0 1 93.75 0 73.54 73.54 0 0 0 93.75 0 73.57 73.57 0 0 1 93.75 0 73.54 73.54 0 0 0 93.75 0 73.57 73.57 0 0 1 93.75 0 73.54 73.54 0 0 0 93.75 0 73.57 73.57 0 0 1 93.75 0 73.54 73.54 0 0 0 93.75 0 73.57 73.57 0 0 1 93.75 0 73.54 73.54 0 0 0 93.75 0 73.57 73.57 0 0 1 93.75 0 73.54 73.54 0 0 0 93.75 0 73.57 73.57 0 0 1 93.75 0 73.54 73.54 0 0 0 93.75 0 73.57 73.57 0 0 1 93.75 0 73.54 73.54 0 0 0 93.75 0 73.57 73.57 0 0 1 93.75 0 73.54 73.54 0 0 0 93.75 0 73.57 73.57 0 0 1 93.75 0 73.54 73.54 0 0 0 93.75 0 73.57 73.57 0 0 1 93.75 0 73.54 73.54 0 0 0 93.75 0 73.57 73.57 0 0 1 93.75 0 73.54 73.54 0 0 0 93.75 0 73.57 73.57 0 0 1 93.75 0 73.54 73.54 0 0 0 93.75 0 73.57 73.57 0 0 1 93.75 0 73.54 73.54 0 0 0 93.75 0 73.57 73.57 0 0 1 93.75 0 73.54 73.54 0 0 0 93.75 0 73.57 73.57 0 0 1 93.75 0 73.54 73.54 0 0 0 93.75 0 73.57 73.57 0 0 1 93.75 0 73.54 73.54 0 0 0 93.75 0 73.57 73.57 0 0 1 93.75 0 73.54 73.54 0 0 0 93.75 0 73.57 73.57 0 0 1 93.75 0 73.54 73.54 0 0 0 93.75 0 73.57 73.57 0 0 1 93.75 0 73.54 73.54 0 0 0 93.75 0 73.57 73.57 0 0 1 93.75 0 73.54 73.54 0 0 0 93.75 0 73.57 73.57 0 0 1 93.75 0 73.54 73.54 0 0 0 93.75 0 73.57 73.57 0 0 1 93.75 0 73.54 73.54 0 0 0 93.75 0V246.65z"
        fill="#fff" />
        <animateTransform attributeName="transform"
                    attributeType="XML"
                    type="translate"
                    from="0 0"
                    to="-2972 0"
                    dur="10s"
                    begin="0s"
                    repeatCount="indefinite"/>
    </g>
    <path fill="#2eacff" d="M91.67 0h74v726.65h-74z" />
    <g fill="none" stroke="#fff" stroke-miterlimit="10" stroke-width="30">
        <path d="M165.67 0v883.21a58.51 58.51 0 0 0 58.45 58.44h102" />
        <path d="M326.11 1015.65h-102c-73 0-132.45-59.41-132.45-132.44V0" />
    </g>
    <path fill="#2eacff" stroke="#fff" stroke-miterlimit="10" stroke-width="30" d="M1239.51-16.25h74v366.53h-74z" />
    <g fill="#2eacff">
        <g>

            <path d="M1272.77 431.69a10.85 10.85 0 1 1-21.7 0c0-5.76 4.06-7 5.81-11.75 2-5.38 3.24-9.18 5-9.18s2.32 3.65 4.24 8.16c2.26 5.21 6.65 6.18 6.65 12.77z"
            />
            <animateTransform attributeName="transform"
            attributeType="XML"
            type="translate"
            from="0 -60"
            to="0 200"
            dur="1s"
            begin="0s;op.end+5s"
            repeatCount="indefinite"/>
        </g>
        <g>
            <path d="M1290.77 389.24a10.85 10.85 0 1 1-21.7 0c0-5.76 4.06-7 5.81-11.75 2-5.38 3.24-9.17 5-9.17s2.32 3.65 4.24 8.16c2.26 5.2 6.65 6.17 6.65 12.76z"
        />
        <animateTransform attributeName="transform"
            attributeType="XML"
            type="translate"
            from="0 -60"
            to="0 200"
            dur="1.342s"
            begin="0s;op.end+5.2325s"
            repeatCount="indefinite"/>
        </g>
        <g>
            <path d="M1295.68 468.68a10.85 10.85 0 1 1-21.7 0c0-5.75 4.06-7 5.81-11.74 2-5.39 3.24-9.18 5-9.18s2.32 3.65 4.24 8.16c2.26 5.2 6.65 6.17 6.65 12.76z"
        />
        <animateTransform attributeName="transform"
            attributeType="XML"
            type="translate"
            from="0 -60"
            to="0 200"
            dur="1.23s"
            begin="0s;op.end+4.36s"
            repeatCount="indefinite"/>
        </g>
        <g>
            <path d="M1268.77 498.67a10.85 10.85 0 1 1-21.7 0c0-5.76 4.06-7 5.81-11.75 2-5.38 3.24-9.17 5-9.17s2.32 3.65 4.24 8.16c2.26 5.2 6.65 6.17 6.65 12.76z"
        />
            <animateTransform attributeName="transform"
            attributeType="XML"
            type="translate"
            from="0 -60"
            to="0 200"
            dur="0.5646s"
            begin="0s;op.end+3.3634s"
            repeatCount="indefinite"/>
        </g>
        <g>
            <path d="M1301.63 531.69a10.86 10.86 0 0 1-21.71 0c0-5.76 4.06-7 5.81-11.75 2-5.39 3.25-9.18 5-9.18s2.32 3.65 4.24 8.16c2.26 5.21 6.66 6.18 6.66 12.77z"
        />
            <animateTransform attributeName="transform"
            attributeType="XML"
            type="translate"
            from="0 -60"
            to="0 200"
            dur="1.4s"
            begin="0s;op.end+6.46346s"
            repeatCount="indefinite"/>
        </g>
        <g>
            <path d="M1268.77 549.76a10.85 10.85 0 1 1-21.7 0c0-5.75 4.06-7 5.81-11.74 2-5.39 3.24-9.18 5-9.18s2.32 3.65 4.24 8.16c2.26 5.21 6.65 6.18 6.65 12.76z"
        />
            <animateTransform attributeName="transform"
            attributeType="XML"
            type="translate"
            from="0 -60"
            to="0 200"
            dur="1.2s"
            begin="0s;op.end+7s"
            repeatCount="indefinite"/>
        </g>
    </g>
    <g fill="#fff">
        <path d="M118.6 741.19l10.07-14.54 10.07 14.54H118.6z" />
        <path d="M118.6 765.02l10.07-14.54 10.07 14.54H118.6z" />
        <path d="M118.6 788.85l10.07-14.54 10.07 14.54H118.6z" />
    </g>
    <g fill="#fff">
        <path d="M277 989.1l-14.54-10.08L277 968.95v20.15z" />
        <path d="M300.83 989.1l-14.54-10.08 14.54-10.07v20.15z" />
        <path d="M324.65 989.1l-14.54-10.08 14.54-10.07v20.15z" />
    </g>
    <g fill="#fff">
        <path d="M118.6 447.09l10.07-14.54 10.07 14.54H118.6z" />
        <path d="M118.6 470.92l10.07-14.54 10.07 14.54H118.6z" />
        <path d="M118.6 494.75l10.07-14.54 10.07 14.54H118.6z" />
    </g>
    <g fill="#fff">
        <path d="M118.6 152.99l10.07-14.54 10.07 14.54H118.6z" />
        <path d="M118.6 176.82l10.07-14.54 10.07 14.54H118.6z" />
        <path d="M118.6 200.65l10.07-14.55 10.07 14.55H118.6z" />
    </g>
    <g fill="#fff">
        <path d="M1286.59 186.1l-10.07 14.55-10.08-14.55h20.15z" />
        <path d="M1286.59 162.28l-10.07 14.54-10.08-14.54h20.15z" />
        <path d="M1286.59 138.45l-10.07 14.54-10.08-14.54h20.15z" />
    </g>
</svg>