<svg xmlns="http://www.w3.org/2000/svg" viewBox="0 0 366.51 1039.65">
  <title>wave</title>
  <path d="M495.35-30l-592-14L0,1022.22H0v3.23c1.05-.36,19.43-9.21,27.66-14.65a208.5,208.5,0,0,0,23.44-17.86c3.66-3.29,7.2-6.69,10.59-10.25s6.55-7.34,9.57-11.22a129.54,129.54,0,0,0,8.32-12.18c2.53-4.22,4.63-8.72,6.85-13a253.75,253.75,0,0,1,15-25c5.44-8.06,11.28-15.85,17.45-23.37a385.2,385.2,0,0,1,40.15-42.22c7.22-6.49,14.68-12.7,22.45-18.46a144.38,144.38,0,0,1,24.51-15,60.36,60.36,0,0,1,6.54-2.58c2.22-.72,4.55-1.35,6.86-1.9a109.86,109.86,0,0,1,14.1-2.41,112.94,112.94,0,0,1,28.52.54,92.75,92.75,0,0,1,27.07,8.2,71.6,71.6,0,0,1,22.34,16.82,69.36,69.36,0,0,1,8.2,11.44c2.48,4.15,4.89,8.35,7.15,12.6s4.47,8.53,6.25,12.91a52.29,52.29,0,0,1,2.26,6.58,17.32,17.32,0,0,1,.45,2.55c-2.73-2.86-5.55-5.55-8.5-8.17-3.72-3.35-7.66-6.48-11.69-9.5a143,143,0,0,0-12.71-8.3,98,98,0,0,0-13.87-6.6,63.33,63.33,0,0,0-15.27-3.76,73.68,73.68,0,0,0-15.59.25,123.11,123.11,0,0,0-29.6,7.38,124.61,124.61,0,0,0-27,14.19,96.85,96.85,0,0,0-22.16,21.14,77.91,77.91,0,0,0-13.34,27.75,67.33,67.33,0,0,0-.56,30.86,84.93,84.93,0,0,0,12,28.17,126.42,126.42,0,0,0,44.11,40.91,63.87,63.87,0,0,0,7,3.24c1.2.47,2.53.89,3.73,1.24l3.55,1c4.73,1.39,9.5,2.79,14.3,4.09,19.17,5.19,39,8.84,59,8.78A120,120,0,0,0,339,1036l3.61-1c1.2-.37,2.38-.8,3.57-1.2,2.37-.8,4.7-1.88,6.95-2.67s4.66-1.71,7-2.7c1.15-.5,2.52-1.21,3.71-1.77a14.25,14.25,0,0,0,2.72-1.58ZM359.12,1026.09c-2.24.93-4.55,1.75-6.88,2.58s-4.62,1.75-6.95,2.48c-1.17.35-2.32.74-3.49,1.06l-3.54.91a118.78,118.78,0,0,1-29,2.9,182,182,0,0,1-29.14-3c-9.63-1.75-19.15-4.12-28.6-6.81-4.72-1.35-9.42-2.8-14.14-4.26l-3.56-1.1a34.44,34.44,0,0,1-3.29-1.14,59.22,59.22,0,0,1-6.39-3.06,120.4,120.4,0,0,1-41.44-39.53,80.59,80.59,0,0,1-10.82-26.22,60.7,60.7,0,0,1,.69-27.89,70.76,70.76,0,0,1,12.37-25.25,89.74,89.74,0,0,1,20.7-19.46,117.72,117.72,0,0,1,25.48-13.19,115.63,115.63,0,0,1,27.83-6.74,67,67,0,0,1,14-.15,55.25,55.25,0,0,1,13.46,3.24,124.2,124.2,0,0,1,25.45,13.21,237.6,237.6,0,0,1,23.34,17.52h0l.68.74-.14.11a12.55,12.55,0,0,0-1.33-1,20.53,20.53,0,0,0-2.63-1.82A31.76,31.76,0,0,0,327,888a46.48,46.48,0,0,0-10.24-2.59,87.65,87.65,0,0,0-21-.28A153.57,153.57,0,0,0,275,888.64a122.22,122.22,0,0,0-20,6.72A95.36,95.36,0,0,0,236.6,906a57.63,57.63,0,0,0-14.7,15.69,39.08,39.08,0,0,0-4.41,10.05,37,37,0,0,0-1.33,10.88A75.54,75.54,0,0,0,219,963.69a59.36,59.36,0,0,0,9.66,19.1,70.66,70.66,0,0,0,15.43,14.68c11.62,8.18,24.86,13.42,38.28,17.21a255.87,255.87,0,0,0,41.05,7.6c12.95,1.4,25.95,2.07,38.94,2.32C361.34,1025.14,360.23,1025.63,359.12,1026.09Z" style="fill: #fff"/>
</svg>
