<svg xmlns="http://www.w3.org/2000/svg" viewBox="0 0 1983.2 1948.27">
  <title>zero-state</title>
  <g style="opacity: 0.1">
    <rect x="646.08" y="414.13" width="996" height="572.55" rx="55.38" ry="55.38" transform="translate(118.08 1564.58) rotate(-71.58)" style="fill: #fff"/>
  </g>
  <g style="opacity: 0.1">
    <rect x="553.8" y="202.4" width="572.55" height="996" rx="55.38" ry="55.38" transform="translate(-178.26 301.31) rotate(-18.42)" style="fill: #fff"/>
  </g>
  <g style="opacity: 0.54">
    <path d="M1064.85,166.11a41.47,41.47,0,0,1,13.08,2.13l438.14,145.91a41.38,41.38,0,0,1,26.19,52.33l-279.7,839.9a41.3,41.3,0,0,1-52.33,26.18L772.09,1086.65a41.38,41.38,0,0,1-26.19-52.33l279.7-839.89a41.33,41.33,0,0,1,39.25-28.32m0-14A55.4,55.4,0,0,0,1012.32,190l-279.7,839.9a55.39,55.39,0,0,0,35,70l438.14,145.91a55.33,55.33,0,0,0,70-35l279.7-839.89a55.37,55.37,0,0,0-35-70L1082.36,155a55.46,55.46,0,0,0-17.51-2.85Z" style="fill: #fff"/>
  </g>
  <g style="opacity: 0.54">
    <path d="M919.31,166.11a41.32,41.32,0,0,1,39.25,28.32l279.7,839.89a41.38,41.38,0,0,1-26.19,52.33L773.93,1232.56a41.3,41.3,0,0,1-52.33-26.18L441.9,366.48a41.43,41.43,0,0,1,26.19-52.33L906.23,168.24a41.47,41.47,0,0,1,13.08-2.13h0m0-14A55.46,55.46,0,0,0,901.8,155L463.66,300.87a55.38,55.38,0,0,0-35,70l279.7,839.89a55.33,55.33,0,0,0,70,35l438.14-145.91a55.37,55.37,0,0,0,35-70L971.84,190a55.4,55.4,0,0,0-52.53-37.89Z" style="fill: #fff"/>
  </g>
  <g>
    <rect x="705.77" y="252.7" width="572.55" height="996" rx="55.38" ry="55.38" style="fill: #fff"/>
    <rect x="966.1" y="1166.7" width="51.89" height="51.89" rx="25.95" ry="25.95"/>
    <rect x="749.38" y="336.79" width="485.32" height="800.42"/>
    <path d="M1062,301.2H922a4.5,4.5,0,0,1,0-9h140a4.5,4.5,0,0,1,0,9Z"/>
  </g>
  <circle cx="995.21" cy="1508.26" r="50" style="fill: #fff"/>
  <rect y="1358.2" width="1983.2" height="19" style="fill: #fff"/>
  <g>
    <g>
      <path d="M285.88,718.72l-13.23-25.8a1861.76,1861.76,0,0,1,292-119.12c148-46,291.83-69.31,427.35-69.31s279.1,23.24,426.91,69.06a1856.88,1856.88,0,0,1,291.58,118.73l-13.22,25.81a1826.82,1826.82,0,0,0-286.94-116.84c-145-45-285.77-67.76-418.33-67.76s-273.48,22.88-418.74,68A1831.38,1831.38,0,0,0,285.88,718.72Z" style="fill: #fff"/>
      <polygon points="1693.62 638.98 1687.96 697.04 1642.23 733.27 1779.7 747.03 1693.62 638.98" style="fill: #fff"/>
      <polygon points="289.53 639.61 295.22 697.67 340.96 733.88 203.5 747.7 289.53 639.61" style="fill: #fff"/>
    </g>
    <g>
      <path d="M215.73,878.41h-8.81v16.75h-15V878.41H161.1V865l28.63-47.26h17.19v48.66h8.81Zm-23.8-12V832.88l-19.44,33.55Z" style="fill: #fff"/>
      <path d="M237.53,874.32A14.79,14.79,0,0,0,241,882q2.56,2.72,7.5,2.71,5.68,0,8.65-4a16.44,16.44,0,0,0,3-10.07,17.52,17.52,0,0,0-2.79-10.07q-2.79-4.11-8.68-4.11a15,15,0,0,0-4.82.7,9.6,9.6,0,0,0-5.42,4.78l-13.72-.64,5.47-43H273v13H241.23l-2.79,17a31.92,31.92,0,0,1,5.53-3.06,23.23,23.23,0,0,1,8.1-1.24,24.33,24.33,0,0,1,16.84,6.5q7.18,6.5,7.19,18.91a29.71,29.71,0,0,1-6.92,19.28q-6.93,8.49-20.72,8.48-11.1,0-18.24-6t-7.94-16.92Z" style="fill: #fff"/>
      <path d="M303,816.75a17.48,17.48,0,1,1-12.22,5.12A16.71,16.71,0,0,1,303,816.75Zm-8.7,17.34a8.67,8.67,0,1,0,2.54-6.16A8.42,8.42,0,0,0,294.25,834.09Z" style="fill: #fff"/>
    </g>
    <g>
      <path d="M1818.93,878.41h-8.81v16.75h-15V878.41H1764.3V865l28.63-47.26h17.19v48.66h8.81Zm-23.8-12V832.88l-19.44,33.55Z" style="fill: #fff"/>
      <path d="M1840.73,874.32a14.86,14.86,0,0,0,3.48,7.71q2.58,2.72,7.51,2.71,5.67,0,8.65-4a16.43,16.43,0,0,0,3-10.07,17.51,17.51,0,0,0-2.78-10.07q-2.79-4.11-8.68-4.11a15,15,0,0,0-4.82.7,9.6,9.6,0,0,0-5.42,4.78l-13.72-.64,5.47-43h42.84v13h-31.8l-2.79,17a31.56,31.56,0,0,1,5.53-3.06,23.15,23.15,0,0,1,8.1-1.24,24.33,24.33,0,0,1,16.84,6.5q7.19,6.5,7.19,18.91a29.67,29.67,0,0,1-6.93,19.28q-6.91,8.49-20.71,8.48-11.1,0-18.24-6t-7.94-16.92Z" style="fill: #fff"/>
      <path d="M1906.15,816.75a17.5,17.5,0,1,1-12.22,5.12A16.71,16.71,0,0,1,1906.15,816.75Zm-8.7,17.34a8.67,8.67,0,1,0,2.54-6.16A8.42,8.42,0,0,0,1897.45,834.09Z" style="fill: #fff"/>
    </g>
    <rect x="984.79" y="429.32" width="14.5" height="180.02" style="fill: #fff"/>
  </g>
  <path d="M722.28,1572.3l-156.72-64,156.72-64-27.31,47H867v34H695Zm-143.5-64,131.81,53.86-24.31-41.86H862v-24H686.28l24.31-41.85Z" style="fill: #fff"/>
  <path d="M1268.14,1572.28l27.32-47h-172v-34h172l-27.32-47,156.72,64Zm-139.67-52h175.67l-24.3,41.84,131.8-53.84-131.8-53.86,24.3,41.86H1128.47Z" style="fill: #fff"/>
  <path d="M472.12,1461.4,407.05,1499a10.71,10.71,0,0,0,0,18.56l65.07,37.57a10.71,10.71,0,0,0,16.07-9.28v-75.15A10.71,10.71,0,0,0,472.12,1461.4Z" style="fill: #fff"/>
  <path d="M1518.31,1555.11l65.07-37.57a10.72,10.72,0,0,0,0-18.56l-65.07-37.58a10.72,10.72,0,0,0-16.08,9.28v75.15A10.72,10.72,0,0,0,1518.31,1555.11Z" style="fill: #fff"/>
  <g>
    <path d="M901.82,1753.54a15.46,15.46,0,0,0,2.14,7.63q3.59,5.49,12.64,5.49a21.64,21.64,0,0,0,7.38-1.2q6.45-2.34,6.45-8.35,0-4.52-2.73-6.43a27.29,27.29,0,0,0-8.67-3.27l-7.25-1.69q-7.1-1.65-10-3.65-5.1-3.45-5.1-10.34a16.16,16.16,0,0,1,5-12.22q5-4.77,14.2-4.77a24.22,24.22,0,0,1,14.36,4.19q5.91,4.2,5.91,13.4h-7a14.19,14.19,0,0,0-2.31-6.8q-3.28-4.32-11.14-4.33-6.35,0-9.12,2.79a8.86,8.86,0,0,0-2.77,6.46,6.34,6.34,0,0,0,3.28,5.94q2.15,1.21,9.72,3l7.51,1.77a22.51,22.51,0,0,1,8.37,3.5c3.41,2.58,5.1,6.32,5.1,11.24q0,9.16-6.5,13.12a28.61,28.61,0,0,1-15.13,4q-10.05,0-15.73-5.27t-5.57-14.17Z" style="fill: #fff"/>
    <path d="M988.44,1716.13v6.58H969.83v48.65h-7.55v-48.65H943.66v-6.58Z" style="fill: #fff"/>
    <path d="M1039.46,1724q5.49,7.34,5.49,18.77,0,12.36-6.28,20.56-7.37,9.63-21,9.63-12.75,0-20-8.42-6.51-8.13-6.51-20.53,0-11.21,5.57-19.18,7.14-10.23,21.13-10.22Q1032.44,1714.63,1039.46,1724Zm-6.59,35.21a30.26,30.26,0,0,0,4.41-16.31q0-9.75-5.09-15.69t-13.93-6a18.12,18.12,0,0,0-14,5.89q-5.41,5.89-5.41,17.36,0,9.2,4.64,15.49t15.06,6.3Q1028.45,1766.32,1032.87,1759.23Z" style="fill: #fff"/>
    <path d="M1054.58,1716.13h24.71q7.34,0,11.84,4.15t4.51,11.68a17,17,0,0,1-4,11.26q-4,4.79-12.3,4.79h-17.25v23.35h-7.48Zm29,7.59a16.21,16.21,0,0,0-6.76-1.16h-14.78v19.14h14.78a14,14,0,0,0,8.12-2.15q3.12-2.15,3.12-7.56Q1088.08,1725.9,1083.6,1723.72Z" style="fill: #fff"/>
  </g>
  <g>
    <path d="M1448.67,1716.13h8.81l27.54,44.62v-44.62h7.15v55.23h-8.41l-28-44.57v44.57h-7.14Z" style="fill: #fff"/>
    <path d="M1505,1716.13h40.08v6.77h-32.79v16.76h30.31v6.4h-30.31v18.72h33.35v6.58H1505Z" style="fill: #fff"/>
    <path d="M1560.28,1771.36h-9l19.55-28.34-18.32-26.89h9.32l13.94,21.13,13.82-21.13h8.88L1580.17,1743l19.21,28.34h-9.26l-14.71-22.71Z" style="fill: #fff"/>
    <path d="M1647.15,1716.13v6.58h-18.62v48.65H1621v-48.65h-18.61v-6.58Z" style="fill: #fff"/>
  </g>
  <g>
    <path d="M252.55,1716.13h24.72q7.32,0,11.83,4.15t4.51,11.68a17,17,0,0,1-4,11.26q-4,4.79-12.31,4.79H260v23.35h-7.49Zm29,7.59a16.16,16.16,0,0,0-6.75-1.16H260v19.14h14.78a14.06,14.06,0,0,0,8.12-2.15q3.1-2.15,3.11-7.56Q286.05,1725.9,281.57,1723.72Z" style="fill: #fff"/>
    <path d="M304.1,1716.13h25.11a24.59,24.59,0,0,1,10.22,1.84q7.65,3.54,7.64,13a13.54,13.54,0,0,1-7.78,13.19,11.29,11.29,0,0,1,4.87,3.46q1.63,2.14,1.82,7l.27,7.41a22.77,22.77,0,0,0,.52,4.69,4.65,4.65,0,0,0,2.41,3.39v1.24H340a7.33,7.33,0,0,1-.61-1.84,35.82,35.82,0,0,1-.37-4.36l-.45-9.22c-.17-3.6-1.48-6-3.91-7.25a15.7,15.7,0,0,0-6.54-1H311.58v23.69H304.1Zm24.3,25.3a13.85,13.85,0,0,0,8.1-2.1q3-2.11,3-7.6c0-3.93-1.39-6.62-4.17-8a13.18,13.18,0,0,0-6-1.13H311.58v18.87Z" style="fill: #fff"/>
    <path d="M359.52,1716.13H399.6v6.77H366.81v16.76h30.31v6.4H366.81v18.72h33.35v6.58H359.52Z" style="fill: #fff"/>
    <path d="M414.54,1716.13l15.87,47,15.68-47h8.38l-20.15,55.23h-7.93l-20.12-55.23Z" style="fill: #fff"/>
    <path d="M463.21,1716.13h7.56v55.23h-7.56Z" style="fill: #fff"/>
    <path d="M528.41,1724q5.49,7.34,5.49,18.77,0,12.36-6.28,20.56-7.38,9.63-21,9.63-12.75,0-20-8.42-6.51-8.13-6.5-20.53,0-11.21,5.56-19.18,7.14-10.23,21.13-10.22Q521.38,1714.63,528.41,1724Zm-6.6,35.21a30.27,30.27,0,0,0,4.42-16.31q0-9.75-5.1-15.69t-13.93-6a18.1,18.1,0,0,0-14,5.89q-5.42,5.89-5.42,17.36,0,9.2,4.64,15.49t15.06,6.3Q517.39,1766.32,521.81,1759.23Z" style="fill: #fff"/>
    <path d="M550.89,1716.13v34.14a20,20,0,0,0,2.27,10q3.38,6,11.37,6,9.59,0,13-6.5a20.55,20.55,0,0,0,1.86-9.51v-34.14H587v31q0,10.18-2.75,15.67-5.06,10-19.09,10t-19-10q-2.76-5.47-2.76-15.67v-31Z" style="fill: #fff"/>
    <path d="M603.3,1753.54a15.46,15.46,0,0,0,2.14,7.63q3.59,5.49,12.64,5.49a21.74,21.74,0,0,0,7.39-1.2q6.43-2.34,6.44-8.35,0-4.52-2.73-6.43a27.09,27.09,0,0,0-8.67-3.27l-7.24-1.69q-7.11-1.65-10.06-3.65-5.1-3.45-5.1-10.34a16.13,16.13,0,0,1,5-12.22q5-4.77,14.19-4.77a24.2,24.2,0,0,1,14.36,4.19q5.91,4.2,5.91,13.4h-7a14.19,14.19,0,0,0-2.31-6.8q-3.27-4.32-11.14-4.33-6.35,0-9.12,2.79a8.86,8.86,0,0,0-2.77,6.46,6.34,6.34,0,0,0,3.28,5.94q2.14,1.21,9.72,3l7.51,1.77a22.57,22.57,0,0,1,8.38,3.5q5.1,3.87,5.1,11.24,0,9.16-6.51,13.12a28.61,28.61,0,0,1-15.13,4q-10,0-15.73-5.27t-5.57-14.17Z" style="fill: #fff"/>
  </g>
</svg>
